<svg width="99" height="102" viewBox="0 0 99 102" fill="none" xmlns="http://www.w3.org/2000/svg">
<g clip-path="url(#clip0_2248_1169)">
<path d="M49.5 51H12.375L49.5 12.75V51Z" fill="white"/>
<path d="M49.5001 51H86.6251L49.5001 89.25V51Z" fill="white"/>
<path d="M86.6251 12.75V51L49.5001 12.75H86.6251Z" fill="white"/>
<path d="M12.3751 89.25V51L49.5001 89.25H12.3751Z" fill="white"/>
<path d="M24.825 102.387V95.301H27.6208C28.1583 95.301 28.6162 95.4036 28.9945 95.6089C29.3728 95.8119 29.6612 96.0945 29.8595 96.4567C30.0602 96.8165 30.1606 97.2318 30.1606 97.7024C30.1606 98.1729 30.0591 98.5882 29.8561 98.948C29.6531 99.3079 29.359 99.5882 28.9737 99.7888C28.5908 99.9895 28.1271 100.09 27.5827 100.09H25.8007V98.8892H27.3405C27.6289 98.8892 27.8665 98.8396 28.0533 98.7404C28.2425 98.6389 28.3832 98.4993 28.4755 98.3217C28.57 98.1418 28.6173 97.9353 28.6173 97.7024C28.6173 97.4671 28.57 97.2618 28.4755 97.0864C28.3832 96.9088 28.2425 96.7716 28.0533 96.6747C27.8642 96.5755 27.6243 96.5259 27.3336 96.5259H26.3232V102.387H24.825ZM31.5369 102.387H29.9313L32.3777 95.301H34.3085L36.7514 102.387H35.1458L33.3708 96.9203H33.3154L31.5369 102.387ZM31.4365 99.602H35.2289V100.772H31.4365V99.602ZM37.6043 102.387V95.301H40.4002C40.9353 95.301 41.3921 95.3967 41.7704 95.5882C42.151 95.7773 42.4405 96.0461 42.6389 96.3944C42.8396 96.7404 42.9399 97.1476 42.9399 97.6158C42.9399 98.0864 42.8384 98.4913 42.6354 98.8304C42.4324 99.1672 42.1383 99.4255 41.7531 99.6055C41.3702 99.7854 40.9065 99.8754 40.3621 99.8754H38.4901V98.6712H40.1199C40.4059 98.6712 40.6435 98.632 40.8327 98.5536C41.0218 98.4751 41.1625 98.3575 41.2548 98.2006C41.3494 98.0438 41.3967 97.8488 41.3967 97.6158C41.3967 97.3806 41.3494 97.1822 41.2548 97.0207C41.1625 96.8592 41.0207 96.737 40.8292 96.6539C40.6401 96.5686 40.4013 96.5259 40.113 96.5259H39.1026V102.387H37.6043ZM41.4313 99.1626L43.1925 102.387H41.5386L39.8154 99.1626H41.4313ZM43.9987 102.387V95.301H45.497V98.4255H45.5904L48.1406 95.301H49.9364L47.3067 98.474L49.9676 102.387H48.1752L46.234 99.474L45.497 100.374V102.387H43.9987ZM52.3119 102.387L50.2842 95.301H51.9209L53.0939 100.225H53.1527L54.4468 95.301H55.8482L57.1388 100.235H57.2011L58.3741 95.301H60.0108L57.9831 102.387H56.5229L55.1734 97.7543H55.1181L53.7721 102.387H52.3119ZM62.311 95.301V102.387H60.8127V95.301H62.311ZM67.3879 97.339C67.3602 97.0599 67.2414 96.8431 67.0315 96.6885C66.8216 96.534 66.5367 96.4567 66.1769 96.4567C65.9323 96.4567 65.7259 96.4913 65.5575 96.5605C65.3891 96.6274 65.2599 96.7208 65.1699 96.8408C65.0823 96.9607 65.0385 97.0968 65.0385 97.2491C65.0338 97.3759 65.0604 97.4867 65.118 97.5812C65.178 97.6758 65.2599 97.7577 65.3637 97.8269C65.4675 97.8938 65.5875 97.9526 65.7236 98.0034C65.8597 98.0518 66.005 98.0934 66.1596 98.128L66.7962 98.2802C67.1053 98.3494 67.3891 98.4417 67.6474 98.557C67.9058 98.6724 68.1296 98.8142 68.3187 98.9826C68.5079 99.151 68.6544 99.3494 68.7582 99.5778C68.8643 99.8061 68.9185 100.068 68.9208 100.363C68.9185 100.797 68.8078 101.173 68.5886 101.491C68.3718 101.807 68.058 102.053 67.6474 102.228C67.2391 102.401 66.7466 102.488 66.1699 102.488C65.5978 102.488 65.0996 102.4 64.6751 102.225C64.253 102.05 63.9231 101.79 63.6855 101.446C63.4502 101.1 63.3268 100.672 63.3153 100.163H64.7651C64.7812 100.4 64.8493 100.599 64.9692 100.758C65.0915 100.915 65.2541 101.033 65.4571 101.114C65.6624 101.193 65.8943 101.232 66.1526 101.232C66.4064 101.232 66.6267 101.195 66.8135 101.121C67.0027 101.047 67.1492 100.945 67.253 100.813C67.3568 100.682 67.4087 100.53 67.4087 100.36C67.4087 100.201 67.3614 100.067 67.2668 99.9584C67.1745 99.85 67.0384 99.7577 66.8585 99.6816C66.6809 99.6055 66.4629 99.5363 66.2045 99.474L65.4329 99.2802C64.8355 99.1349 64.3637 98.9077 64.0177 98.5985C63.6717 98.2894 63.4998 97.8731 63.5021 97.3494C63.4998 96.9203 63.614 96.5455 63.8447 96.2248C64.0777 95.9042 64.3972 95.6539 64.8032 95.474C65.2092 95.2941 65.6705 95.2041 66.1872 95.2041C66.7132 95.2041 67.1722 95.2941 67.5644 95.474C67.9589 95.6539 68.2657 95.9042 68.4848 96.2248C68.7039 96.5455 68.817 96.9169 68.8239 97.339H67.3879ZM69.9286 102.387V95.301H74.7036V96.5363H71.4268V98.2248H74.458V99.4601H71.4268V101.152H74.7175V102.387H69.9286Z" fill="white"/>
</g>
<defs>
<clipPath id="clip0_2248_1169">
<rect width="99" height="102" fill="white"/>
</clipPath>
</defs>
</svg>
