<svg width="1618" height="1237" viewBox="0 0 1618 1237" fill="none" xmlns="http://www.w3.org/2000/svg">
<rect width="1618" height="1237" fill="#1E1E1E"/>
<path d="M-1088.5 -471.5H2470.5V1592.5H-1088.5V-471.5Z" fill="white" stroke="black"/>
<path d="M130.753 226.429H63L130.753 159V226.429Z" fill="black"/>
<path d="M130.753 226.429H198.506L130.753 293.857V226.429Z" fill="black"/>
<path d="M198.506 159V226.429L130.753 159H198.506Z" fill="black"/>
<path d="M63 293.857V226.429L130.753 293.857H63Z" fill="black"/>
<path d="M1161.2 66.3742C1193.29 91.5858 1229.5 110.483 1258.96 139.917C1304.48 185.454 1344.29 236.966 1399.58 271.973C1439.98 297.531 1473.58 335.763 1513.56 362.348C1559.24 392.605 1566.6 455.842 1568.44 530.224C1571.16 640.465 1533.84 715.879 1479.65 803.543C1432.48 879.861 1389.46 958.895 1328.48 1010.44C1276.87 1053.99 1219.35 1076.35 1154.6 1081.47C1058.54 1089.07 963.921 1113.19 869.056 1135.92C797.148 1153.21 723.641 1162.39 653.373 1136.01C607.779 1118.93 576.576 1086.21 558.18 1039.5C511.663 921.555 506.542 796.006 534.21 668.563C547.386 608.013 580.906 552.431 618.078 500.604C671.69 425.887 727.3 352.071 771.505 270.993C796.714 224.629 820.171 176.765 844.503 129.651C891.929 38.0132 950.647 14.94 1042.58 26.792C1083.62 32.0877 1120.23 50.4487 1158.08 65.1211" fill="#D1FAE5"/>
<path d="M1128.18 175.959C1186.82 230.313 1227.88 301.472 1280.87 360.917C1311.19 395.025 1343.05 428.319 1367.02 467.119C1402.89 525.04 1408.16 594.547 1383.9 662.423C1339.53 787.256 1284.34 903.841 1154.62 959.699C1056.51 1002.01 960.382 1050.33 857.694 1075.49C813.574 1086.28 769.272 1091.43 725.845 1078.53C659.774 1058.81 622.797 1007.32 605.417 941.504C577.569 836.131 591.005 729.034 640.924 628.255C679.509 550.46 734.029 482.138 786.77 413.933C834.736 352.12 886.396 293.449 935.879 232.956C957.638 206.438 982.809 184.017 1010.37 166.349C1050.54 140.569 1088.14 157.418 1124.42 174.57" fill="#A7F3D0"/>
<path d="M1183.42 182.168C1242.06 236.521 1283.12 307.68 1336.11 367.126C1366.44 401.234 1398.29 434.528 1422.27 473.327C1458.13 531.248 1463.4 600.755 1439.15 668.632C1394.77 793.465 1339.59 910.05 1209.87 965.907C1111.76 1008.21 1015.63 1056.54 912.939 1081.7C868.819 1092.49 824.517 1097.63 781.09 1084.74C715.019 1065.02 678.043 1013.53 660.662 947.712C632.814 842.34 646.25 735.242 696.169 634.463C734.754 556.669 789.274 488.347 842.015 420.142C889.981 358.328 941.642 299.658 991.125 239.165C1012.88 212.646 1038.05 190.225 1065.61 172.557C1105.79 146.778 1143.38 163.626 1179.66 180.779" stroke="black" stroke-width="2.50524" stroke-miterlimit="10" stroke-linecap="round" stroke-linejoin="round" stroke-dasharray="6.68 16.7"/>
<path d="M1181.69 119.219C1213.78 144.43 1249.99 163.327 1279.45 192.762C1324.97 238.298 1364.78 289.811 1420.06 324.818C1460.47 350.375 1494.07 388.608 1534.05 415.192C1579.72 445.45 1587.09 508.686 1588.93 583.068C1591.65 693.31 1554.32 768.724 1500.14 856.387C1452.97 932.705 1409.95 1011.74 1348.97 1063.29C1297.35 1106.83 1239.84 1129.19 1175.08 1134.31C1079.02 1141.92 984.409 1166.04 889.544 1188.77C817.636 1206.05 744.129 1215.23 673.861 1188.86C628.267 1171.78 597.064 1139.05 578.668 1092.34C532.151 974.399 527.03 848.851 554.698 721.407C567.874 660.858 601.394 605.276 638.566 553.448C692.178 478.732 747.788 404.915 791.993 323.838C817.202 277.473 840.659 229.61 864.991 182.496C912.417 90.8577 971.135 67.7846 1063.07 79.6366C1104.11 84.9322 1140.72 103.293 1178.57 117.966" stroke="black" stroke-width="2.50524" stroke-miterlimit="10" stroke-linecap="round" stroke-linejoin="round" stroke-dasharray="6.68 16.7"/>
<path d="M869.003 297.893C867.627 297.299 866.27 297.789 864.572 298.311C840.832 307.066 824.524 330.69 813 354.588C797.534 387.186 788.613 423.15 787.203 459.131C784.831 440.887 782.8 422.612 781.451 404.272C790.302 364.331 798.792 323.338 794.673 283.534C792.591 262.366 786.76 241.552 777.56 223.227C770.146 228.633 766.223 238.417 763.991 247.318C750.858 295.99 757.561 346.777 771.704 393.603C771.711 393.965 771.376 394.358 771.389 395.081C773.175 418.811 775.643 442.477 778.792 466.079C770.537 443.321 759.916 421.871 746.923 401.37C727.609 370.963 699.145 344.315 663.896 339.308C663.13 353.864 669.514 367.385 676.889 379.001C706.361 424.021 754.989 452.028 783.445 497.505C787.244 519.235 791.724 540.901 796.886 562.503C778.722 539.23 758.199 517.627 736.011 498.354C712.433 477.763 685.139 459.334 653.703 457.589C647.768 469.373 655.515 482.765 663.198 492.542C676.469 509.396 690.092 526.941 708.031 537.562C720.106 544.753 733.493 548.923 746.559 554.209C764.44 561.577 782.952 565.988 800.183 575.228C808.611 607.746 818.395 639.775 829.871 670.921C818.311 654.267 805.066 638.859 790.471 624.302C764.772 599.566 731.665 580.598 695.541 584.002C697.842 598.269 706.921 609.725 716.642 618.947C753.792 654.191 805.617 669.947 842.754 704.468C853.111 730.288 864.819 755.256 877.542 779.766C856.003 758.621 832.792 739.444 807.922 722.959C782.016 705.846 752.401 691.256 721.035 693.488C716.476 705.866 725.908 718.013 734.594 726.609C749.536 741.496 765.173 757.041 784.437 765.364C797.168 771.045 811.204 773.343 824.919 776.758C843.784 781.86 862.939 784.038 881.489 790.619C882.177 790.916 883.206 791.181 883.894 791.478C897.672 817.7 912.8 843.069 929.278 867.588C916.419 854.678 902.557 842.948 887.344 832.07C858.308 811.632 822.571 798.343 787.225 807.105C791.223 820.85 801.98 830.7 813.039 838.348C856.928 868.612 914.051 875.178 956.597 906.655C973.737 930.024 992.228 952.543 1011.38 973.912C980.661 954.719 947.612 939.004 913.283 928.117C883.757 918.588 851.215 912.24 820.672 922.36C818.858 935.566 830.965 944.564 841.651 950.437C859.931 961.026 878.892 971.55 899.764 974.291C913.794 976.228 928.107 974.879 942.44 974.615C962.238 974.56 981.643 971.645 1001.47 973.397C1005.23 973.767 1009 974.137 1012.76 974.868C1022.51 985.537 1032.6 996.173 1042.68 1006.45C1046.85 1010.76 1054.24 1003.91 1049.73 999.629C1042.08 992.021 1034.78 984.381 1027.47 976.379L1028.5 976.644C1013.95 926.235 1034.81 870.317 1037.61 816.463C1038.37 801.907 1037.77 787.118 1031.41 774.682C1030.34 772.248 1027.91 769.942 1025.53 770.89C1024.52 771.348 1023.51 772.167 1022.85 773.316C1000.82 801.824 989.863 838.342 989.81 873.833C989.64 902.817 996.962 930.733 1009.36 955.998C992.281 936.243 975.873 915.701 960.481 894.702C954.37 838.79 977.586 781.202 978.966 724.222C979.133 714.43 978.607 703.978 974.364 695.688C973.65 693.945 972.255 692.266 970.204 692.097C968.834 691.864 967.49 693.077 966.14 693.928C946.296 710.644 938.597 738.527 935.651 764.876C931.224 804.037 936.366 843.746 949.287 879.462C930.025 851.947 912.447 823.187 896.22 793.576C895.986 741.818 926.878 693.645 941.677 642.643C945.523 628.521 948.334 613.772 945.358 599.93C944.632 597.464 943.211 594.339 940.484 594.596C939.462 594.692 938.452 595.512 937.443 596.331C910.185 618.453 890.976 651.765 883.065 686.91C877.032 712.463 876.818 738.917 881.015 763.868C870.041 741.728 860.082 719.13 850.799 696.106C858.698 641.047 892.967 590.745 907.02 536.193C909.58 526.537 911.445 516.222 909.228 506.655C908.855 504.879 908.135 502.775 906.077 502.244C904.701 501.65 903.351 502.501 901.994 502.991C879.328 514.541 865.444 540.11 856.665 564.836C844.33 600.76 839.544 638.869 842.93 675.846C831.833 646.837 822.435 617.307 814.046 586.957C818.222 533.697 855.641 487.806 875.918 437.736C881.481 424.176 885.662 409.66 884.042 395.329C883.65 392.469 882.57 389.312 879.837 389.207C878.815 389.304 877.458 389.794 876.79 390.581C847.423 409.28 824.761 440.384 813.076 474.436C805.937 495.386 802.226 517.099 802.276 539.183C798.567 522.514 795.192 505.451 792.505 488.685C805.851 432.751 846.331 386.209 866.531 331.801C870.12 322.411 873.014 312.361 871.819 302.697C871.099 300.593 870.719 298.456 869.003 297.893Z" fill="#6EE7B7"/>
<path d="M506.964 346.595C504.05 328.966 517.65 312.934 535.519 312.934H669.225C683.388 312.934 695.47 323.183 697.78 337.157L742.713 609.024C745.626 626.653 732.026 642.685 714.158 642.685H580.452C566.289 642.685 554.206 632.436 551.897 618.462L506.964 346.595Z" fill="#10B981"/>
<path d="M742.713 609.024L740.928 609.319L742.713 609.024ZM697.78 337.157L695.995 337.452L697.78 337.157ZM535.519 314.743H669.225V311.125H535.519V314.743ZM695.995 337.452L740.928 609.319L744.497 608.729L699.564 336.862L695.995 337.452ZM714.158 640.876H580.452V644.494H714.158V640.876ZM553.682 618.167L508.749 346.301L505.18 346.89L550.112 618.757L553.682 618.167ZM580.452 640.876C567.174 640.876 555.847 631.268 553.682 618.167L550.112 618.757C552.566 633.604 565.404 644.494 580.452 644.494V640.876ZM740.928 609.319C743.66 625.846 730.91 640.876 714.158 640.876V644.494C733.143 644.494 747.593 627.46 744.497 608.729L740.928 609.319ZM669.225 314.743C682.503 314.743 693.83 324.352 695.995 337.452L699.564 336.862C697.111 322.015 684.273 311.125 669.225 311.125V314.743ZM535.519 311.125C516.534 311.125 502.084 328.159 505.18 346.89L508.749 346.301C506.017 329.773 518.767 314.743 535.519 314.743V311.125Z" fill="black"/>
<path d="M622.686 338.864L631.374 338.864" stroke="black" stroke-width="3.61779" stroke-linejoin="round"/>
<path d="M563.803 338.864H608.849" stroke="black" stroke-width="3.61779" stroke-linejoin="round"/>
<path d="M528.411 363.692H720.787L759.728 599.123H567.352L528.411 363.692Z" fill="white" stroke="black" stroke-width="3.61779"/>
<path d="M660.951 397.663L559.767 397.663L557.603 385.579L658.537 385.579L660.951 397.663Z" fill="#10B981"/>
<path d="M705.016 424.598L603.832 424.597L601.668 412.514L702.602 412.514L705.016 424.598Z" fill="#10B981"/>
<path d="M660.951 397.663L559.767 397.663L557.603 385.579L658.537 385.579L660.951 397.663Z" stroke="black" stroke-width="3.61779"/>
<path d="M705.016 424.598L603.832 424.597L601.668 412.514L702.602 412.514L705.016 424.598Z" stroke="black" stroke-width="3.61779"/>
<path d="M728.887 576.034L627.703 576.034L625.54 563.951L726.474 563.951L728.887 576.034Z" fill="#10B981" stroke="black" stroke-width="3.61779"/>
<path fill-rule="evenodd" clip-rule="evenodd" d="M704.597 744.533C704.598 744.534 704.6 744.533 704.6 744.531C707.234 735.059 706.904 725.044 703.651 715.754C702.565 712.654 701.171 709.681 699.496 706.874C699.49 706.864 699.494 706.852 699.503 706.847V706.847C699.513 706.841 699.517 706.829 699.511 706.819C694.43 698.336 686.863 691.499 677.765 687.171C675.214 685.957 672.574 684.956 669.874 684.172C666.178 683.094 662.349 682.417 658.457 682.167C648.34 681.517 638.251 683.781 629.463 688.671C629.453 688.677 629.449 688.69 629.455 688.7V688.7C629.461 688.71 629.458 688.723 629.447 688.729C626.544 690.35 623.799 692.251 621.255 694.411C613.633 700.885 608.168 709.398 605.55 718.874C605.55 718.876 605.551 718.878 605.552 718.878V718.878C605.554 718.878 605.555 718.88 605.555 718.882L590.578 772.917C589.065 778.377 592.285 783.955 597.769 785.376V785.376C603.254 786.796 608.927 783.522 610.44 778.062L625.416 724.029C625.419 724.017 625.432 724.01 625.444 724.013V724.013C625.456 724.016 625.469 724.009 625.472 723.997C627.04 718.337 630.307 713.252 634.861 709.384C639.421 705.511 645.066 703.033 651.083 702.262C655.411 701.707 659.792 702.054 663.937 703.257C667.471 704.29 670.802 705.937 673.759 708.134C678.571 711.71 682.178 716.586 684.124 722.144C686.068 727.694 686.267 733.677 684.698 739.337C684.694 739.349 684.702 739.362 684.714 739.365V739.365C684.726 739.368 684.734 739.381 684.73 739.393L669.755 793.425C668.242 798.884 671.461 804.462 676.946 805.883V805.883C682.431 807.304 688.104 804.03 689.617 798.57L704.593 744.535C704.593 744.534 704.595 744.533 704.597 744.533V744.533Z" fill="#10B981"/>
<path d="M703.651 715.754L705.368 715.141L705.368 715.141L703.651 715.754ZM677.765 687.171L678.57 685.545L678.57 685.545L677.765 687.171ZM669.874 684.172L669.338 685.9L669.34 685.901L669.874 684.172ZM658.457 682.167L658.6 680.37L658.457 682.167ZM621.255 694.411L620.085 693.051L621.255 694.411ZM634.861 709.384L636.031 710.745L636.031 710.745L634.861 709.384ZM651.083 702.262L650.876 700.476L650.876 700.476L651.083 702.262ZM663.937 703.257L664.474 701.529L664.471 701.528L663.937 703.257ZM673.759 708.134L674.862 706.687L674.862 706.687L673.759 708.134ZM684.124 722.144L682.407 722.757L682.407 722.757L684.124 722.144ZM684.73 739.393L682.979 738.939L684.73 739.393ZM684.698 739.337L682.947 738.883L684.698 739.337ZM625.472 723.997L627.223 724.45L625.472 723.997ZM605.555 718.882L603.803 718.428L605.555 718.882ZM605.55 718.874L603.799 718.422L605.55 718.874ZM629.447 688.729L628.573 687.162L629.447 688.729ZM625.416 724.029L627.167 724.483L625.416 724.029ZM699.511 706.819L701.076 705.883L699.511 706.819ZM629.463 688.671L628.592 687.103L629.463 688.671ZM704.593 744.535L702.842 744.082L704.593 744.535ZM699.496 706.874L701.063 705.94L699.496 706.874ZM689.617 798.57L687.866 798.116L689.617 798.57ZM704.6 744.531L702.849 744.076L704.6 744.531ZM701.934 716.367C705.068 725.318 705.384 734.96 702.849 744.076L706.351 744.986C709.084 735.158 708.739 724.771 705.368 715.141L701.934 716.367ZM697.929 707.808C699.544 710.514 700.888 713.38 701.934 716.367L705.368 715.141C704.243 711.928 702.798 708.848 701.063 705.94L697.929 707.808ZM701.076 705.883C695.814 697.096 687.98 690.021 678.57 685.545L676.96 688.797C685.746 692.976 693.047 699.576 697.946 707.756L701.076 705.883ZM678.57 685.545C675.931 684.289 673.201 683.253 670.408 682.443L669.34 685.901C671.947 686.658 674.496 687.625 676.96 688.797L678.57 685.545ZM658.313 683.964C662.071 684.206 665.769 684.859 669.338 685.9L670.41 682.443C666.587 681.328 662.626 680.628 658.6 680.37L658.313 683.964ZM630.335 690.239C638.807 685.523 648.543 683.337 658.313 683.964L658.6 680.37C648.136 679.698 637.694 682.038 628.592 687.103L630.335 690.239ZM628.573 687.162C625.566 688.842 622.722 690.812 620.085 693.051L622.425 695.772C624.876 693.691 627.522 691.859 630.321 690.295L628.573 687.162ZM620.085 693.051C612.185 699.761 606.515 708.589 603.799 718.422L607.302 719.326C609.821 710.206 615.082 702.009 622.425 695.772L620.085 693.051ZM603.803 718.428L588.827 772.463L592.33 773.37L607.306 719.336L603.803 718.428ZM612.192 778.516L627.167 724.483L623.665 723.576L608.689 777.608L612.192 778.516ZM627.223 724.45C628.693 719.146 631.755 714.376 636.031 710.745L633.691 708.023C628.859 712.127 625.388 717.527 623.721 723.543L627.223 724.45ZM636.031 710.745C640.313 707.108 645.622 704.775 651.29 704.048L650.876 700.476C644.51 701.291 638.529 703.915 633.691 708.023L636.031 710.745ZM651.29 704.048C655.367 703.526 659.496 703.853 663.403 704.987L664.471 701.528C660.088 700.256 655.455 699.889 650.876 700.476L651.29 704.048ZM674.862 706.687C671.733 704.362 668.21 702.621 664.474 701.529L663.4 704.986C666.732 705.959 669.87 707.511 672.656 709.581L674.862 706.687ZM685.841 721.531C683.777 715.634 679.953 710.471 674.862 706.687L672.656 709.581C677.189 712.95 680.58 717.537 682.407 722.757L685.841 721.531ZM686.449 739.791C688.117 733.775 687.903 727.421 685.841 721.531L682.407 722.757C684.232 727.968 684.417 733.579 682.947 738.883L686.449 739.791ZM671.506 793.878L686.481 739.847L682.979 738.939L668.004 792.971L671.506 793.878ZM702.842 744.082L687.866 798.116L691.368 799.023L706.344 744.989L702.842 744.082ZM668.004 792.971C666.224 799.394 670.011 805.955 676.463 807.626L677.429 804.14C672.912 802.97 670.26 798.375 671.506 793.878L668.004 792.971ZM684.229 741.108C683.275 740.86 682.716 739.889 682.979 738.939L686.481 739.847C686.751 738.873 686.178 737.877 685.199 737.622L684.229 741.108ZM682.947 738.883C682.677 739.855 683.248 740.853 684.229 741.108L685.199 737.622C686.155 737.871 686.712 738.843 686.449 739.791L682.947 738.883ZM624.962 725.757C625.944 726.01 626.954 725.422 627.223 724.45L623.721 723.543C623.984 722.596 624.969 722.022 625.926 722.27L624.962 725.757ZM605.07 720.621C604.104 720.372 603.537 719.39 603.803 718.428L607.306 719.336C607.573 718.371 607.004 717.385 606.034 717.135L605.07 720.621ZM603.799 718.422C603.532 719.386 604.101 720.371 605.07 720.621L606.034 717.135C607 717.384 607.567 718.366 607.302 719.326L603.799 718.422ZM627.888 689.633C627.376 688.775 627.687 687.657 628.573 687.162L630.321 690.295C631.228 689.788 631.546 688.645 631.023 687.767L627.888 689.633ZM627.167 724.483C626.904 725.433 625.917 726.003 624.962 725.757L625.926 722.27C624.947 722.017 623.935 722.601 623.665 723.576L627.167 724.483ZM700.378 708.412C701.286 707.904 701.601 706.759 701.076 705.883L697.946 707.756C697.432 706.898 697.74 705.778 698.629 705.281L700.378 708.412ZM628.592 687.103C627.683 687.609 627.364 688.754 627.888 689.633L631.023 687.767C631.535 688.626 631.223 689.744 630.335 690.239L628.592 687.103ZM597.286 787.119C603.738 788.79 610.411 784.938 612.192 778.516L608.689 777.608C607.443 782.106 602.77 784.803 598.253 783.632L597.286 787.119ZM706.344 744.989C706.078 745.951 705.078 746.527 704.112 746.276L705.081 742.79C704.112 742.539 703.109 743.117 702.842 744.082L706.344 744.989ZM701.063 705.94C701.575 706.797 701.266 707.916 700.378 708.412L698.629 705.281C697.722 705.788 697.406 706.931 697.929 707.808L701.063 705.94ZM588.827 772.463C587.047 778.886 590.834 785.447 597.286 787.119L598.253 783.632C593.735 782.462 591.083 777.868 592.33 773.37L588.827 772.463ZM676.463 807.626C682.915 809.298 689.588 805.446 691.368 799.023L687.866 798.116C686.619 802.613 681.947 805.31 677.429 804.14L676.463 807.626ZM702.849 744.076C703.116 743.117 704.114 742.539 705.081 742.79L704.112 746.276C705.082 746.528 706.083 745.949 706.351 744.986L702.849 744.076Z" fill="black"/>
<path d="M552.509 825.42C547.297 844.019 558.218 863.064 576.901 867.958L651.93 887.61C670.613 892.504 689.984 881.393 695.197 862.795L707.534 818.769C712.746 800.17 701.826 781.126 683.143 776.232L608.114 756.58C589.43 751.686 570.059 762.796 564.847 781.395L552.509 825.42Z" fill="white" stroke="black" stroke-width="3.61779"/>
<mask id="path-22-inside-1_0_1" fill="white">
<path fill-rule="evenodd" clip-rule="evenodd" d="M616.332 831.495C617.441 829.182 616.885 826.492 615.499 824.368C612.66 820.014 611.634 814.572 613.121 809.209C615.949 799.004 626.799 792.948 637.354 795.683C647.909 798.417 654.173 808.906 651.345 819.111C649.858 824.474 646.156 828.691 641.446 831.089C639.147 832.259 637.275 834.319 637.039 836.858L636.312 844.707C635.966 848.436 632.308 850.997 628.672 850.055L616.754 846.967C613.118 846.025 611.274 842.039 612.903 838.643L616.332 831.495Z"/>
</mask>
<path fill-rule="evenodd" clip-rule="evenodd" d="M616.332 831.495C617.441 829.182 616.885 826.492 615.499 824.368C612.66 820.014 611.634 814.572 613.121 809.209C615.949 799.004 626.799 792.948 637.354 795.683C647.909 798.417 654.173 808.906 651.345 819.111C649.858 824.474 646.156 828.691 641.446 831.089C639.147 832.259 637.275 834.319 637.039 836.858L636.312 844.707C635.966 848.436 632.308 850.997 628.672 850.055L616.754 846.967C613.118 846.025 611.274 842.039 612.903 838.643L616.332 831.495Z" fill="black"/>
<path d="M628.672 850.055L629.638 846.568L628.672 850.055ZM641.446 831.089L643.067 834.288L641.446 831.089ZM637.039 836.858L640.657 837.136L637.039 836.858ZM615.499 824.368L618.558 822.38L615.499 824.368ZM616.332 831.495L613.055 829.987L616.332 831.495ZM616.623 810.116C615.427 814.431 616.241 818.828 618.558 822.38L612.44 826.355C609.078 821.201 607.842 814.713 609.619 808.302L616.623 810.116ZM636.388 799.169C627.669 796.911 618.891 801.932 616.623 810.116L609.619 808.302C613.007 796.076 625.928 788.986 638.32 792.196L636.388 799.169ZM647.842 818.203C650.111 810.02 645.106 801.428 636.388 799.169L638.32 792.196C650.712 795.407 658.235 807.792 654.847 820.018L647.842 818.203ZM639.824 827.889C643.668 825.932 646.647 822.518 647.842 818.203L654.847 820.018C653.07 826.429 648.644 831.45 643.067 834.288L639.824 827.889ZM632.694 844.429L633.422 836.581L640.657 837.136L639.93 844.984L632.694 844.429ZM617.72 843.481L629.638 846.568L627.706 853.541L615.787 850.454L617.72 843.481ZM619.608 833.003L616.18 840.151L609.626 837.134L613.055 829.987L619.608 833.003ZM639.93 844.984C639.377 850.951 633.523 855.048 627.706 853.541L629.638 846.568C631.093 846.945 632.556 845.921 632.694 844.429L639.93 844.984ZM643.067 834.288C641.484 835.094 640.741 836.235 640.657 837.136L633.422 836.581C633.809 832.403 636.81 829.423 639.824 827.889L643.067 834.288ZM615.787 850.454C609.97 848.947 607.02 842.569 609.626 837.134L616.18 840.151C615.528 841.51 616.265 843.104 617.72 843.481L615.787 850.454ZM618.558 822.38C620.376 825.166 621.434 829.198 619.608 833.003L613.055 829.987C613.449 829.165 613.395 827.819 612.44 826.355L618.558 822.38Z" fill="black" mask="url(#path-22-inside-1_0_1)"/>
<path d="M764.754 516.676L607.193 516.676C593.673 516.676 582.118 506.94 579.825 493.617C576.904 476.646 589.973 461.136 607.193 461.136L764.754 461.136C778.211 461.136 789.732 470.784 792.094 484.032C795.128 501.051 782.042 516.676 764.754 516.676Z" fill="black" stroke="black" stroke-width="3.21853"/>
<path d="M618.662 492.561L613.589 496.06L611.692 492.901L618.506 490.418L622.655 488.906L618.506 487.394L611.692 484.912L613.589 481.753L618.662 485.251L621.535 487.233L621.176 483.761L620.603 478.219L624.734 478.219L624.241 483.784L623.939 487.195L626.757 485.251L631.813 481.765L633.647 484.91L626.908 487.397L622.817 488.906L626.908 490.416L633.647 492.903L631.813 496.047L626.757 492.561L623.939 490.618L624.241 494.028L624.734 499.594L620.603 499.594L621.176 494.052L621.535 490.58L618.662 492.561Z" fill="white" stroke="white" stroke-width="3.21853"/>
<path d="M660.856 492.561L655.782 496.06L653.886 492.901L660.699 490.418L664.848 488.906L660.699 487.394L653.886 484.912L655.782 481.753L660.856 485.251L663.729 487.233L663.37 483.761L662.797 478.219L666.928 478.219L666.434 483.784L666.132 487.195L668.951 485.251L674.006 481.765L675.84 484.91L669.101 487.397L665.01 488.906L669.101 490.416L675.84 492.903L674.006 496.047L668.951 492.561L666.132 490.618L666.434 494.028L666.928 499.594L662.797 499.594L663.37 494.052L663.729 490.58L660.856 492.561Z" fill="white" stroke="white" stroke-width="3.21853"/>
<path d="M703.049 492.561L697.976 496.06L696.08 492.901L702.893 490.418L707.042 488.906L702.893 487.394L696.08 484.912L697.976 481.753L703.049 485.251L705.923 487.233L705.564 483.761L704.991 478.219L709.121 478.219L708.628 483.784L708.326 487.195L711.145 485.251L716.2 481.765L718.034 484.91L711.295 487.397L707.204 488.906L711.295 490.416L718.034 492.903L716.2 496.047L711.145 492.561L708.326 490.618L708.628 494.028L709.121 499.594L704.991 499.594L705.564 494.052L705.922 490.58L703.049 492.561Z" fill="white" stroke="white" stroke-width="3.21853"/>
<path d="M745.244 492.561L740.17 496.06L738.274 492.901L745.087 490.418L749.237 488.906L745.087 487.394L738.274 484.912L740.17 481.753L745.244 485.251L748.117 487.233L747.758 483.761L747.185 478.219L751.316 478.219L750.823 483.784L750.52 487.195L753.339 485.251L758.394 481.765L760.228 484.91L753.49 487.397L749.398 488.906L753.49 490.416L760.228 492.903L758.394 496.047L753.339 492.561L750.52 490.618L750.823 494.028L751.316 499.594L747.185 499.594L747.758 494.052L748.117 490.58L745.244 492.561Z" fill="white" stroke="white" stroke-width="3.21853"/>
<path d="M992.161 253.563H852.169C849.928 253.563 847.729 254.175 845.811 255.332C835.141 261.772 839.706 278.171 852.169 278.171H951.387C978.408 278.171 1000.31 299.356 1000.31 325.488C1000.31 333.697 998.151 341.419 994.347 348.148C1020.35 347.043 1041.09 326.302 1041.09 300.879C1041.09 274.747 1019.18 253.563 992.161 253.563Z" fill="#10B981"/>
<path d="M992.161 348.195C1019.18 348.195 1041.09 327.011 1041.09 300.879C1041.09 274.747 1019.18 253.563 992.161 253.563H852.169C849.928 253.563 847.729 254.175 845.811 255.332V255.332C835.141 261.772 839.706 278.171 852.169 278.171H951.387C978.408 278.171 1000.31 299.356 1000.31 325.488C1000.31 351.62 978.408 372.804 951.387 372.804" stroke="black" stroke-width="3" stroke-linejoin="bevel"/>
<path d="M821.557 226.157H902.78L916.12 307.01H834.897L821.557 226.157Z" fill="black" stroke="black" stroke-width="3"/>
<path d="M814.869 236.75H859.389L868.839 296.826H824.781L814.869 236.75Z" fill="white" stroke="black" stroke-width="3"/>
<path d="M1135.45 412.921H1336.85C1340.07 412.921 1343.24 413.801 1346 415.467C1361.35 424.731 1354.78 448.324 1336.85 448.324H1194.11C1155.24 448.324 1123.72 478.801 1123.72 516.396C1123.72 528.207 1126.83 539.315 1132.31 548.997C1094.89 547.406 1065.06 517.568 1065.06 480.992C1065.06 443.397 1096.58 412.921 1135.45 412.921Z" fill="#10B981"/>
<path d="M1135.45 549.064C1096.58 549.064 1065.06 518.587 1065.06 480.992C1065.06 443.397 1096.58 412.921 1135.45 412.921H1336.85C1340.07 412.921 1343.24 413.801 1346 415.467V415.467C1361.35 424.731 1354.78 448.324 1336.85 448.324H1194.11C1155.24 448.324 1123.72 478.801 1123.72 516.396C1123.72 553.991 1155.24 584.467 1194.11 584.467" stroke="black" stroke-width="3" stroke-linejoin="bevel"/>
<path d="M1292.27 381.369H1393.02L1409.56 481.657H1308.82L1292.27 381.369Z" fill="black" stroke="black" stroke-width="3"/>
<path d="M1304.51 368.738H1378.83L1394.61 469.027H1321.06L1304.51 368.738Z" fill="white" stroke="black" stroke-width="3"/>
<path d="M1344.3 391.523H1438.48L1441.41 409.033H1347.22L1344.3 391.523Z" fill="#10B981" stroke="black" stroke-width="3"/>
<path d="M1350.52 428.732H1444.71L1447.64 446.242H1353.45L1350.52 428.732Z" fill="#10B981" stroke="black" stroke-width="3"/>
<path d="M873.97 497.447H1013.54C1015.78 497.447 1017.97 498.057 1019.88 499.211C1030.52 505.632 1025.97 521.982 1013.54 521.982H914.623C887.683 521.982 865.843 543.103 865.843 569.157C865.843 577.342 867.999 585.04 871.791 591.75C872.513 591.78 873.24 591.796 873.97 591.796H1079.11H1284.25C1302.72 591.796 1318.8 601.731 1327.08 616.378C1353.01 617.48 1373.68 638.158 1373.68 663.506C1373.68 689.56 1351.84 710.681 1324.9 710.681H935.508C933.274 710.681 931.082 710.071 929.169 708.916C918.531 702.496 923.083 686.145 935.508 686.145H1284.24C1311.19 686.145 1333.02 665.025 1333.02 638.971C1333.02 630.786 1330.87 623.087 1327.08 616.378C1326.35 616.347 1325.63 616.331 1324.9 616.331H914.623C896.146 616.331 880.069 606.397 871.791 591.75C845.862 590.647 825.19 569.969 825.19 544.621C825.19 518.567 847.03 497.447 873.97 497.447Z" fill="#10B981"/>
<path d="M873.97 497.447H1013.54C1015.78 497.447 1017.97 498.057 1019.88 499.211V499.211C1030.52 505.632 1025.97 521.982 1013.54 521.982H914.623C887.683 521.982 865.843 543.103 865.843 569.157C865.843 595.211 887.683 616.331 914.623 616.331H1324.9C1351.84 616.331 1373.68 637.452 1373.68 663.506C1373.68 689.56 1351.84 710.681 1324.9 710.681H935.508C933.274 710.681 931.082 710.071 929.169 708.916V708.916C918.531 702.496 923.083 686.145 935.508 686.145H1284.24C1311.19 686.145 1333.02 665.025 1333.02 638.971C1333.02 612.917 1311.19 591.796 1284.25 591.796H1079.11H873.97C847.03 591.796 825.19 570.675 825.19 544.621C825.19 518.567 847.03 497.447 873.97 497.447Z" stroke="black" stroke-width="3" stroke-linejoin="bevel"/>
<ellipse cx="190.161" cy="188.146" rx="190.161" ry="188.146" transform="matrix(0.980597 0.196554 -0.222529 0.975041 931.187 260.638)" fill="white"/>
<path d="M1261.38 517.055C1237.98 618.492 1135.91 684.259 1033.41 663.936C930.9 643.614 866.788 544.901 890.194 443.464C913.6 342.027 1015.66 276.26 1118.17 296.582C1220.68 316.905 1284.79 415.618 1261.38 517.055Z" stroke="black" stroke-width="3"/>
<path d="M1261.38 517.055C1237.98 618.492 1135.91 684.259 1033.41 663.936C930.9 643.614 866.788 544.901 890.194 443.464C913.6 342.027 1015.66 276.26 1118.17 296.582C1220.68 316.905 1284.79 415.618 1261.38 517.055Z" stroke="black" stroke-width="3"/>
<path d="M1261.38 517.055C1237.98 618.492 1135.91 684.259 1033.41 663.936C930.9 643.614 866.788 544.901 890.194 443.464C913.6 342.027 1015.66 276.26 1118.17 296.582C1220.68 316.905 1284.79 415.618 1261.38 517.055Z" stroke="black" stroke-width="3"/>
<path d="M1173.26 499.635C1161.6 550.327 1140.02 593.954 1114.63 623.516C1089.19 653.134 1060.23 668.333 1033.72 663.063C1007.2 657.792 987.463 632.913 977.288 596.216C967.133 559.589 966.641 511.574 978.308 460.882C989.974 410.19 1011.56 366.564 1036.94 337.001C1062.38 307.383 1091.34 292.184 1117.86 297.455C1144.37 302.726 1164.11 327.605 1174.28 364.301C1184.44 400.929 1184.93 448.943 1173.26 499.635Z" stroke="black" stroke-width="3"/>
<path d="M889.061 441.635L1262.89 518.961" stroke="black" stroke-width="3" stroke-linejoin="bevel"/>
<path d="M1115.95 299.532L1036 661.063" stroke="black" stroke-width="3" stroke-linejoin="bevel"/>
<path d="M1237.59 379.549V379.549C1147.23 436.552 1029.28 413.102 971.904 326.728V326.728" stroke="black" stroke-width="3" stroke-linejoin="bevel"/>
<path d="M890.194 443.463C913.6 342.026 1015.67 276.259 1118.17 296.581C1220.68 316.904 1284.79 415.617 1261.38 517.054C1237.98 618.491 1135.91 684.258 1033.41 663.936C930.901 643.613 866.788 544.9 890.194 443.463Z" stroke="black" stroke-width="3"/>
<path d="M1261.6 517.248C1238.32 618.574 1136.26 684.171 1033.62 663.741C930.993 643.311 866.69 544.596 889.975 443.27C913.26 341.944 1015.32 276.347 1117.95 296.777C1220.59 317.208 1284.89 415.923 1261.6 517.248Z" stroke="black" stroke-width="3"/>
<path d="M1261.6 517.248C1238.32 618.574 1136.26 684.171 1033.62 663.741C930.993 643.311 866.69 544.596 889.975 443.27C913.26 341.944 1015.32 276.347 1117.95 296.777C1220.59 317.208 1284.89 415.923 1261.6 517.248Z" stroke="black" stroke-width="3"/>
<path d="M1261.6 517.248C1238.32 618.574 1136.26 684.171 1033.62 663.741C930.993 643.311 866.69 544.596 889.975 443.27C913.26 341.944 1015.32 276.347 1117.95 296.777C1220.59 317.208 1284.89 415.923 1261.6 517.248Z" stroke="black" stroke-width="3"/>
<path d="M1173.45 499.746C1161.84 550.407 1140.28 593.992 1114.89 623.514C1089.46 653.09 1060.47 668.252 1033.9 662.95C1007.33 657.649 987.528 632.752 977.287 596.057C967.065 559.43 966.506 511.432 978.121 460.771C989.735 410.111 1011.29 366.525 1036.68 337.004C1062.11 307.427 1091.1 292.266 1117.67 297.567C1144.24 302.869 1164.04 327.766 1174.28 364.461C1184.51 401.087 1185.07 449.086 1173.45 499.746Z" stroke="black" stroke-width="3"/>
<path d="M889.061 441.635L1262.89 518.961" stroke="black" stroke-width="3" stroke-linejoin="bevel"/>
<path d="M1115.96 299.534L1036 661.065" stroke="black" stroke-width="3" stroke-linejoin="bevel"/>
<path d="M1237.6 379.788V379.788C1147.21 436.639 1029.3 413.108 971.739 326.731V326.731" stroke="black" stroke-width="3" stroke-linejoin="bevel"/>
<path d="M889.975 443.271C913.261 341.945 1015.32 276.348 1117.95 296.778C1220.59 317.208 1284.89 415.924 1261.6 517.249C1238.32 618.575 1136.26 684.172 1033.62 663.742C930.993 643.312 866.69 544.596 889.975 443.271Z" stroke="black" stroke-width="3"/>
<path d="M913.985 580.732V580.732C1004.37 523.882 1122.28 547.413 1179.84 633.79V633.79" stroke="black" stroke-width="3" stroke-linejoin="bevel"/>
<path d="M977.636 459.848L1075.98 479.791L1059.37 553.407V553.407C1030.21 547.493 999.862 548.084 970.687 555.095V555.095L970.563 553.38C968.315 522.118 970.697 490.608 977.636 459.848V459.848Z" fill="#10B981"/>
<path d="M977.636 459.848L1075.98 479.791L1059.37 553.407V553.407C1030.21 547.493 999.862 548.084 970.687 555.095V555.095L970.563 553.38C968.315 522.118 970.697 490.608 977.636 459.848V459.848Z" stroke="black" stroke-width="3"/>
<path d="M873.971 497.445H1013.55C1015.78 497.445 1017.97 498.055 1019.88 499.21C1030.52 505.63 1025.97 521.98 1013.55 521.98H914.624C887.684 521.98 865.844 543.101 865.844 569.155C865.844 577.34 868 585.039 871.792 591.748C845.863 590.646 825.191 569.967 825.191 544.62C825.191 518.566 847.031 497.445 873.971 497.445Z" fill="#10B981"/>
<path d="M873.971 591.794C847.031 591.794 825.191 570.674 825.191 544.62C825.191 518.566 847.031 497.445 873.971 497.445H1013.55C1015.78 497.445 1017.97 498.055 1019.88 499.21V499.21C1030.52 505.63 1025.97 521.98 1013.55 521.98H914.624C887.684 521.98 865.844 543.101 865.844 569.155C865.844 595.209 887.684 616.33 914.624 616.33" stroke="black" stroke-width="3" stroke-linejoin="bevel"/>
<mask id="path-62-inside-2_0_1" fill="white">
<path fill-rule="evenodd" clip-rule="evenodd" d="M953.213 265.048C967.235 214.564 1015.01 177.391 1071.78 177.391C1128.55 177.391 1176.33 214.564 1190.35 265.048C1176.33 315.532 1128.55 352.706 1071.78 352.706C1015.01 352.706 967.235 315.532 953.213 265.048Z"/>
</mask>
<path fill-rule="evenodd" clip-rule="evenodd" d="M953.213 265.048C967.235 214.564 1015.01 177.391 1071.78 177.391C1128.55 177.391 1176.33 214.564 1190.35 265.048C1176.33 315.532 1128.55 352.706 1071.78 352.706C1015.01 352.706 967.235 315.532 953.213 265.048Z" fill="white"/>
<path d="M953.213 265.048L950.322 264.245L950.099 265.048L950.322 265.851L953.213 265.048ZM1190.35 265.048L1193.24 265.851L1193.46 265.048L1193.24 264.245L1190.35 265.048ZM956.103 265.851C969.757 216.695 1016.32 180.391 1071.78 180.391V174.391C1013.69 174.391 964.713 212.433 950.322 264.245L956.103 265.851ZM1071.78 180.391C1127.24 180.391 1173.8 216.695 1187.46 265.851L1193.24 264.245C1178.85 212.433 1129.87 174.391 1071.78 174.391V180.391ZM1187.46 264.245C1173.8 313.401 1127.24 349.706 1071.78 349.706V355.706C1129.87 355.706 1178.85 317.663 1193.24 265.851L1187.46 264.245ZM1071.78 349.706C1016.32 349.706 969.757 313.401 956.103 264.245L950.322 265.851C964.713 317.663 1013.69 355.706 1071.78 355.706V349.706Z" fill="black" mask="url(#path-62-inside-2_0_1)"/>
<path d="M1127.86 265.048C1127.86 294.835 1102.8 319.074 1071.78 319.074C1040.76 319.074 1015.7 294.835 1015.7 265.048C1015.7 235.261 1040.76 211.021 1071.78 211.021C1102.8 211.021 1127.86 235.261 1127.86 265.048Z" fill="#10B981" stroke="black" stroke-width="3"/>
<path d="M1104.01 265.048C1104.01 282.13 1089.63 296.07 1071.78 296.07C1053.93 296.07 1039.56 282.13 1039.56 265.048C1039.56 247.965 1053.93 234.025 1071.78 234.025C1089.63 234.025 1104.01 247.965 1104.01 265.048Z" fill="black" stroke="black" stroke-width="3"/>
<path d="M794.337 878.039L808.505 872.237C812.594 870.563 814.471 865.925 812.698 861.878L803.398 840.651" stroke="black" stroke-width="3" stroke-linejoin="bevel"/>
<path d="M800.804 892.798L834.322 879.073" stroke="black" stroke-width="3" stroke-linejoin="bevel"/>
<path d="M807.268 907.556L821.436 901.754C825.525 900.08 830.276 902.004 832.049 906.051L841.349 927.278" stroke="black" stroke-width="3" stroke-linejoin="bevel"/>
<path d="M741.824 899.541L727.657 905.343C723.568 907.017 718.816 905.093 717.043 901.046L707.743 879.819" stroke="black" stroke-width="3" stroke-linejoin="bevel"/>
<path d="M748.29 914.3L714.772 928.025" stroke="black" stroke-width="3" stroke-linejoin="bevel"/>
<path d="M754.754 929.058L740.587 934.86C736.498 936.534 734.62 941.172 736.393 945.219L745.693 966.446" stroke="black" stroke-width="3" stroke-linejoin="bevel"/>
<path d="M742.929 888.875L785.645 871.384L781.503 861.929C776.388 850.254 762.679 844.705 750.884 849.535V849.535C739.088 854.365 733.672 867.745 738.787 879.42L742.929 888.875Z" fill="black"/>
<path d="M743.716 886.933L783.655 870.579L780.114 862.497C775.332 851.581 762.515 846.393 751.486 850.909C740.457 855.425 735.393 867.935 740.175 878.851L743.716 886.933Z" stroke="black" stroke-width="3"/>
<path d="M735.194 895.936L796.273 870.926L821.075 927.537C828.388 944.231 820.644 963.363 803.777 970.27V970.27V970.27C786.911 977.176 767.309 969.242 759.995 952.548L735.194 895.936Z" fill="#10B981"/>
<path d="M804.549 968.295L786.338 926.726L783.562 927.862L801.773 969.432C786.004 975.044 768.163 967.454 761.383 951.979L737.184 896.742L795.487 872.868L819.686 928.106C826.466 943.58 819.691 961.25 804.549 968.295Z" stroke="black" stroke-width="3"/>
<path d="M845.319 389.311L853.796 394.043C857.654 396.196 862.618 394.867 864.883 391.074L873.005 377.473" stroke="black" stroke-width="3" stroke-linejoin="bevel"/>
<path d="M839.001 399.891L863.028 413.302" stroke="black" stroke-width="3" stroke-linejoin="bevel"/>
<path d="M832.683 410.469L841.16 415.201C845.018 417.354 846.309 422.175 844.044 425.969L835.922 439.569" stroke="black" stroke-width="3" stroke-linejoin="bevel"/>
<path d="M807.676 368.3L799.199 363.569C795.341 361.415 794.05 356.594 796.315 352.801L804.437 339.201" stroke="black" stroke-width="3" stroke-linejoin="bevel"/>
<path d="M801.358 378.88L777.332 365.469" stroke="black" stroke-width="3" stroke-linejoin="bevel"/>
<path d="M795.04 389.458L786.563 384.726C782.705 382.573 777.741 383.902 775.476 387.696L767.354 401.296" stroke="black" stroke-width="3" stroke-linejoin="bevel"/>
<path d="M814.895 364.053L845.515 381.144L849.622 374.266C854.587 365.952 851.757 355.387 843.302 350.667V350.667C834.847 345.948 823.967 348.861 819.003 357.175L814.895 364.053Z" fill="black"/>
<path d="M816.974 363.496L844.974 379.125L848.312 373.535C852.852 365.932 850.265 356.271 842.533 351.955C834.801 347.639 824.852 350.304 820.312 357.906L816.974 363.496Z" stroke="black" stroke-width="3"/>
<path d="M793.721 436.616L811.325 407.138L808.705 405.676L791.101 435.153C780.741 428.485 777.474 414.944 783.891 404.2L807.441 364.764L848.604 387.741L825.054 427.176C818.638 437.92 804.874 441.955 793.721 436.616Z" fill="black" stroke="black" stroke-width="3"/>
<path d="M249.709 247.596V268H234.615V205.855H262.566C269.834 205.855 275.548 207.501 279.71 210.793C283.872 214.085 285.952 219.178 285.952 226.073C285.952 232.968 283.872 238.278 279.71 242.005C275.548 245.732 269.834 247.596 262.566 247.596H249.709ZM249.709 235.949H260.703C262.318 235.949 263.684 235.732 264.803 235.297C265.983 234.862 266.914 234.241 267.598 233.434C268.281 232.626 268.778 231.694 269.088 230.638C269.461 229.52 269.647 228.34 269.647 227.098C269.647 225.607 269.461 224.303 269.088 223.185C268.778 222.067 268.281 221.073 267.598 220.203C266.914 219.334 265.983 218.682 264.803 218.247C263.684 217.812 262.318 217.595 260.703 217.595H249.709V235.949ZM284.077 268L307.556 205.855H324.047L346.035 268H330.569L310.723 209.395L318.084 208.743L298.332 268H284.077ZM297.307 254.583L300.381 243.496H328.612L330.01 254.583H297.307ZM353.899 268V205.855H384.18C391.199 205.855 396.696 207.501 400.671 210.793C404.647 214.023 406.634 218.961 406.634 225.607C406.634 228.34 406.075 231.042 404.957 233.713C403.839 236.322 402.193 238.589 400.019 240.515C397.845 242.378 395.112 243.589 391.82 244.148L390.888 239.024L409.802 268H390.609L375.049 240.887L381.758 246.571H368.993V268H353.899ZM368.993 235.483H381.664C384.335 235.483 386.447 234.769 388 233.34C389.553 231.912 390.329 229.551 390.329 226.259C390.329 223.402 389.615 221.228 388.186 219.737C386.82 218.247 384.863 217.501 382.317 217.501H368.993V235.483ZM434.398 249.366L429.273 239.769L454.057 205.855H473.064L434.398 249.366ZM419.956 268V205.855H435.05V268H419.956ZM447.907 229.52L475.02 268H456.106L436.261 239.21L447.907 229.52ZM496.42 268L478.997 205.855H495.489L506.39 254.118H503.874L517.85 205.855H529.496L543.751 254.77H540.956L551.95 205.855H568.442L551.019 268H536.111L522.415 223.278H525.117L511.328 268H496.42ZM577.364 268V205.855H592.458V268H577.364ZM626.531 269.304C623.364 269.304 620.506 269.149 617.96 268.839C615.413 268.528 613.053 268.062 610.879 267.441C608.705 266.82 606.593 266.012 604.543 265.019V250.67C607.4 252.968 610.63 254.708 614.233 255.888C617.835 257.068 621.252 257.658 624.482 257.658C627.339 257.658 629.513 257.13 631.004 256.074C632.556 254.956 633.333 253.279 633.333 251.043C633.333 249.366 632.619 248.03 631.19 247.037C629.823 245.981 627.991 245.08 625.693 244.335C623.395 243.527 620.817 242.626 617.96 241.633C616.158 241.074 614.388 240.359 612.649 239.49C610.91 238.62 609.357 237.533 607.99 236.229C606.624 234.862 605.537 233.216 604.729 231.291C603.922 229.365 603.518 227.005 603.518 224.21C603.518 221.663 603.984 219.209 604.916 216.849C605.847 214.489 607.276 212.377 609.202 210.514C611.189 208.65 613.705 207.19 616.748 206.134C619.792 205.016 623.364 204.457 627.463 204.457C630.01 204.457 632.246 204.613 634.171 204.923C636.159 205.234 638.054 205.7 639.855 206.321C641.656 206.88 643.489 207.625 645.352 208.557V223.092C643.923 221.911 642.308 220.824 640.507 219.831C638.768 218.775 636.936 217.905 635.01 217.222C633.084 216.539 631.066 216.166 628.954 216.104C627.09 216.042 625.382 216.228 623.829 216.663C622.277 217.098 621.065 217.812 620.196 218.806C619.326 219.737 618.891 220.949 618.891 222.439C618.891 224.179 619.419 225.545 620.475 226.539C621.531 227.533 622.991 228.371 624.854 229.055C626.718 229.676 628.799 230.359 631.097 231.104C633.643 231.85 635.973 232.688 638.085 233.62C640.259 234.49 642.153 235.608 643.768 236.974C645.383 238.341 646.625 240.018 647.495 242.005C648.364 243.993 648.799 246.384 648.799 249.179C648.799 252.906 647.93 256.323 646.19 259.428C644.451 262.472 641.936 264.894 638.644 266.696C635.352 268.435 631.314 269.304 626.531 269.304ZM659.435 268V205.855H702.014V217.501H674.528V231.011H698.38V242.751H674.528V256.354H702.014V268H659.435Z" fill="black"/>
<path d="M70.5669 745.88L53.144 683.735H69.6352L80.5362 731.998H78.0206L91.9963 683.735H103.643L117.898 732.65H115.103L126.097 683.735H142.588L125.165 745.88H110.258L96.5616 701.158H99.2636L85.4743 745.88H70.5669ZM167.741 747.278C163.02 747.278 158.827 746.315 155.163 744.389C151.56 742.402 148.734 739.607 146.684 736.004C144.696 732.339 143.702 727.991 143.702 722.96C143.702 714.761 145.721 708.425 149.759 703.953C153.858 699.419 159.697 697.152 167.275 697.152C172.492 697.152 176.685 698.27 179.853 700.506C183.083 702.742 185.443 706.003 186.934 710.289C188.425 714.575 189.139 719.792 189.077 725.941H153.206L151.715 717.09H177.617L175.567 721.469C175.505 716.438 174.791 712.898 173.424 710.848C172.058 708.798 169.821 707.773 166.716 707.773C164.977 707.773 163.393 708.208 161.964 709.078C160.597 709.947 159.51 711.407 158.703 713.457C157.958 715.444 157.585 718.208 157.585 721.749C157.585 726.221 158.641 729.668 160.753 732.091C162.927 734.513 166.374 735.724 171.095 735.724C172.834 735.724 174.542 735.538 176.219 735.165C177.958 734.731 179.573 734.234 181.064 733.675C182.555 733.116 183.828 732.619 184.884 732.184V744.11C182.648 745.042 180.132 745.787 177.337 746.346C174.604 746.967 171.405 747.278 167.741 747.278ZM246.553 747.091C243.199 747.091 240.031 746.594 237.05 745.601C234.068 744.607 231.428 743.116 229.13 741.128C226.832 739.141 225.031 736.625 223.726 733.582C222.422 730.538 221.77 726.997 221.77 722.96C221.77 718.674 222.391 714.947 223.633 711.78C224.875 708.55 226.583 705.879 228.757 703.767C230.993 701.655 233.602 700.071 236.584 699.015C239.565 697.959 242.857 697.431 246.46 697.431C249.007 697.431 251.615 697.711 254.286 698.27C257.019 698.767 259.411 699.481 261.46 700.413V712.339C259.286 711.345 257.143 710.537 255.032 709.916C252.982 709.233 250.87 708.891 248.696 708.891C244.783 708.891 241.615 709.885 239.192 711.873C236.832 713.798 235.652 716.966 235.652 721.376C235.652 726.035 236.708 729.544 238.82 731.904C240.932 734.265 244.441 735.445 249.348 735.445C251.646 735.445 253.851 735.041 255.963 734.234C258.137 733.426 260.001 732.588 261.554 731.718V743.551C259.38 744.669 257.112 745.538 254.752 746.16C252.392 746.781 249.659 747.091 246.553 747.091ZM289.407 747.278C286.55 747.278 283.848 746.998 281.301 746.439C278.817 745.942 276.612 745.104 274.686 743.923C272.823 742.681 271.363 741.035 270.307 738.985C269.251 736.874 268.723 734.265 268.723 731.159C268.723 728.24 269.313 725.693 270.494 723.519C271.736 721.345 273.599 719.668 276.084 718.488C278.568 717.308 281.705 716.718 285.494 716.718C287.606 716.718 289.656 716.935 291.643 717.37C293.631 717.805 295.401 718.395 296.954 719.14C298.569 719.885 299.842 720.693 300.774 721.562L301.333 728.271C300.091 727.525 298.6 726.935 296.861 726.501C295.122 726.066 293.258 725.848 291.271 725.848C288.227 725.848 285.991 726.314 284.562 727.246C283.196 728.115 282.513 729.513 282.513 731.439C282.513 732.619 282.854 733.675 283.538 734.606C284.221 735.538 285.121 736.252 286.239 736.749C287.42 737.246 288.631 737.495 289.873 737.495C293.041 737.495 295.246 737.277 296.488 736.842C297.793 736.408 298.445 735.538 298.445 734.234V716.904C298.445 714.047 297.513 711.997 295.65 710.755C293.848 709.45 291.271 708.798 287.917 708.798C285.184 708.798 282.419 709.295 279.624 710.289C276.891 711.22 274.655 712.37 272.916 713.736V701.438C274.531 700.444 277.016 699.512 280.37 698.642C283.786 697.773 287.606 697.338 291.83 697.338C293.32 697.338 294.966 697.462 296.768 697.711C298.569 697.959 300.37 698.425 302.172 699.108C303.973 699.729 305.619 700.661 307.11 701.903C308.663 703.146 309.905 704.73 310.837 706.655C311.768 708.581 312.234 710.972 312.234 713.829L312.141 736.097C312.141 738.768 311.24 740.942 309.439 742.619C307.638 744.234 305.029 745.414 301.613 746.16C298.259 746.905 294.19 747.278 289.407 747.278ZM324.557 745.88V703.674C325.427 702.928 326.98 702.09 329.216 701.158C331.452 700.164 333.999 699.295 336.856 698.549C339.775 697.742 342.695 697.338 345.614 697.338C348.533 697.338 350.832 697.555 352.509 697.99C354.186 698.425 355.459 698.984 356.329 699.667V709.823C355.273 709.574 353.937 709.388 352.322 709.264C350.707 709.14 349.03 709.078 347.291 709.078C345.552 709.015 343.906 709.015 342.353 709.078C340.8 709.14 339.496 709.264 338.44 709.45V745.88H324.557ZM384.108 747.278C379.388 747.278 375.195 746.315 371.53 744.389C367.928 742.402 365.101 739.607 363.052 736.004C361.064 732.339 360.07 727.991 360.07 722.96C360.07 714.761 362.089 708.425 366.126 703.953C370.226 699.419 376.065 697.152 383.642 697.152C388.86 697.152 393.053 698.27 396.22 700.506C399.45 702.742 401.811 706.003 403.301 710.289C404.792 714.575 405.507 719.792 405.444 725.941H369.574L368.083 717.09H393.984L391.935 721.469C391.873 716.438 391.158 712.898 389.792 710.848C388.425 708.798 386.189 707.773 383.083 707.773C381.344 707.773 379.76 708.208 378.332 709.078C376.965 709.947 375.878 711.407 375.071 713.457C374.325 715.444 373.953 718.208 373.953 721.749C373.953 726.221 375.009 729.668 377.12 732.091C379.294 734.513 382.742 735.724 387.462 735.724C389.202 735.724 390.91 735.538 392.587 735.165C394.326 734.731 395.941 734.234 397.432 733.675C398.922 733.116 400.196 732.619 401.252 732.184V744.11C399.016 745.042 396.5 745.787 393.705 746.346C390.972 746.967 387.773 747.278 384.108 747.278ZM75.1323 843.278C72.2751 843.278 69.5731 842.998 67.0264 842.439C64.5419 841.942 62.3368 841.104 60.4113 839.923C58.5479 838.681 57.0882 837.035 56.0323 834.985C54.9763 832.874 54.4484 830.265 54.4484 827.159C54.4484 824.24 55.0384 821.693 56.2186 819.519C57.4609 817.345 59.3243 815.668 61.8089 814.488C64.2934 813.308 67.4302 812.718 71.2191 812.718C73.331 812.718 75.3808 812.935 77.3684 813.37C79.3561 813.805 81.1263 814.395 82.6792 815.14C84.2941 815.885 85.5675 816.693 86.4992 817.562L87.0582 824.271C85.8159 823.525 84.3252 822.935 82.586 822.501C80.8468 822.066 78.9834 821.848 76.9957 821.848C73.9521 821.848 71.716 822.314 70.2874 823.246C68.9209 824.115 68.2377 825.513 68.2377 827.439C68.2377 828.619 68.5793 829.675 69.2625 830.606C69.9458 831.538 70.8464 832.252 71.9645 832.749C73.1447 833.246 74.3559 833.495 75.5982 833.495C78.766 833.495 80.971 833.277 82.2133 832.842C83.5177 832.408 84.1699 831.538 84.1699 830.234V812.904C84.1699 810.047 83.2382 807.997 81.3748 806.755C79.5735 805.45 76.9957 804.798 73.6416 804.798C70.9086 804.798 68.1445 805.295 65.3494 806.289C62.6163 807.22 60.3802 808.37 58.6411 809.736V797.438C60.256 796.444 62.7406 795.512 66.0947 794.642C69.511 793.773 73.331 793.338 77.5548 793.338C79.0455 793.338 80.6915 793.462 82.4928 793.711C84.2941 793.959 86.0954 794.425 87.8967 795.108C89.698 795.729 91.3441 796.661 92.8348 797.903C94.3876 799.146 95.6299 800.73 96.5616 802.655C97.4933 804.581 97.9592 806.972 97.9592 809.829L97.866 832.097C97.866 834.768 96.9654 836.942 95.1641 838.619C93.3628 840.234 90.754 841.414 87.3377 842.16C83.9836 842.905 79.9151 843.278 75.1323 843.278ZM131.898 843.278C129.289 843.278 126.681 843.091 124.072 842.719C121.525 842.408 119.196 841.818 117.084 840.948C115.034 840.017 113.388 838.774 112.146 837.222C110.904 835.607 110.283 833.526 110.283 830.979V777.313H123.885V803.028L121.277 798.649C122.395 797.344 123.823 796.319 125.563 795.574C127.302 794.767 129.072 794.208 130.873 793.897C132.675 793.586 134.165 793.431 135.345 793.431C142.302 793.431 147.582 795.543 151.185 799.767C154.849 803.928 156.682 810.047 156.682 818.121C156.682 822.842 156.06 826.817 154.818 830.047C153.576 833.277 151.837 835.855 149.601 837.781C147.365 839.706 144.756 841.104 141.774 841.973C138.793 842.843 135.501 843.278 131.898 843.278ZM131.712 831.724C134.445 831.724 136.619 831.196 138.234 830.141C139.849 829.022 140.998 827.501 141.681 825.575C142.426 823.65 142.799 821.445 142.799 818.96C142.799 815.42 142.333 812.593 141.402 810.481C140.47 808.37 139.197 806.848 137.582 805.916C135.967 804.984 134.103 804.519 131.991 804.519C130.749 804.519 129.383 804.674 127.892 804.984C126.401 805.295 125.066 805.792 123.885 806.475V827.345C123.885 828.463 124.227 829.333 124.91 829.954C125.594 830.575 126.525 831.041 127.705 831.352C128.948 831.6 130.283 831.724 131.712 831.724ZM187.483 843.278C179.532 843.278 173.538 841.166 169.501 836.942C165.525 832.656 163.538 826.383 163.538 818.121C163.538 809.239 165.556 802.872 169.594 799.021C173.693 795.108 179.656 793.152 187.483 793.152C192.762 793.152 197.172 794.052 200.713 795.854C204.316 797.593 207.017 800.295 208.819 803.959C210.682 807.624 211.614 812.345 211.614 818.121C211.614 826.383 209.533 832.656 205.371 836.942C201.21 841.166 195.247 843.278 187.483 843.278ZM187.483 832.19C189.781 832.19 191.675 831.662 193.166 830.606C194.719 829.488 195.868 827.904 196.613 825.855C197.421 823.743 197.825 821.165 197.825 818.121C197.825 814.643 197.421 811.91 196.613 809.922C195.868 807.873 194.719 806.413 193.166 805.543C191.613 804.612 189.719 804.146 187.483 804.146C185.122 804.146 183.197 804.612 181.706 805.543C180.215 806.475 179.097 807.966 178.352 810.016C177.669 812.003 177.327 814.705 177.327 818.121C177.327 822.842 178.134 826.383 179.749 828.743C181.427 831.041 184.004 832.19 187.483 832.19ZM243.371 843.278C239.023 843.278 235.172 842.594 231.817 841.228C228.463 839.861 225.854 837.781 223.991 834.985C222.128 832.128 221.196 828.432 221.196 823.898V794.736H235.078V822.78C235.078 825.761 235.731 827.998 237.035 829.488C238.402 830.917 240.544 831.631 243.464 831.631C246.445 831.631 248.588 830.917 249.893 829.488C251.197 827.998 251.849 825.761 251.849 822.78V794.736H264.893V823.898C264.893 830.606 262.968 835.513 259.117 838.619C255.265 841.725 250.017 843.278 243.371 843.278ZM296.439 843.743C290.973 843.743 286.905 842.47 284.234 839.923C281.563 837.315 280.228 833.65 280.228 828.929V805.357H273.333V794.736H280.228V781.785H294.762V794.736H305.104V805.357H294.762V827.159C294.762 828.774 295.104 829.985 295.787 830.793C296.471 831.538 297.62 831.911 299.235 831.911C300.166 831.911 301.191 831.724 302.309 831.352C303.427 830.979 304.359 830.513 305.104 829.954V841.88C303.8 842.563 302.371 843.029 300.819 843.278C299.328 843.588 297.868 843.743 296.439 843.743ZM67.2128 956.142C65.6599 956.142 64.1381 955.986 62.6474 955.676C61.1567 955.365 59.8833 954.961 58.8274 954.464V943.191C59.8212 943.563 60.7529 943.812 61.6225 943.936C62.4921 944.123 63.3928 944.216 64.3245 944.216C65.8773 944.216 67.2128 943.843 68.3308 943.098C69.511 942.414 70.4738 941.203 71.2191 939.464C71.9645 937.787 72.5546 935.489 72.9894 932.569L73.2689 940.489L53.0508 890.736H68.983L79.6977 923.811H78.3001L88.9216 890.736H103.829L85.2879 938.625C83.6109 942.973 81.7785 946.421 79.7909 948.967C77.8653 951.514 75.8466 953.346 73.7347 954.464C71.6229 955.583 69.4489 956.142 67.2128 956.142ZM130.525 939.278C122.574 939.278 116.58 937.166 112.543 932.942C108.567 928.656 106.58 922.383 106.58 914.121C106.58 905.239 108.598 898.872 112.636 895.021C116.735 891.108 122.698 889.152 130.525 889.152C135.804 889.152 140.214 890.052 143.755 891.854C147.358 893.593 150.059 896.295 151.861 899.959C153.724 903.624 154.656 908.345 154.656 914.121C154.656 922.383 152.575 928.656 148.413 932.942C144.252 937.166 138.289 939.278 130.525 939.278ZM130.525 928.19C132.823 928.19 134.717 927.662 136.208 926.606C137.761 925.488 138.91 923.904 139.655 921.855C140.463 919.743 140.867 917.165 140.867 914.121C140.867 910.643 140.463 907.91 139.655 905.922C138.91 903.873 137.761 902.413 136.208 901.543C134.655 900.612 132.761 900.146 130.525 900.146C128.164 900.146 126.239 900.612 124.748 901.543C123.257 902.475 122.139 903.966 121.394 906.016C120.711 908.003 120.369 910.705 120.369 914.121C120.369 918.842 121.176 922.383 122.791 924.743C124.469 927.041 127.046 928.19 130.525 928.19ZM186.413 939.278C182.065 939.278 178.214 938.594 174.859 937.228C171.505 935.861 168.896 933.781 167.033 930.985C165.17 928.128 164.238 924.432 164.238 919.898V890.736H178.12V918.78C178.12 921.761 178.773 923.998 180.077 925.488C181.444 926.917 183.586 927.631 186.506 927.631C189.487 927.631 191.63 926.917 192.935 925.488C194.239 923.998 194.891 921.761 194.891 918.78V890.736H207.935V919.898C207.935 926.606 206.01 931.513 202.159 934.619C198.307 937.725 193.059 939.278 186.413 939.278ZM220.195 937.88V895.674C221.065 894.928 222.618 894.09 224.854 893.158C227.09 892.164 229.636 891.295 232.494 890.549C235.413 889.742 238.332 889.338 241.252 889.338C244.171 889.338 246.469 889.555 248.146 889.99C249.823 890.425 251.097 890.984 251.966 891.667V901.823C250.91 901.574 249.575 901.388 247.96 901.264C246.345 901.14 244.668 901.078 242.929 901.078C241.19 901.015 239.544 901.015 237.991 901.078C236.438 901.14 235.133 901.264 234.078 901.45V937.88H220.195ZM72.5235 1013.48V1033.88H57.4298V971.735H85.3811C92.6485 971.735 98.3629 973.381 102.525 976.673C106.686 979.965 108.767 985.058 108.767 991.953C108.767 998.848 106.686 1004.16 102.525 1007.89C98.3629 1011.61 92.6485 1013.48 85.3811 1013.48H72.5235ZM72.5235 1001.83H83.5177C85.1327 1001.83 86.4992 1001.61 87.6172 1001.18C88.7974 1000.74 89.7291 1000.12 90.4123 999.314C91.0956 998.506 91.5925 997.574 91.9031 996.519C92.2758 995.4 92.4621 994.22 92.4621 992.978C92.4621 991.487 92.2758 990.183 91.9031 989.065C91.5925 987.947 91.0956 986.953 90.4123 986.083C89.7291 985.214 88.7974 984.562 87.6172 984.127C86.4992 983.692 85.1327 983.475 83.5177 983.475H72.5235V1001.83ZM119.301 1033.88V971.735H149.582C156.601 971.735 162.098 973.381 166.073 976.673C170.048 979.903 172.036 984.841 172.036 991.487C172.036 994.22 171.477 996.922 170.359 999.593C169.241 1002.2 167.595 1004.47 165.421 1006.39C163.247 1008.26 160.514 1009.47 157.222 1010.03L156.29 1004.9L175.204 1033.88H156.011L140.451 1006.77L147.159 1012.45H134.395V1033.88H119.301ZM134.395 1001.36H147.066C149.737 1001.36 151.849 1000.65 153.402 999.22C154.955 997.792 155.731 995.432 155.731 992.139C155.731 989.282 155.017 987.108 153.588 985.618C152.222 984.127 150.265 983.381 147.718 983.381H134.395V1001.36ZM185.358 1033.88V971.735H200.452V1033.88H185.358ZM231.451 1033.88L208.251 971.735H225.674L243.283 1024.56H238.345L255.861 971.828L271.887 971.735L247.569 1033.88H231.451ZM267.666 1033.88L291.145 971.735H307.636L329.624 1033.88H314.158L294.313 975.276L301.673 974.623L281.921 1033.88H267.666ZM280.896 1020.46L283.971 1009.38H312.201L313.599 1020.46H280.896ZM362.972 1035.09C353.034 1035.09 345.425 1032.48 340.145 1027.26C334.928 1021.99 332.319 1013.85 332.319 1002.85C332.319 992.171 334.835 984.096 339.866 978.63C344.897 973.102 352.599 970.337 362.972 970.337C366.264 970.337 369.587 970.741 372.942 971.549C376.296 972.356 379.557 973.474 382.725 974.903V988.04C379.495 985.928 376.389 984.406 373.407 983.475C370.426 982.543 367.631 982.077 365.022 982.077C361.357 982.077 358.252 982.729 355.705 984.034C353.22 985.338 351.295 987.512 349.928 990.556C348.624 993.599 347.972 997.699 347.972 1002.85C347.972 1008.01 348.624 1012.08 349.928 1015.06C351.295 1018.04 353.282 1020.18 355.891 1021.49C358.562 1022.73 361.823 1023.35 365.674 1023.35C367.972 1023.35 370.581 1022.92 373.501 1022.05C376.42 1021.18 379.495 1019.69 382.725 1017.58V1030.71C380.985 1031.58 378.998 1032.36 376.762 1033.04C374.588 1033.66 372.289 1034.16 369.867 1034.53C367.507 1034.9 365.208 1035.09 362.972 1035.09ZM413.087 1033.88V1007.05L389.515 971.735H408.056L425.759 1001.46H418.771L434.889 971.735H449.89L426.038 1010.77L428.181 1002.76V1033.88H413.087Z" fill="black"/>
<rect x="50.8147" y="744.758" width="382.605" height="21.1919" fill="#6EE7B7"/>
<rect x="51.2535" y="837.12" width="320.934" height="21.1919" fill="#6EE7B7"/>
<g filter="url(#filter0_f_0_1)">
<path d="M1357.41 1000.81C1391.66 993.307 1454.22 972.052 1476.94 955.743C1503.08 938.73 1450.33 917.684 1444.09 914.554C1437.85 911.425 1130.56 778.874 1076.9 758.211C1023.24 737.547 850.636 774.128 808.611 791.812C774.355 806.226 797.997 817.595 802.433 820.681C806.869 823.766 1062.5 947.064 1154.56 985.04C1224.27 1013.8 1290.17 1015.53 1357.41 1000.81Z" fill="black" fill-opacity="0.2"/>
</g>
<path fill-rule="evenodd" clip-rule="evenodd" d="M1115.13 863.76L1149.83 851.679L1149.84 851.695C1150.06 851.614 1150.29 851.535 1150.51 851.459C1171.17 844.512 1199.93 862.105 1214.73 890.756C1229.54 919.407 1224.79 948.265 1204.13 955.212C1203.85 955.307 1203.57 955.398 1203.28 955.484L1169.82 967.153L1152.29 934.008C1147.59 928.695 1143.37 922.607 1139.91 915.916C1136.72 909.745 1134.44 903.565 1133.03 897.597L1115.13 863.76Z" fill="black"/>
<ellipse cx="38.4558" cy="60.2649" rx="38.4558" ry="60.2649" transform="matrix(-0.972807 0.327119 0.444546 0.860133 1153.55 850.937)" fill="black"/>
<g filter="url(#filter1_i_0_1)">
<ellipse cx="28.8432" cy="45.2008" rx="28.8432" ry="45.2008" transform="matrix(-0.972807 0.327119 0.444546 0.860133 1149.72 867.039)" fill="url(#paint0_linear_0_1)"/>
</g>
<g filter="url(#filter2_di_0_1)">
<path fill-rule="evenodd" clip-rule="evenodd" d="M1144.36 885.776C1148.49 887.975 1152.53 891.091 1156.17 894.934L1146.95 907.239C1145.98 906.264 1144.94 905.421 1143.86 904.734L1144.36 885.776ZM1143.25 928.076C1144.71 928.495 1146.14 928.593 1147.46 928.315L1160.04 947.041C1159.53 947.273 1159 947.481 1158.46 947.664C1153.69 949.269 1148.22 948.775 1142.77 946.609L1143.25 928.076ZM1140.41 945.571L1140.9 927.125C1139.56 926.433 1138.24 925.491 1137.02 924.343L1127.97 936.42C1131.81 940.347 1136.08 943.47 1140.41 945.571ZM1141.52 903.5L1142.01 884.629C1136.14 882.023 1130.2 881.317 1125.06 883.045C1123.63 883.528 1122.31 884.179 1121.13 884.982L1133.75 903.775C1134.21 903.466 1134.72 903.215 1135.27 903.029C1137.17 902.391 1139.35 902.607 1141.52 903.5ZM1118.44 923.196C1120.65 927.468 1123.36 931.346 1126.37 934.713L1135.41 922.651C1134.42 921.483 1133.52 920.171 1132.77 918.743L1117.67 921.647C1117.92 922.163 1118.18 922.679 1118.44 923.196ZM1148.51 908.992L1157.74 896.673C1160.52 899.88 1163.02 903.525 1165.08 907.514C1165.52 908.364 1165.93 909.215 1166.31 910.064L1151.04 913.002C1150.96 912.843 1150.88 912.683 1150.8 912.524C1150.14 911.249 1149.37 910.065 1148.51 908.992ZM1116.75 919.598C1114.33 913.931 1113.13 908.345 1113.08 903.284L1130.69 912.096C1130.83 913.563 1131.21 915.118 1131.83 916.696L1116.75 919.598ZM1151.91 915.063C1152.61 917.045 1152.93 918.977 1152.88 920.729L1170.4 929.494C1170.68 924.2 1169.64 918.224 1167.19 912.122L1151.91 915.063ZM1170.18 931.854L1152.58 923.048C1152.11 924.94 1151.12 926.478 1149.64 927.429L1162.08 945.935C1166.59 943.035 1169.35 938.009 1170.18 931.854ZM1113.15 900.847L1130.67 909.618C1130.82 908.005 1131.3 906.573 1132.09 905.433L1119.31 886.414C1115.64 889.778 1113.54 894.863 1113.15 900.847Z" fill="#4C4C4C"/>
</g>
<path fill-rule="evenodd" clip-rule="evenodd" d="M1115.17 863.172L1149.87 851.091L1149.87 851.099C1150.08 851.021 1150.3 850.945 1150.52 850.872C1171.18 843.924 1199.93 861.518 1214.74 890.169C1229.55 918.82 1224.8 947.678 1204.14 954.626C1203.93 954.696 1203.72 954.763 1203.51 954.828L1169.85 966.565L1152.37 933.509C1147.64 928.175 1143.4 922.057 1139.92 915.329C1136.71 909.122 1134.42 902.905 1133.01 896.904L1115.17 863.172Z" fill="black"/>
<path d="M1105.12 927.922C1119.91 956.55 1148.66 974.126 1169.32 967.179C1189.98 960.231 1194.73 931.391 1179.94 902.763C1165.14 874.135 1135.56 855.017 1114.9 861.965C1094.24 868.912 1090.32 899.294 1105.12 927.922Z" fill="#2D2C2C"/>
<g filter="url(#filter3_i_0_1)">
<ellipse cx="27.9711" cy="41.7291" rx="27.9711" ry="41.7291" transform="matrix(-0.936244 0.324656 0.448593 0.903165 1149.59 868.59)" fill="url(#paint1_linear_0_1)"/>
</g>
<g filter="url(#filter4_di_0_1)">
<path fill-rule="evenodd" clip-rule="evenodd" d="M1124.84 925.885C1131.7 937.042 1142.34 944.233 1151.39 944.035L1143.79 929.048C1140.76 928.171 1137.63 925.907 1135.13 922.719L1124.84 925.885ZM1121.73 919.933C1116.33 907.584 1117.4 895.528 1123.95 889.898L1131.54 904.878C1129.95 907.847 1129.96 912.27 1131.76 916.846L1121.73 919.933ZM1151.04 910.917C1147.7 904.99 1142.19 901.114 1137.53 901.218L1130.27 886.897C1140.57 884.947 1153.82 893.818 1161.09 907.826L1151.04 910.917ZM1153.43 917.092L1163.74 913.921C1168.05 926.26 1165.9 937.766 1158.29 942.173L1151.02 927.845C1153.53 925.696 1154.4 921.641 1153.43 917.092Z" fill="#A9A8A8"/>
</g>
<path fill-rule="evenodd" clip-rule="evenodd" d="M859.74 752.111L890.182 746.504L890.186 746.52C890.379 746.482 890.573 746.446 890.769 746.412C908.851 743.272 929.023 761.014 935.825 786.038C942.626 811.062 933.481 833.893 915.399 837.033C915.135 837.079 914.871 837.12 914.606 837.157L885.3 842.568L877.115 813.601C874.258 808.718 871.934 803.261 870.343 797.406C868.875 792.006 868.15 786.708 868.097 781.688L859.74 752.111Z" fill="black"/>
<ellipse cx="31.3242" cy="50.5545" rx="31.3242" ry="50.5545" transform="matrix(-1.04523 0.181453 0.243418 0.895568 893.303 746.351)" fill="black"/>
<g filter="url(#filter5_i_0_1)">
<ellipse cx="23.4944" cy="37.918" rx="23.4944" ry="37.918" transform="matrix(-1.04523 0.181453 0.243418 0.895568 887.256 758.947)" fill="url(#paint2_linear_0_1)"/>
</g>
<g filter="url(#filter6_di_0_1)">
<path fill-rule="evenodd" clip-rule="evenodd" d="M879.479 773.509C882.429 775.79 885.136 778.798 887.384 782.345L877.622 791.22C877.016 790.322 876.333 789.522 875.598 788.841L879.479 773.509ZM870.829 807.684C871.92 808.187 873.051 808.433 874.162 808.37L880.969 825.079C880.52 825.202 880.061 825.304 879.592 825.386C875.424 826.109 871.078 825.054 867.042 822.649L870.829 807.684ZM865.281 821.501L869.049 806.612C868.093 805.894 867.199 804.978 866.417 803.908L856.857 812.601C859.26 816.239 862.15 819.277 865.281 821.501ZM873.88 787.525L877.741 772.27C873.445 769.452 868.745 768.165 864.252 768.945C862.994 769.164 861.806 769.535 860.693 770.043L867.522 786.806C867.949 786.612 868.404 786.471 868.885 786.388C870.546 786.099 872.279 786.538 873.88 787.525ZM851.514 800.708C852.529 804.44 854.021 807.912 855.859 811.007L865.407 802.327C864.807 801.247 864.314 800.059 863.963 798.792L851.163 799.323C851.271 799.784 851.389 800.245 851.514 800.708ZM878.582 792.849L888.356 783.962C890.024 786.894 891.384 790.145 892.329 793.623C892.531 794.366 892.711 795.105 892.868 795.841L879.889 796.379C879.856 796.241 879.82 796.103 879.782 795.965C879.482 794.861 879.074 793.815 878.582 792.849ZM850.793 797.586C849.863 792.694 849.912 788.014 850.799 783.9L863.499 793.163C863.344 794.377 863.366 795.692 863.584 797.056L850.793 797.586ZM880.211 798.118C880.427 799.825 880.333 801.444 879.97 802.87L892.629 812.102C893.836 807.831 894.086 802.841 893.2 797.579L880.211 798.118ZM892.025 813.968L879.31 804.694C878.586 806.18 877.498 807.313 876.12 807.911L882.847 824.422C887.058 822.615 890.223 818.866 892.025 813.968ZM851.294 781.955L863.937 791.176C864.353 789.89 865.002 788.79 865.847 787.961L858.936 770.998C855.34 773.286 852.706 777.154 851.294 781.955Z" fill="#4C4C4C"/>
</g>
<path fill-rule="evenodd" clip-rule="evenodd" d="M859.623 752.756L890.065 747.149L890.066 747.155C890.258 747.117 890.45 747.081 890.644 747.047C908.726 743.908 928.899 761.649 935.7 786.674C942.502 811.698 933.357 834.529 915.274 837.668C915.101 837.698 914.927 837.726 914.753 837.753L885.183 843.213L877 814.253C874.138 809.365 871.811 803.903 870.218 798.042C868.749 792.635 868.024 787.331 867.972 782.305L859.623 752.756Z" fill="black"/>
<ellipse cx="31.6723" cy="51.1163" rx="31.6723" ry="51.1163" transform="matrix(-1.04523 0.181453 0.243418 0.895568 893.426 745.878)" fill="#2C2C2C"/>
<g filter="url(#filter7_i_0_1)">
<g filter="url(#filter8_i_0_1)">
<ellipse cx="22.0641" cy="36.5755" rx="22.0641" ry="36.5755" transform="matrix(-1.02967 0.227841 0.320586 0.880904 881.67 763.213)" fill="url(#paint3_linear_0_1)"/>
</g>
<g filter="url(#filter9_di_0_1)">
<path fill-rule="evenodd" clip-rule="evenodd" d="M854.238 806.897C858.258 816.6 865.904 823.61 873.345 824.637L869.186 811.556C866.91 810.445 864.764 808.31 863.222 805.556L854.238 806.897ZM852.522 801.737C849.864 791.255 852.398 781.751 858.486 777.906L862.647 790.993C861.04 793.211 860.479 796.663 861.285 800.429L852.522 801.737ZM878.081 797.922C876.163 792.738 872.144 788.958 868.268 788.511L864.326 776.114C873.124 775.75 882.809 784.465 886.814 796.619L878.081 797.922ZM879.168 803.176L888.123 801.84C889.924 812.304 886.488 821.334 879.547 823.985L875.607 811.592C878.005 810.161 879.324 806.979 879.168 803.176Z" fill="#A9A8A8"/>
</g>
</g>
<g filter="url(#filter10_ii_0_1)">
<path fill-rule="evenodd" clip-rule="evenodd" d="M1312.52 749.683C1314 750.454 1315.31 750.992 1316.46 751.272C1329.14 754.354 1434.75 804.501 1457.55 824.171C1479.73 843.313 1478.18 854.392 1477.46 859.534C1477.36 860.277 1477.27 860.896 1477.28 861.398C1477.3 863.899 1477.15 868.927 1476.95 875.325C1476.83 879.093 1476.7 883.336 1476.58 887.817L1476.19 903.041C1476.11 904.178 1476.09 905.338 1476.06 906.523C1475.96 911.555 1475.84 917.026 1471.88 922.927C1467 930.2 1443.65 956.736 1333.06 982.027C1295.56 990.603 1252.56 978.998 1225.21 969.048C1214.49 965.517 1206.23 962.151 1201.73 960.227C1201.05 959.937 1200.47 959.493 1200.02 958.946C1199.85 958.748 1199.61 958.559 1199.38 958.454C1198.89 958.235 1198.6 957.786 1198.56 957.254C1197.98 949.673 1196.06 939.161 1193.15 928.623C1189.74 917.008 1185.15 905.469 1179.97 897.89C1167.82 880.086 1141.53 857.851 1120.26 863.244C1096.12 869.365 1097.22 897.356 1097.51 904.04C1097.59 906.005 1097.84 907.321 1098.08 908.62L1098.08 908.62L1098.08 908.621C1098.28 909.655 1098.47 910.679 1098.57 912.013C1098.59 912.205 1098.59 912.392 1098.58 912.575C1098.57 912.825 1098.55 913.075 1098.57 913.324C1098.6 913.739 1098.61 914.213 1098.61 914.762C1098.59 916.079 1097.21 916.892 1096.01 916.354C1095.63 916.186 1095.22 916.157 1094.81 916.188C1094.08 916.244 1093.32 916.126 1092.59 915.801L910.759 835.032C909.381 834.42 908.362 833.178 908.206 831.682C907.886 828.593 907.989 825.079 908.103 821.203C908.45 809.371 908.897 794.164 897.686 777.355C887.438 761.991 872.194 751.614 858.023 754.851C843.852 758.088 839.7 770.288 838.753 777.116C837.823 783.821 838.109 790.002 838.275 793.588L838.275 793.588L838.275 793.593C838.342 795.033 838.389 796.054 838.33 796.52C838.123 798.146 818.225 783.507 817.064 778.086C813.529 761.589 813.105 746.211 815.623 729.616C816.009 727.071 817.279 720.895 818.273 717.922C818.533 717.147 818.688 716.333 818.666 715.513C818.515 709.82 819.934 701.908 821.885 698.521C822.066 698.207 822.243 697.876 822.429 697.528C824.597 693.473 827.984 687.139 853.024 678.753C888.579 666.845 985.23 640.766 988.958 640.192C997.767 638.837 1008.98 639.787 1018.06 640.556C1023.38 641.008 1027.97 641.397 1030.91 641.221C1073.35 638.686 1122.32 644.631 1186.4 672.713C1195 675.91 1203.49 679.527 1211.69 683.619C1232.18 693.84 1249.39 704.58 1263.68 714.426C1280.35 725.343 1293.17 735.104 1302.38 742.113L1302.38 742.113C1306.47 745.226 1309.84 747.796 1312.52 749.683Z" fill="url(#paint4_linear_0_1)"/>
</g>
<g filter="url(#filter11_ddi_0_1)">
<path d="M1140.9 804.773C1117.84 796.394 1105.31 770.655 1071.35 739.887C1070.01 738.673 1070.47 736.46 1072.19 735.947L1217.9 692.44C1218.19 692.354 1218.49 692.326 1218.79 692.388C1221.44 692.942 1236.48 697.22 1277.25 727.863C1297.8 743.311 1301.89 747.304 1312.56 753.483C1314.24 754.46 1313.89 756.512 1307.49 760.56C1287.1 773.463 1175.43 817.318 1140.9 804.773Z" fill="url(#paint5_linear_0_1)"/>
</g>
<g filter="url(#filter12_di_0_1)">
<path d="M977.419 700.104C946.665 691.443 938.698 691.203 917.35 689.702C902.66 688.669 879.262 689.859 876.573 695.166C873.885 700.473 901.713 718.03 913.278 723.568C918.93 726.275 1114.13 811.292 1108.11 801.662C1100.68 789.798 1065.98 755.576 1054.19 741.66C1034.53 718.459 1008.17 708.765 977.419 700.104Z" fill="url(#paint6_linear_0_1)"/>
</g>
<g filter="url(#filter13_di_0_1)">
<path d="M907.658 682.575L1038.68 642.863C1038.68 642.863 1035.75 643.624 1019.81 643.042C1014.25 642.839 878.261 684.468 877.258 685.146L907.658 682.575Z" fill="url(#paint7_linear_0_1)"/>
</g>
<g filter="url(#filter14_f_0_1)">
<path d="M1199.07 864.081C1149.67 844.054 1122.26 819.762 1092.78 797.45C1181.71 821.163 1367.79 872.844 1364.78 875.837C1361.01 879.577 1347.43 883.791 1302.67 885.138C1258.59 886.465 1204.72 866.374 1199.07 864.081Z" fill="url(#paint8_linear_0_1)" fill-opacity="0.21"/>
</g>
<g filter="url(#filter15_f_0_1)">
<path d="M1394.06 779.055C1391.27 777.096 1356.44 746.292 1330.16 730.738C1351.29 766.158 1399.56 843.207 1404.24 842.942C1410.1 842.611 1436.93 839.208 1445.19 824.653C1453.33 810.324 1397.54 781.505 1394.06 779.055Z" fill="url(#paint9_linear_0_1)" fill-opacity="0.13"/>
</g>
<g filter="url(#filter16_di_0_1)">
<path d="M1023.04 803.73C1023.06 802.952 1022.59 802.266 1021.82 801.94L1006.29 795.364C1004.68 794.684 1002.66 795.834 1002.62 797.455L1002.6 798.032C1002.58 798.81 1003.05 799.497 1003.82 799.823L1019.36 806.374C1020.97 807.052 1022.98 805.901 1023.02 804.281L1023.04 803.73Z" fill="#323232"/>
</g>
<g filter="url(#filter17_di_0_1)">
<path d="M928.493 767.228C928.514 766.45 928.047 765.764 927.276 765.437L911.741 758.861C910.133 758.181 908.115 759.332 908.072 760.953L908.057 761.529C908.037 762.308 908.505 762.995 909.277 763.32L924.814 769.871C926.421 770.549 928.436 769.399 928.479 767.779L928.493 767.228Z" fill="#323232"/>
</g>
<g filter="url(#filter18_f_0_1)">
<path d="M1077.09 900.757L919.748 833.739C918.535 833.223 917.598 832.221 917.175 830.973C913.094 818.939 906.055 797.094 906.015 792.445C905.962 786.303 1096.65 865.34 1089.54 879.059C1086.65 884.649 1085.54 890.166 1085.32 894.76C1085.13 898.686 1080.72 902.303 1077.09 900.757Z" fill="url(#paint10_linear_0_1)" fill-opacity="0.12"/>
</g>
<path d="M1238.52 789.468L1126.58 719.511C1113.49 722.051 1083.57 732.082 1077.88 733.663C1070.5 735.712 1069.25 736.924 1069.25 736.924C1069.21 738.715 1070.31 739.526 1073.79 742.412C1078.78 746.55 1080.89 748.45 1093.16 761.818C1110.83 781.071 1124.19 798.909 1137.33 803.433C1147.79 807.032 1164.16 810.357 1187.72 804.669C1208.79 799.585 1221.83 793.576 1238.52 789.468Z" fill="#C4C4C4" fill-opacity="0.2"/>
<g opacity="0.17" filter="url(#filter19_f_0_1)">
<path d="M1438.75 847.631C1407.25 866.748 1337.58 893.472 1306.7 897.05" stroke="url(#paint11_linear_0_1)" stroke-width="75.7446" stroke-linecap="round" stroke-linejoin="round"/>
</g>
<g filter="url(#filter20_ddii_0_1)">
<path d="M1462.21 855.463C1468.28 849.148 1466.88 843.927 1466.2 835.867C1466.16 835.434 1466.06 835.006 1465.92 834.591C1463.93 828.733 1474.56 842.212 1475.49 851.424C1475.8 854.52 1475.51 856.076 1475.08 858.916C1474.88 860.216 1471.37 868.091 1471.81 869.821C1472.26 871.55 1470.87 883.363 1470.9 885.154C1470.92 886.945 1461.36 900.033 1436.82 912.279C1416.43 922.453 1387.38 928.746 1384.41 929.019C1381.44 929.291 1378.75 921.168 1376.61 920.671C1371.02 919.369 1354.28 923.909 1348.05 925.021C1340.78 926.319 1323.81 929.306 1305.41 926.931C1282.65 923.994 1279.21 921.805 1258.48 912.026C1246.52 906.389 1237.74 896.452 1233.37 889.524C1231.66 886.811 1233.95 884.313 1237.01 885.223C1251.93 889.658 1280.91 898.642 1313.67 902.178C1363.92 907.6 1404.21 889.168 1409.98 886.518C1434.25 875.377 1446.94 871.349 1462.21 855.463Z" fill="#272727"/>
</g>
<mask id="mask0_0_1" style="mask-type:alpha" maskUnits="userSpaceOnUse" x="1232" y="839" width="247" height="90">
<path d="M1462.21 855.381C1465.54 851.914 1466.79 847.999 1466.92 844.165C1467.08 839.639 1471.4 836.983 1473.69 840.98C1476.34 845.616 1477.55 849.442 1477.93 851.764C1478.24 854.86 1478.09 856.818 1477.66 859.658C1477.47 860.958 1471.38 868.004 1471.82 869.734C1472.27 871.463 1470.89 883.277 1470.92 885.068C1470.95 886.859 1461.4 899.951 1436.86 912.211C1416.48 922.395 1387.44 928.703 1384.47 928.977C1381.5 929.252 1378.8 921.13 1376.67 920.634C1371.07 919.335 1354.34 923.884 1348.11 924.999C1340.83 926.3 1323.87 929.296 1305.46 926.931C1282.7 924.006 1279.27 921.819 1258.52 912.05C1246.56 906.418 1237.77 896.483 1233.4 889.557C1231.69 886.846 1233.98 884.351 1237.04 885.26C1251.97 889.688 1280.95 898.655 1313.71 902.173C1363.97 907.57 1404.24 889.116 1410.01 886.463C1434.26 875.31 1446.96 871.275 1462.21 855.381Z" fill="#999999"/>
</mask>
<g mask="url(#mask0_0_1)">
<g filter="url(#filter21_d_0_1)">
<path d="M1335.09 893.186C1335.08 893.185 1335.08 893.185 1335.09 893.186L1335.09 893.186ZM1335.48 894.133C1335.61 894.509 1335.76 894.982 1335.88 895.526C1336.21 897.005 1336.36 898.943 1335.69 900.924C1334.42 904.722 1329.81 909.57 1314.61 910.848C1310.12 911.226 1303.91 911.055 1297.57 909.919C1291.21 908.779 1284.85 906.695 1279.94 903.343C1277.32 901.555 1274.1 898.035 1271.44 894.812C1270.5 893.675 1269.66 892.6 1268.96 891.688L1335.48 894.133Z" stroke="white" stroke-opacity="0.9" stroke-width="3.41524"/>
</g>
<g filter="url(#filter22_d_0_1)">
<path d="M1466.06 839.164C1466.6 840.028 1467.22 841.174 1467.71 842.525C1468.84 845.633 1469.24 849.673 1466.69 853.859C1466.02 854.973 1465.11 855.657 1464.23 855.921C1463.4 856.17 1462.3 856.138 1461.01 855.302C1460.06 854.684 1458.75 854.422 1457.57 854.298C1456.34 854.167 1454.99 854.163 1453.78 854.208C1453.57 854.216 1453.35 854.225 1453.14 854.236L1466.06 839.164Z" stroke="white" stroke-opacity="0.9" stroke-width="3.41524"/>
</g>
</g>
<path d="M556.5 633C221.5 676.167 -383 567.5 -121 -212.5M-284.424 421C-91.091 350.833 337.576 237.4 505.576 345M1183.08 1324.5C848.076 1367.67 243.576 1259 505.576 479" stroke="black" stroke-width="5" stroke-linecap="round" stroke-dasharray="4 30"/>
<defs>
<filter id="filter0_f_0_1" x="780.358" y="742.061" width="713.801" height="277.838" filterUnits="userSpaceOnUse" color-interpolation-filters="sRGB">
<feFlood flood-opacity="0" result="BackgroundImageFix"/>
<feBlend mode="normal" in="SourceGraphic" in2="BackgroundImageFix" result="shape"/>
<feGaussianBlur stdDeviation="5" result="effect1_foregroundBlur_0_1"/>
</filter>
<filter id="filter1_i_0_1" x="1107.24" y="875.336" width="69.0289" height="80.033" filterUnits="userSpaceOnUse" color-interpolation-filters="sRGB">
<feFlood flood-opacity="0" result="BackgroundImageFix"/>
<feBlend mode="normal" in="SourceGraphic" in2="BackgroundImageFix" result="shape"/>
<feColorMatrix in="SourceAlpha" type="matrix" values="0 0 0 0 0 0 0 0 0 0 0 0 0 0 0 0 0 0 127 0" result="hardAlpha"/>
<feMorphology radius="1.14765" operator="erode" in="SourceAlpha" result="effect1_innerShadow_0_1"/>
<feOffset/>
<feGaussianBlur stdDeviation="0.573823"/>
<feComposite in2="hardAlpha" operator="arithmetic" k2="-1" k3="1"/>
<feColorMatrix type="matrix" values="0 0 0 0 0 0 0 0 0 0 0 0 0 0 0 0 0 0 0.25 0"/>
<feBlend mode="normal" in2="shape" result="effect1_innerShadow_0_1"/>
</filter>
<filter id="filter2_di_0_1" x="1109.64" y="881.87" width="61.4951" height="69.0351" filterUnits="userSpaceOnUse" color-interpolation-filters="sRGB">
<feFlood flood-opacity="0" result="BackgroundImageFix"/>
<feColorMatrix in="SourceAlpha" type="matrix" values="0 0 0 0 0 0 0 0 0 0 0 0 0 0 0 0 0 0 127 0" result="hardAlpha"/>
<feOffset dy="0.459058"/>
<feGaussianBlur stdDeviation="0.344294"/>
<feColorMatrix type="matrix" values="0 0 0 0 1 0 0 0 0 1 0 0 0 0 1 0 0 0 0.41 0"/>
<feBlend mode="normal" in2="BackgroundImageFix" result="effect1_dropShadow_0_1"/>
<feBlend mode="normal" in="SourceGraphic" in2="effect1_dropShadow_0_1" result="shape"/>
<feColorMatrix in="SourceAlpha" type="matrix" values="0 0 0 0 0 0 0 0 0 0 0 0 0 0 0 0 0 0 127 0" result="hardAlpha"/>
<feOffset dx="-3.44294" dy="2.29529"/>
<feGaussianBlur stdDeviation="1.72147"/>
<feComposite in2="hardAlpha" operator="arithmetic" k2="-1" k3="1"/>
<feColorMatrix type="matrix" values="0 0 0 0 0 0 0 0 0 0 0 0 0 0 0 0 0 0 0.25 0"/>
<feBlend mode="normal" in2="shape" result="effect2_innerShadow_0_1"/>
</filter>
<filter id="filter3_i_0_1" x="1109.93" y="876.583" width="64.3855" height="77.5516" filterUnits="userSpaceOnUse" color-interpolation-filters="sRGB">
<feFlood flood-opacity="0" result="BackgroundImageFix"/>
<feBlend mode="normal" in="SourceGraphic" in2="BackgroundImageFix" result="shape"/>
<feColorMatrix in="SourceAlpha" type="matrix" values="0 0 0 0 0 0 0 0 0 0 0 0 0 0 0 0 0 0 127 0" result="hardAlpha"/>
<feMorphology radius="2.84604" operator="erode" in="SourceAlpha" result="effect1_innerShadow_0_1"/>
<feOffset/>
<feGaussianBlur stdDeviation="1.42302"/>
<feComposite in2="hardAlpha" operator="arithmetic" k2="-1" k3="1"/>
<feColorMatrix type="matrix" values="0 0 0 0 0 0 0 0 0 0 0 0 0 0 0 0 0 0 0.25 0"/>
<feBlend mode="normal" in2="shape" result="effect1_innerShadow_0_1"/>
</filter>
<filter id="filter4_di_0_1" x="1114.63" y="886.386" width="52.5157" height="60.0787" filterUnits="userSpaceOnUse" color-interpolation-filters="sRGB">
<feFlood flood-opacity="0" result="BackgroundImageFix"/>
<feColorMatrix in="SourceAlpha" type="matrix" values="0 0 0 0 0 0 0 0 0 0 0 0 0 0 0 0 0 0 127 0" result="hardAlpha"/>
<feOffset dy="0.970617"/>
<feGaussianBlur stdDeviation="0.606636"/>
<feColorMatrix type="matrix" values="0 0 0 0 1 0 0 0 0 1 0 0 0 0 1 0 0 0 0.59 0"/>
<feBlend mode="normal" in2="BackgroundImageFix" result="effect1_dropShadow_0_1"/>
<feBlend mode="normal" in="SourceGraphic" in2="effect1_dropShadow_0_1" result="shape"/>
<feColorMatrix in="SourceAlpha" type="matrix" values="0 0 0 0 0 0 0 0 0 0 0 0 0 0 0 0 0 0 127 0" result="hardAlpha"/>
<feOffset dx="-3.63981" dy="2.42654"/>
<feGaussianBlur stdDeviation="1.81991"/>
<feComposite in2="hardAlpha" operator="arithmetic" k2="-1" k3="1"/>
<feColorMatrix type="matrix" values="0 0 0 0 0 0 0 0 0 0 0 0 0 0 0 0 0 0 0.25 0"/>
<feBlend mode="normal" in2="shape" result="effect2_innerShadow_0_1"/>
</filter>
<filter id="filter5_i_0_1" x="845.688" y="762.94" width="52.4827" height="68.4566" filterUnits="userSpaceOnUse" color-interpolation-filters="sRGB">
<feFlood flood-opacity="0" result="BackgroundImageFix"/>
<feBlend mode="normal" in="SourceGraphic" in2="BackgroundImageFix" result="shape"/>
<feColorMatrix in="SourceAlpha" type="matrix" values="0 0 0 0 0 0 0 0 0 0 0 0 0 0 0 0 0 0 127 0" result="hardAlpha"/>
<feMorphology radius="0.947741" operator="erode" in="SourceAlpha" result="effect1_innerShadow_0_1"/>
<feOffset/>
<feGaussianBlur stdDeviation="0.47387"/>
<feComposite in2="hardAlpha" operator="arithmetic" k2="-1" k3="1"/>
<feColorMatrix type="matrix" values="0 0 0 0 0 0 0 0 0 0 0 0 0 0 0 0 0 0 0.25 0"/>
<feBlend mode="normal" in2="shape" result="effect1_innerShadow_0_1"/>
</filter>
<filter id="filter6_di_0_1" x="847.271" y="768.531" width="47.0265" height="58.9744" filterUnits="userSpaceOnUse" color-interpolation-filters="sRGB">
<feFlood flood-opacity="0" result="BackgroundImageFix"/>
<feColorMatrix in="SourceAlpha" type="matrix" values="0 0 0 0 0 0 0 0 0 0 0 0 0 0 0 0 0 0 127 0" result="hardAlpha"/>
<feOffset dy="0.379096"/>
<feGaussianBlur stdDeviation="0.284322"/>
<feColorMatrix type="matrix" values="0 0 0 0 1 0 0 0 0 1 0 0 0 0 1 0 0 0 0.41 0"/>
<feBlend mode="normal" in2="BackgroundImageFix" result="effect1_dropShadow_0_1"/>
<feBlend mode="normal" in="SourceGraphic" in2="effect1_dropShadow_0_1" result="shape"/>
<feColorMatrix in="SourceAlpha" type="matrix" values="0 0 0 0 0 0 0 0 0 0 0 0 0 0 0 0 0 0 127 0" result="hardAlpha"/>
<feOffset dx="-2.84322" dy="1.89548"/>
<feGaussianBlur stdDeviation="1.42161"/>
<feComposite in2="hardAlpha" operator="arithmetic" k2="-1" k3="1"/>
<feColorMatrix type="matrix" values="0 0 0 0 0 0 0 0 0 0 0 0 0 0 0 0 0 0 0.25 0"/>
<feBlend mode="normal" in2="shape" result="effect2_innerShadow_0_1"/>
</filter>
<filter id="filter7_i_0_1" x="845.106" y="767.846" width="51.143" height="65.2279" filterUnits="userSpaceOnUse" color-interpolation-filters="sRGB">
<feFlood flood-opacity="0" result="BackgroundImageFix"/>
<feBlend mode="normal" in="SourceGraphic" in2="BackgroundImageFix" result="shape"/>
<feColorMatrix in="SourceAlpha" type="matrix" values="0 0 0 0 0 0 0 0 0 0 0 0 0 0 0 0 0 0 127 0" result="hardAlpha"/>
<feMorphology radius="2.84604" operator="erode" in="SourceAlpha" result="effect1_innerShadow_0_1"/>
<feOffset/>
<feGaussianBlur stdDeviation="1.42302"/>
<feComposite in2="hardAlpha" operator="arithmetic" k2="-1" k3="1"/>
<feColorMatrix type="matrix" values="0 0 0 0 0 0 0 0 0 0 0 0 0 0 0 0 0 0 0.25 0"/>
<feBlend mode="normal" in2="shape" result="effect1_innerShadow_0_1"/>
</filter>
<filter id="filter8_i_0_1" x="845.106" y="767.846" width="51.143" height="65.2279" filterUnits="userSpaceOnUse" color-interpolation-filters="sRGB">
<feFlood flood-opacity="0" result="BackgroundImageFix"/>
<feBlend mode="normal" in="SourceGraphic" in2="BackgroundImageFix" result="shape"/>
<feColorMatrix in="SourceAlpha" type="matrix" values="0 0 0 0 0 0 0 0 0 0 0 0 0 0 0 0 0 0 127 0" result="hardAlpha"/>
<feMorphology radius="0.852955" operator="erode" in="SourceAlpha" result="effect1_innerShadow_0_1"/>
<feOffset/>
<feGaussianBlur stdDeviation="0.426477"/>
<feComposite in2="hardAlpha" operator="arithmetic" k2="-1" k3="1"/>
<feColorMatrix type="matrix" values="0 0 0 0 0 0 0 0 0 0 0 0 0 0 0 0 0 0 0.25 0"/>
<feBlend mode="normal" in2="shape" result="effect1_innerShadow_0_1"/>
</filter>
<filter id="filter9_di_0_1" x="847.833" y="775.861" width="41.9779" height="51.2028" filterUnits="userSpaceOnUse" color-interpolation-filters="sRGB">
<feFlood flood-opacity="0" result="BackgroundImageFix"/>
<feColorMatrix in="SourceAlpha" type="matrix" values="0 0 0 0 0 0 0 0 0 0 0 0 0 0 0 0 0 0 127 0" result="hardAlpha"/>
<feOffset dy="0.970618"/>
<feGaussianBlur stdDeviation="0.606636"/>
<feColorMatrix type="matrix" values="0 0 0 0 1 0 0 0 0 1 0 0 0 0 1 0 0 0 0.59 0"/>
<feBlend mode="normal" in2="BackgroundImageFix" result="effect1_dropShadow_0_1"/>
<feBlend mode="normal" in="SourceGraphic" in2="effect1_dropShadow_0_1" result="shape"/>
<feColorMatrix in="SourceAlpha" type="matrix" values="0 0 0 0 0 0 0 0 0 0 0 0 0 0 0 0 0 0 127 0" result="hardAlpha"/>
<feOffset dx="-3.63982" dy="2.42654"/>
<feGaussianBlur stdDeviation="1.81991"/>
<feComposite in2="hardAlpha" operator="arithmetic" k2="-1" k3="1"/>
<feColorMatrix type="matrix" values="0 0 0 0 0 0 0 0 0 0 0 0 0 0 0 0 0 0 0.25 0"/>
<feBlend mode="normal" in2="shape" result="effect2_innerShadow_0_1"/>
</filter>
<filter id="filter10_ii_0_1" x="814.02" y="616.741" width="680.856" height="368.277" filterUnits="userSpaceOnUse" color-interpolation-filters="sRGB">
<feFlood flood-opacity="0" result="BackgroundImageFix"/>
<feBlend mode="normal" in="SourceGraphic" in2="BackgroundImageFix" result="shape"/>
<feColorMatrix in="SourceAlpha" type="matrix" values="0 0 0 0 0 0 0 0 0 0 0 0 0 0 0 0 0 0 127 0" result="hardAlpha"/>
<feOffset dx="17.0762" dy="-22.7683"/>
<feGaussianBlur stdDeviation="68.3049"/>
<feComposite in2="hardAlpha" operator="arithmetic" k2="-1" k3="1"/>
<feColorMatrix type="matrix" values="0 0 0 0 0 0 0 0 0 0 0 0 0 0 0 0 0 0 0.07 0"/>
<feBlend mode="normal" in2="shape" result="effect1_innerShadow_0_1"/>
<feColorMatrix in="SourceAlpha" type="matrix" values="0 0 0 0 0 0 0 0 0 0 0 0 0 0 0 0 0 0 127 0" result="hardAlpha"/>
<feOffset dy="-2.84604"/>
<feGaussianBlur stdDeviation="5.69207"/>
<feComposite in2="hardAlpha" operator="arithmetic" k2="-1" k3="1"/>
<feColorMatrix type="matrix" values="0 0 0 0 0 0 0 0 0 0 0 0 0 0 0 0 0 0 0.09 0"/>
<feBlend mode="normal" in2="effect1_innerShadow_0_1" result="effect2_innerShadow_0_1"/>
</filter>
<filter id="filter11_ddi_0_1" x="1065.98" y="688.911" width="249.736" height="121.537" filterUnits="userSpaceOnUse" color-interpolation-filters="sRGB">
<feFlood flood-opacity="0" result="BackgroundImageFix"/>
<feColorMatrix in="SourceAlpha" type="matrix" values="0 0 0 0 0 0 0 0 0 0 0 0 0 0 0 0 0 0 127 0" result="hardAlpha"/>
<feOffset dx="-2.29529" dy="1.14765"/>
<feGaussianBlur stdDeviation="1.14765"/>
<feColorMatrix type="matrix" values="0 0 0 0 1 0 0 0 0 1 0 0 0 0 1 0 0 0 0.28 0"/>
<feBlend mode="normal" in2="BackgroundImageFix" result="effect1_dropShadow_0_1"/>
<feColorMatrix in="SourceAlpha" type="matrix" values="0 0 0 0 0 0 0 0 0 0 0 0 0 0 0 0 0 0 127 0" result="hardAlpha"/>
<feOffset dy="-1.14765"/>
<feGaussianBlur stdDeviation="1.14765"/>
<feColorMatrix type="matrix" values="0 0 0 0 1 0 0 0 0 1 0 0 0 0 1 0 0 0 0.56 0"/>
<feBlend mode="normal" in2="effect1_dropShadow_0_1" result="effect2_dropShadow_0_1"/>
<feBlend mode="normal" in="SourceGraphic" in2="effect2_dropShadow_0_1" result="shape"/>
<feColorMatrix in="SourceAlpha" type="matrix" values="0 0 0 0 0 0 0 0 0 0 0 0 0 0 0 0 0 0 127 0" result="hardAlpha"/>
<feOffset dx="-1.14765" dy="3.44294"/>
<feGaussianBlur stdDeviation="1.72147"/>
<feComposite in2="hardAlpha" operator="arithmetic" k2="-1" k3="1"/>
<feColorMatrix type="matrix" values="0 0 0 0 0 0 0 0 0 0 0 0 0 0 0 0 0 0 0.75 0"/>
<feBlend mode="normal" in2="shape" result="effect3_innerShadow_0_1"/>
</filter>
<filter id="filter12_di_0_1" x="871.801" y="689.362" width="237.63" height="117.65" filterUnits="userSpaceOnUse" color-interpolation-filters="sRGB">
<feFlood flood-opacity="0" result="BackgroundImageFix"/>
<feColorMatrix in="SourceAlpha" type="matrix" values="0 0 0 0 0 0 0 0 0 0 0 0 0 0 0 0 0 0 127 0" result="hardAlpha"/>
<feOffset dy="1.18682"/>
<feGaussianBlur stdDeviation="0.593408"/>
<feColorMatrix type="matrix" values="0 0 0 0 0.925374 0 0 0 0 0.925374 0 0 0 0 0.925374 0 0 0 0.37 0"/>
<feBlend mode="normal" in2="BackgroundImageFix" result="effect1_dropShadow_0_1"/>
<feBlend mode="normal" in="SourceGraphic" in2="effect1_dropShadow_0_1" result="shape"/>
<feColorMatrix in="SourceAlpha" type="matrix" values="0 0 0 0 0 0 0 0 0 0 0 0 0 0 0 0 0 0 127 0" result="hardAlpha"/>
<feOffset dx="-4.59058" dy="5.73823"/>
<feGaussianBlur stdDeviation="2.29529"/>
<feComposite in2="hardAlpha" operator="arithmetic" k2="-1" k3="1"/>
<feColorMatrix type="matrix" values="0 0 0 0 0 0 0 0 0 0 0 0 0 0 0 0 0 0 0.8 0"/>
<feBlend mode="normal" in2="shape" result="effect2_innerShadow_0_1"/>
</filter>
<filter id="filter13_di_0_1" x="872.667" y="642.863" width="167.199" height="46.8738" filterUnits="userSpaceOnUse" color-interpolation-filters="sRGB">
<feFlood flood-opacity="0" result="BackgroundImageFix"/>
<feColorMatrix in="SourceAlpha" type="matrix" values="0 0 0 0 0 0 0 0 0 0 0 0 0 0 0 0 0 0 127 0" result="hardAlpha"/>
<feOffset dy="1.18682"/>
<feGaussianBlur stdDeviation="0.593408"/>
<feColorMatrix type="matrix" values="0 0 0 0 0.925374 0 0 0 0 0.925374 0 0 0 0 0.925374 0 0 0 0.37 0"/>
<feBlend mode="normal" in2="BackgroundImageFix" result="effect1_dropShadow_0_1"/>
<feBlend mode="normal" in="SourceGraphic" in2="effect1_dropShadow_0_1" result="shape"/>
<feColorMatrix in="SourceAlpha" type="matrix" values="0 0 0 0 0 0 0 0 0 0 0 0 0 0 0 0 0 0 127 0" result="hardAlpha"/>
<feOffset dx="-4.59058" dy="5.73823"/>
<feGaussianBlur stdDeviation="2.29529"/>
<feComposite in2="hardAlpha" operator="arithmetic" k2="-1" k3="1"/>
<feColorMatrix type="matrix" values="0 0 0 0 0 0 0 0 0 0 0 0 0 0 0 0 0 0 0.8 0"/>
<feBlend mode="normal" in2="shape" result="effect2_innerShadow_0_1"/>
</filter>
<filter id="filter14_f_0_1" x="1060.64" y="765.316" width="336.304" height="152.019" filterUnits="userSpaceOnUse" color-interpolation-filters="sRGB">
<feFlood flood-opacity="0" result="BackgroundImageFix"/>
<feBlend mode="normal" in="SourceGraphic" in2="BackgroundImageFix" result="shape"/>
<feGaussianBlur stdDeviation="16.067" result="effect1_foregroundBlur_0_1"/>
</filter>
<filter id="filter15_f_0_1" x="1309.51" y="710.08" width="157.155" height="153.52" filterUnits="userSpaceOnUse" color-interpolation-filters="sRGB">
<feFlood flood-opacity="0" result="BackgroundImageFix"/>
<feBlend mode="normal" in="SourceGraphic" in2="BackgroundImageFix" result="shape"/>
<feGaussianBlur stdDeviation="10.3288" result="effect1_foregroundBlur_0_1"/>
</filter>
<filter id="filter16_di_0_1" x="1002.03" y="794.026" width="21.5759" height="15.392" filterUnits="userSpaceOnUse" color-interpolation-filters="sRGB">
<feFlood flood-opacity="0" result="BackgroundImageFix"/>
<feColorMatrix in="SourceAlpha" type="matrix" values="0 0 0 0 0 0 0 0 0 0 0 0 0 0 0 0 0 0 127 0" result="hardAlpha"/>
<feOffset dy="-0.569207"/>
<feGaussianBlur stdDeviation="0.284604"/>
<feColorMatrix type="matrix" values="0 0 0 0 0.78755 0 0 0 0 0.78755 0 0 0 0 0.78755 0 0 0 0.19 0"/>
<feBlend mode="normal" in2="BackgroundImageFix" result="effect1_dropShadow_0_1"/>
<feBlend mode="normal" in="SourceGraphic" in2="effect1_dropShadow_0_1" result="shape"/>
<feColorMatrix in="SourceAlpha" type="matrix" values="0 0 0 0 0 0 0 0 0 0 0 0 0 0 0 0 0 0 127 0" result="hardAlpha"/>
<feOffset dy="2.84604"/>
<feGaussianBlur stdDeviation="1.42302"/>
<feComposite in2="hardAlpha" operator="arithmetic" k2="-1" k3="1"/>
<feColorMatrix type="matrix" values="0 0 0 0 0 0 0 0 0 0 0 0 0 0 0 0 0 0 0.74 0"/>
<feBlend mode="normal" in2="shape" result="effect2_innerShadow_0_1"/>
</filter>
<filter id="filter17_di_0_1" x="907.487" y="757.524" width="21.5759" height="15.392" filterUnits="userSpaceOnUse" color-interpolation-filters="sRGB">
<feFlood flood-opacity="0" result="BackgroundImageFix"/>
<feColorMatrix in="SourceAlpha" type="matrix" values="0 0 0 0 0 0 0 0 0 0 0 0 0 0 0 0 0 0 127 0" result="hardAlpha"/>
<feOffset dy="-0.569207"/>
<feGaussianBlur stdDeviation="0.284604"/>
<feColorMatrix type="matrix" values="0 0 0 0 0.78755 0 0 0 0 0.78755 0 0 0 0 0.78755 0 0 0 0.19 0"/>
<feBlend mode="normal" in2="BackgroundImageFix" result="effect1_dropShadow_0_1"/>
<feBlend mode="normal" in="SourceGraphic" in2="effect1_dropShadow_0_1" result="shape"/>
<feColorMatrix in="SourceAlpha" type="matrix" values="0 0 0 0 0 0 0 0 0 0 0 0 0 0 0 0 0 0 127 0" result="hardAlpha"/>
<feOffset dy="2.84604"/>
<feGaussianBlur stdDeviation="1.42302"/>
<feComposite in2="hardAlpha" operator="arithmetic" k2="-1" k3="1"/>
<feColorMatrix type="matrix" values="0 0 0 0 0 0 0 0 0 0 0 0 0 0 0 0 0 0 0.74 0"/>
<feBlend mode="normal" in2="shape" result="effect2_innerShadow_0_1"/>
</filter>
<filter id="filter18_f_0_1" x="899.129" y="785.22" width="197.493" height="122.788" filterUnits="userSpaceOnUse" color-interpolation-filters="sRGB">
<feFlood flood-opacity="0" result="BackgroundImageFix"/>
<feBlend mode="normal" in="SourceGraphic" in2="BackgroundImageFix" result="shape"/>
<feGaussianBlur stdDeviation="3.44294" result="effect1_foregroundBlur_0_1"/>
</filter>
<filter id="filter19_f_0_1" x="1257.34" y="798.279" width="230.76" height="148.121" filterUnits="userSpaceOnUse" color-interpolation-filters="sRGB">
<feFlood flood-opacity="0" result="BackgroundImageFix"/>
<feBlend mode="normal" in="SourceGraphic" in2="BackgroundImageFix" result="shape"/>
<feGaussianBlur stdDeviation="5.73823" result="effect1_foregroundBlur_0_1"/>
</filter>
<filter id="filter20_ddii_0_1" x="1231.36" y="831.022" width="245.685" height="107.85" filterUnits="userSpaceOnUse" color-interpolation-filters="sRGB">
<feFlood flood-opacity="0" result="BackgroundImageFix"/>
<feColorMatrix in="SourceAlpha" type="matrix" values="0 0 0 0 0 0 0 0 0 0 0 0 0 0 0 0 0 0 127 0" result="hardAlpha"/>
<feOffset dy="1.07131"/>
<feGaussianBlur stdDeviation="0.714204"/>
<feColorMatrix type="matrix" values="0 0 0 0 0 0 0 0 0 0 0 0 0 0 0 0 0 0 0.57 0"/>
<feBlend mode="normal" in2="BackgroundImageFix" result="effect1_dropShadow_0_1"/>
<feColorMatrix in="SourceAlpha" type="matrix" values="0 0 0 0 0 0 0 0 0 0 0 0 0 0 0 0 0 0 127 0" result="hardAlpha"/>
<feOffset dy="-0.714204"/>
<feGaussianBlur stdDeviation="0.714204"/>
<feColorMatrix type="matrix" values="0 0 0 0 0 0 0 0 0 0 0 0 0 0 0 0 0 0 1 0"/>
<feBlend mode="normal" in2="effect1_dropShadow_0_1" result="effect2_dropShadow_0_1"/>
<feBlend mode="normal" in="SourceGraphic" in2="effect2_dropShadow_0_1" result="shape"/>
<feColorMatrix in="SourceAlpha" type="matrix" values="0 0 0 0 0 0 0 0 0 0 0 0 0 0 0 0 0 0 127 0" result="hardAlpha"/>
<feOffset dy="9.84614"/>
<feGaussianBlur stdDeviation="10.0343"/>
<feComposite in2="hardAlpha" operator="arithmetic" k2="-1" k3="1"/>
<feColorMatrix type="matrix" values="0 0 0 0 0 0 0 0 0 0 0 0 0 0 0 0 0 0 1 0"/>
<feBlend mode="normal" in2="shape" result="effect3_innerShadow_0_1"/>
<feColorMatrix in="SourceAlpha" type="matrix" values="0 0 0 0 0 0 0 0 0 0 0 0 0 0 0 0 0 0 127 0" result="hardAlpha"/>
<feOffset dy="-1.07294"/>
<feGaussianBlur stdDeviation="1.07294"/>
<feComposite in2="hardAlpha" operator="arithmetic" k2="-1" k3="1"/>
<feColorMatrix type="matrix" values="0 0 0 0 0 0 0 0 0 0 0 0 0 0 0 0 0 0 1 0"/>
<feBlend mode="normal" in2="effect3_innerShadow_0_1" result="effect4_innerShadow_0_1"/>
</filter>
<filter id="filter21_d_0_1" x="1265.26" y="889.874" width="75.1803" height="25.6738" filterUnits="userSpaceOnUse" color-interpolation-filters="sRGB">
<feFlood flood-opacity="0" result="BackgroundImageFix"/>
<feColorMatrix in="SourceAlpha" type="matrix" values="0 0 0 0 0 0 0 0 0 0 0 0 0 0 0 0 0 0 127 0" result="hardAlpha"/>
<feOffset dx="1.13841" dy="1.41412"/>
<feGaussianBlur stdDeviation="0.707062"/>
<feColorMatrix type="matrix" values="0 0 0 0 1 0 0 0 0 1 0 0 0 0 1 0 0 0 0.24 0"/>
<feBlend mode="normal" in2="BackgroundImageFix" result="effect1_dropShadow_0_1"/>
<feBlend mode="normal" in="SourceGraphic" in2="effect1_dropShadow_0_1" result="shape"/>
</filter>
<filter id="filter22_d_0_1" x="1449.05" y="836.384" width="23.8987" height="24.1079" filterUnits="userSpaceOnUse" color-interpolation-filters="sRGB">
<feFlood flood-opacity="0" result="BackgroundImageFix"/>
<feColorMatrix in="SourceAlpha" type="matrix" values="0 0 0 0 0 0 0 0 0 0 0 0 0 0 0 0 0 0 127 0" result="hardAlpha"/>
<feOffset dx="1.13841" dy="1.41412"/>
<feGaussianBlur stdDeviation="0.707062"/>
<feColorMatrix type="matrix" values="0 0 0 0 1 0 0 0 0 1 0 0 0 0 1 0 0 0 0.24 0"/>
<feBlend mode="normal" in2="BackgroundImageFix" result="effect1_dropShadow_0_1"/>
<feBlend mode="normal" in="SourceGraphic" in2="effect1_dropShadow_0_1" result="shape"/>
</filter>
<linearGradient id="paint0_linear_0_1" x1="68.0348" y1="68.9528" x2="70.9198" y2="22.4369" gradientUnits="userSpaceOnUse">
<stop stop-color="#3F3F3F"/>
<stop offset="1" stop-color="#5C5C5C"/>
</linearGradient>
<linearGradient id="paint1_linear_0_1" x1="65.9777" y1="63.6568" x2="68.5141" y2="20.6982" gradientUnits="userSpaceOnUse">
<stop stop-color="#AAAAAA"/>
<stop offset="1" stop-color="#C2C2C2"/>
</linearGradient>
<linearGradient id="paint2_linear_0_1" x1="55.4181" y1="57.843" x2="57.91" y2="18.8309" gradientUnits="userSpaceOnUse">
<stop stop-color="#3F3F3F"/>
<stop offset="1" stop-color="#5C5C5C"/>
</linearGradient>
<linearGradient id="paint3_linear_0_1" x1="52.0445" y1="55.795" x2="54.5128" y2="18.1726" gradientUnits="userSpaceOnUse">
<stop stop-color="#AAAAAA"/>
<stop offset="1" stop-color="#C2C2C2"/>
</linearGradient>
<linearGradient id="paint4_linear_0_1" x1="1183.96" y1="966.242" x2="1425.76" y2="621.906" gradientUnits="userSpaceOnUse">
<stop stop-color="#D8D8D8"/>
<stop offset="1" stop-color="white"/>
</linearGradient>
<linearGradient id="paint5_linear_0_1" x1="1222.47" y1="590.044" x2="1078.64" y2="749.533" gradientUnits="userSpaceOnUse">
<stop stop-color="#E8EAE9"/>
<stop offset="0.498386" stop-color="#707072"/>
<stop offset="1" stop-color="#2F3032"/>
</linearGradient>
<linearGradient id="paint6_linear_0_1" x1="925.152" y1="1030.07" x2="1050.5" y2="765.481" gradientUnits="userSpaceOnUse">
<stop stop-color="#E8EAE9"/>
<stop offset="0.498386" stop-color="#707072"/>
<stop offset="1" stop-color="#2F3032"/>
</linearGradient>
<linearGradient id="paint7_linear_0_1" x1="860.95" y1="773.828" x2="932.462" y2="652.033" gradientUnits="userSpaceOnUse">
<stop stop-color="#E8EAE9"/>
<stop offset="0.498386" stop-color="#707072"/>
<stop offset="1" stop-color="#2F3032"/>
</linearGradient>
<linearGradient id="paint8_linear_0_1" x1="1218.39" y1="888.078" x2="1234.43" y2="835.342" gradientUnits="userSpaceOnUse">
<stop stop-color="#ECEAEA"/>
<stop offset="1" stop-color="white" stop-opacity="0"/>
</linearGradient>
<linearGradient id="paint9_linear_0_1" x1="1466.09" y1="802.933" x2="1388.09" y2="834.127" gradientUnits="userSpaceOnUse">
<stop stop-color="#ECEAEA"/>
<stop offset="1" stop-color="white" stop-opacity="0"/>
</linearGradient>
<linearGradient id="paint10_linear_0_1" x1="1024.45" y1="892.096" x2="1042.76" y2="847.425" gradientUnits="userSpaceOnUse">
<stop stop-color="#040404"/>
<stop offset="1" stop-color="#3C3C3C" stop-opacity="0"/>
</linearGradient>
<linearGradient id="paint11_linear_0_1" x1="1374.05" y1="898.143" x2="1364.36" y2="873.18" gradientUnits="userSpaceOnUse">
<stop stop-color="#4B4B4B"/>
<stop offset="0.899322" stop-opacity="0"/>
</linearGradient>
</defs>
</svg>
