<svg width="109" height="88" viewBox="0 0 109 88" fill="none" xmlns="http://www.w3.org/2000/svg">
<path d="M0.785792 38.0164C2.1936 39.8349 3.974 41.3655 5.94917 42.5405C7.95186 43.7323 10.162 44.5114 12.4293 45.0237C14.8745 45.5741 17.5207 45.771 19.824 44.6046C21.9135 43.5482 23.4314 41.4185 23.5965 39.0707C23.7553 36.8309 22.4936 34.4281 20.4126 33.4987C18.0076 32.4233 15.2132 33.1473 13.3608 34.9404C11.6545 36.5917 10.7738 38.9437 10.5664 41.2724C10.3674 43.5228 10.8797 45.8324 11.9339 47.8245C14.0637 51.8468 18.6978 54.2496 23.2155 53.7881C23.8019 53.7288 24.3841 53.6357 24.9578 53.4917C25.4955 53.3563 25.8702 52.7254 25.6966 52.1898C25.5167 51.6351 24.9705 51.3049 24.3946 51.451C24.1618 51.5102 23.9268 51.561 23.6897 51.6034C23.6368 51.6118 23.5838 51.6224 23.5309 51.6309C23.5182 51.633 23.2557 51.6775 23.4335 51.6478C23.6092 51.6182 23.351 51.6584 23.3361 51.6584C23.2557 51.6669 23.1774 51.6754 23.0969 51.6838C22.6185 51.7262 22.1358 51.7367 21.6552 51.7135C21.4139 51.7008 21.1747 51.6796 20.9355 51.6542C20.7386 51.633 20.946 51.6584 20.9778 51.6605C20.9122 51.6542 20.8444 51.6415 20.7788 51.6309C20.6475 51.6097 20.5142 51.5864 20.3829 51.561C19.896 51.4658 19.4176 51.3388 18.9476 51.1779C18.738 51.1059 18.4543 51.0487 18.2723 50.9217C18.2955 50.9386 18.4861 51.0148 18.304 50.9344C18.2553 50.9132 18.2066 50.8899 18.1579 50.8688C18.0246 50.8074 17.8912 50.7439 17.7599 50.6761C17.3196 50.4517 16.8941 50.1956 16.4897 49.9119C16.4029 49.8505 16.3161 49.787 16.2294 49.7235C16.0176 49.5689 16.3479 49.823 16.2209 49.7171C16.1701 49.6748 16.1171 49.6346 16.0642 49.5901C15.8779 49.4377 15.698 49.2768 15.5244 49.1095C15.3508 48.9423 15.1814 48.7687 15.0205 48.5888C14.9401 48.4977 14.8596 48.4067 14.7813 48.3135C14.739 48.2627 14.6966 48.2098 14.6543 48.1569C14.5125 47.9875 14.7644 48.3093 14.6225 48.1167C14.3367 47.725 14.07 47.3207 13.835 46.8952C13.7186 46.6835 13.6085 46.4654 13.5069 46.2473C13.4836 46.1987 13.4624 46.15 13.4391 46.0992C13.4349 46.0907 13.3333 45.8451 13.3968 46.0039C13.4603 46.1606 13.3629 45.915 13.3587 45.9065C13.3333 45.843 13.31 45.7816 13.2867 45.7181C13.1131 45.2502 12.9713 44.7718 12.8633 44.2849C12.8104 44.0478 12.7659 43.8086 12.7278 43.5693C12.7194 43.5164 12.7088 43.4614 12.7045 43.4084C12.7278 43.6583 12.7172 43.5037 12.7109 43.4487C12.6961 43.3005 12.6791 43.1544 12.6685 43.0062C12.6304 42.5087 12.6283 42.0091 12.6601 41.5137C12.6685 41.3931 12.6791 41.2724 12.6897 41.1517C12.6961 41.0903 12.713 40.6944 12.7067 40.9929C12.7109 40.7474 12.7913 40.4785 12.8464 40.2393C12.9565 39.746 13.1046 39.2612 13.2909 38.7913C13.3121 38.7404 13.3312 38.6875 13.3545 38.6367C13.2571 38.8442 13.3269 38.7045 13.346 38.66C13.4053 38.5351 13.4624 38.4081 13.5238 38.2853C13.636 38.063 13.7588 37.845 13.8901 37.6354C14.0192 37.4258 14.1568 37.2141 14.3113 37.0236C14.1483 37.2226 14.3918 36.9325 14.432 36.8859C14.5315 36.7716 14.6331 36.6615 14.739 36.5536C14.902 36.3885 15.0735 36.2297 15.2534 36.0836C15.3042 36.0434 15.4249 35.91 15.2661 36.0709C15.3 36.0349 15.3614 36.001 15.3995 35.9735C15.5117 35.8931 15.6281 35.8169 15.7467 35.747C15.8546 35.6814 15.9647 35.62 16.0769 35.5628C16.1341 35.5332 16.4813 35.3808 16.2463 35.476C16.4961 35.3765 16.748 35.2918 17.0084 35.2262C17.1312 35.1945 17.254 35.1691 17.3789 35.1458C17.4297 35.1373 17.4911 35.1204 17.544 35.1183C17.2963 35.1288 17.489 35.1267 17.5546 35.1204C17.8192 35.0971 18.0838 35.0907 18.3485 35.1077C18.4035 35.1119 18.4586 35.1183 18.5136 35.1204C18.7825 35.1373 18.3548 35.0865 18.52 35.1204C18.6427 35.1437 18.7655 35.1648 18.8862 35.1945C18.9942 35.2199 19.1 35.2516 19.2059 35.2855C19.2715 35.3067 19.335 35.3342 19.4006 35.3554C19.4726 35.3829 19.4536 35.3744 19.3414 35.3278C19.3795 35.3448 19.4176 35.3617 19.4557 35.3786C19.6568 35.4739 19.8515 35.5861 20.0357 35.7131C20.0484 35.7216 20.2432 35.874 20.1098 35.7639C19.9765 35.6539 20.167 35.8147 20.1776 35.8232C20.2728 35.9058 20.3617 35.9905 20.4507 36.0815C20.5205 36.1535 20.5883 36.2276 20.6518 36.3038C20.6624 36.3165 20.8063 36.5134 20.7089 36.3736C20.6116 36.2318 20.7513 36.4371 20.7597 36.4477C20.8889 36.634 21.0032 36.8288 21.1048 37.032C21.1323 37.0892 21.1577 37.1463 21.1853 37.2035C21.2572 37.3453 21.0963 36.96 21.181 37.195C21.2149 37.2903 21.2509 37.3834 21.2826 37.4808C21.361 37.7222 21.4139 37.9677 21.4605 38.2175C21.4795 38.3149 21.4308 38.3403 21.4541 38.1625C21.4499 38.2027 21.4647 38.2705 21.4689 38.3128C21.4795 38.4271 21.4838 38.5393 21.4859 38.6537C21.488 38.768 21.4859 38.8802 21.4795 38.9945C21.4774 39.0453 21.4732 39.0961 21.4689 39.1448C21.4647 39.1956 21.4605 39.2464 21.4541 39.2951C21.4605 39.2506 21.4647 39.2083 21.4711 39.1639C21.5028 39.3586 21.3716 39.6656 21.3144 39.854C21.2805 39.9662 21.2424 40.0784 21.2022 40.1885C21.1789 40.2499 21.1302 40.4256 21.2064 40.1906C21.1831 40.2647 21.1408 40.3367 21.109 40.4044C21.0117 40.6055 20.9016 40.7982 20.783 40.9866C20.7195 41.0861 20.6518 41.1835 20.584 41.2787C20.4612 41.4523 20.6052 41.2639 20.6073 41.2533C20.6031 41.2893 20.4803 41.4079 20.457 41.4354C20.3025 41.6153 20.1373 41.7868 19.9637 41.9477C19.8854 42.0197 19.8071 42.0896 19.7266 42.1573C19.7182 42.1636 19.5171 42.3288 19.6483 42.2229C19.769 42.1277 19.5573 42.2885 19.5319 42.3055C19.3371 42.4431 19.136 42.568 18.9285 42.6823C18.8248 42.7395 18.7189 42.7924 18.611 42.8432C18.5581 42.8686 18.503 42.8919 18.4501 42.9152C18.6745 42.8115 18.4099 42.9279 18.3781 42.9406C18.1325 43.0316 17.8827 43.1078 17.6266 43.1692C17.5144 43.1967 17.4001 43.2221 17.2857 43.2433C17.2138 43.256 17.1418 43.2687 17.0698 43.2814C17.0275 43.2878 16.983 43.2962 16.9407 43.3005C17.0634 43.2835 17.0846 43.2814 17.0042 43.2899C16.458 43.3365 15.9181 43.3619 15.3677 43.3344C15.0989 43.3195 14.83 43.2962 14.5633 43.2666C14.504 43.2603 14.4447 43.2518 14.3854 43.2454C14.6077 43.273 14.4447 43.2539 14.4003 43.2454C14.2521 43.2221 14.1039 43.1989 13.9557 43.1735C12.8929 42.9872 11.8408 42.7162 10.8098 42.3986C10.3123 42.2462 9.81906 42.0705 9.33638 41.8757C9.27075 41.8503 9.20512 41.8228 9.14161 41.7953C9.17549 41.8101 9.34273 41.8821 9.16067 41.8038C9.04423 41.7529 8.9278 41.7021 8.81348 41.6492C8.57002 41.5391 8.32868 41.4227 8.08946 41.2999C7.1601 40.8278 6.27095 40.2774 5.43474 39.6529C5.38181 39.6127 5.13201 39.4179 5.31407 39.5618C5.20398 39.475 5.0939 39.3861 4.98381 39.2972C4.78905 39.1363 4.5964 38.9712 4.40799 38.8018C4.00999 38.4441 3.62681 38.0694 3.26481 37.6756C2.91973 37.303 2.59371 36.9156 2.28252 36.5134C1.94168 36.073 1.13933 36.1281 0.785792 36.5134C0.358157 36.9855 0.423784 37.5465 0.785792 38.0164Z" fill="#33404F"/>
<path d="M103.907 39.5386H95.4689C94.0759 36.2487 92.0605 33.2172 89.5539 30.5476V8.85892C81.6215 8.85892 74.7667 13.4719 71.5255 20.1616C68.2653 19.336 64.8167 18.8893 61.2475 18.8893C41.1274 18.8893 24.8159 32.9737 24.8159 50.348C24.8159 59.1188 28.9737 67.0491 35.6783 72.7544V85.9582H50.2729V80.3523C53.7363 81.2965 57.422 81.8067 61.2475 81.8067C65.0729 81.8067 68.7586 81.2965 72.222 80.3523V85.6385H86.8167V72.7523C90.6167 69.5175 93.6017 65.5693 95.471 61.1574H103.909C106.014 61.1574 107.72 59.4511 107.72 57.3468V43.3471C107.718 41.2428 106.012 39.5386 103.907 39.5386Z" fill="white" stroke="#33404F" stroke-width="2.3185" stroke-miterlimit="10"/>
<path d="M80.1777 43.4423C81.4533 43.4423 82.4874 42.4082 82.4874 41.1326C82.4874 39.8571 81.4533 38.823 80.1777 38.823C78.9022 38.823 77.8681 39.8571 77.8681 41.1326C77.8681 42.4082 78.9022 43.4423 80.1777 43.4423Z" fill="#33404F"/>
<path d="M80.1778 56.6186C83.5579 56.6186 86.298 55.2148 86.298 53.4833C86.298 51.7517 83.5579 50.348 80.1778 50.348C76.7976 50.348 74.0575 51.7517 74.0575 53.4833C74.0575 55.2148 76.7976 56.6186 80.1778 56.6186Z" fill="#00DDA3"/>
<path d="M49.5722 29.2541C57.0219 25.5578 64.0842 25.742 70.8142 29.2541" stroke="#33404F" stroke-width="2.3185" stroke-miterlimit="10" stroke-linecap="round"/>
<path d="M60.1932 22.0678C65.9199 22.0678 70.5623 17.4253 70.5623 11.6987C70.5623 5.97196 65.9199 1.32956 60.1932 1.32956C54.4665 1.32956 49.8241 5.97196 49.8241 11.6987C49.8241 17.4253 54.4665 22.0678 60.1932 22.0678Z" fill="#00DDA3" stroke="#33404F" stroke-width="2.3185" stroke-miterlimit="10"/>
<path d="M60.1932 17.2621C63.2659 17.2621 65.7567 14.7713 65.7567 11.6987C65.7567 8.62602 63.2659 6.13516 60.1932 6.13516C57.1206 6.13516 54.6297 8.62602 54.6297 11.6987C54.6297 14.7713 57.1206 17.2621 60.1932 17.2621Z" fill="#00DDA3" stroke="#33404F" stroke-width="2.3185" stroke-miterlimit="10"/>
<path d="M46.4602 77.9364H26.4841C26.0163 77.9364 25.6373 77.5574 25.6373 77.0896V74.7799C25.6373 74.3121 26.0163 73.9331 26.4841 73.9331H46.4602C46.9281 73.9331 47.307 74.3121 47.307 74.7799V77.0896C47.307 77.5574 46.9259 77.9364 46.4602 77.9364Z" fill="#33404F"/>
<path d="M39.7916 82.6594H19.8156C19.3477 82.6594 18.9688 82.2805 18.9688 81.8126V79.503C18.9688 79.0351 19.3477 78.6562 19.8156 78.6562H39.7916C40.2595 78.6562 40.6384 79.0351 40.6384 79.503V81.8126C40.6384 82.2805 40.2595 82.6594 39.7916 82.6594Z" fill="#00DDA3" stroke="#33404F" stroke-width="2.3185" stroke-miterlimit="10"/>
<path d="M46.4602 87.3825H26.4841C26.0163 87.3825 25.6373 87.0035 25.6373 86.5357V84.226C25.6373 83.7581 26.0163 83.3792 26.4841 83.3792H46.4602C46.9281 83.3792 47.307 83.7581 47.307 84.226V86.5357C47.307 87.0035 46.9259 87.3825 46.4602 87.3825Z" fill="#33404F"/>
</svg>
