<svg width="938" height="686" viewBox="0 0 938 686" fill="none" xmlns="http://www.w3.org/2000/svg">
<g filter="url(#filter0_f_3_244)">
<path d="M732.654 652.329C771.72 640.53 842.841 608.288 868.402 584.424C897.877 559.447 848.998 529.36 841.744 525.149C834.49 520.938 369.124 288.868 306.949 261.495C244.775 234.123 85.6784 330.574 38.0053 357.051C-0.853911 378.634 26.6066 393.899 31.7878 398.11C36.9691 402.321 392.765 586.53 499.498 637.064C580.327 675.333 655.971 675.491 732.654 652.329Z" fill="black" fill-opacity="0.2"/>
</g>
<path fill-rule="evenodd" clip-rule="evenodd" d="M399.838 415.476L447.496 393.365L447.501 393.378C447.802 393.232 448.106 393.09 448.412 392.953C476.801 380.208 517.301 409.084 538.872 457.449C560.443 505.814 554.916 555.352 526.528 568.096C526.24 568.225 525.952 568.35 525.663 568.47L479.404 589.962L453.905 534.044C447.189 525.15 441.111 514.908 436.068 503.6C431.415 493.166 428.022 482.678 425.849 472.517L399.838 415.476Z" fill="black"/>
<ellipse cx="56.3665" cy="95.7734" rx="56.3665" ry="95.7734" transform="matrix(-0.911904 0.409419 0.407458 0.913666 452.642 391.945)" fill="black"/>
<g filter="url(#filter1_i_3_244)">
<ellipse cx="42.2769" cy="71.8334" rx="42.2769" ry="71.8334" transform="matrix(-0.911904 0.409419 0.407458 0.913666 447.919 419.635)" fill="url(#paint0_linear_3_244)"/>
</g>
<g filter="url(#filter2_di_3_244)">
<path fill-rule="evenodd" clip-rule="evenodd" d="M439.805 451.094C446.071 454.693 452.263 460.141 457.838 467.05L445.508 488.478C443.716 486.375 441.777 484.656 439.805 483.402L439.805 451.094ZM439.805 523.751C442.696 525.012 445.559 525.211 448.041 524.097C448.13 524.057 448.219 524.015 448.306 523.972L466.289 555.221C465.235 555.949 464.116 556.583 462.933 557.114C455.994 560.229 447.896 559.358 439.805 555.331L439.805 523.751ZM437.816 554.278L437.816 522.719C435.585 521.378 433.387 519.438 431.384 517.015L419.307 538.002C425.02 545.102 431.386 550.667 437.816 554.278ZM437.816 482.302L437.816 450.015C429.591 445.816 421.339 444.863 414.286 448.03C412.313 448.916 410.517 450.087 408.901 451.51L427.085 483.106C427.708 482.558 428.401 482.107 429.162 481.766C431.763 480.598 434.783 480.874 437.816 482.302ZM406.571 516.956C409.787 524.167 413.68 530.683 417.983 536.313L430.067 515.313C428.607 513.297 427.283 511.013 426.169 508.514C425.968 508.063 425.776 507.612 425.595 507.161L404.806 512.75C405.358 514.152 405.946 515.555 406.571 516.956ZM446.842 490.15L459.164 468.736C463.496 474.388 467.414 480.936 470.648 488.187C471.288 489.624 471.891 491.062 472.455 492.5L451.387 498.164C451.273 497.892 451.155 497.621 451.034 497.35C449.845 494.683 448.418 492.262 446.842 490.15ZM404.091 510.88C400.271 500.586 398.403 490.393 398.382 481.243L423.006 495.508C423.11 498.572 423.731 501.906 424.895 505.286L404.091 510.88ZM452.115 500.03C453.528 503.944 454.214 507.81 454.212 511.285L478.821 525.54C479.032 516.008 477.19 505.247 473.168 494.371L452.115 500.03ZM478.731 527.789L454.111 513.527C453.736 517.568 452.334 520.9 449.974 522.881L467.886 554.005C474.385 548.566 478.076 539.156 478.731 527.789ZM398.416 478.962L423.028 493.219C423.215 489.787 424.113 486.811 425.68 484.655L407.424 452.933C401.832 458.817 398.766 468.059 398.416 478.962Z" fill="#4C4C4C"/>
</g>
<path fill-rule="evenodd" clip-rule="evenodd" d="M454.005 533.212C447.242 524.281 441.123 513.984 436.05 502.609C431.37 492.114 427.965 481.563 425.793 471.345L399.862 414.479L447.403 392.423C447.731 392.262 448.063 392.107 448.397 391.957C476.785 379.211 517.282 408.087 538.851 456.452C560.419 504.818 554.891 554.359 526.503 567.105C526.357 567.17 526.211 567.235 526.065 567.298L479.429 588.965L454.005 533.212Z" fill="black"/>
<path d="M388.276 524.437C409.828 572.765 450.313 601.61 478.701 588.864C507.089 576.119 512.63 526.61 491.078 478.282C469.526 429.954 427.823 398.507 399.435 411.253C371.047 423.998 366.724 476.109 388.276 524.437Z" fill="black"/>
<g filter="url(#filter3_i_3_244)">
<ellipse cx="39.6239" cy="69.272" rx="39.6239" ry="69.272" transform="matrix(-0.939692 0.3422 0.316258 0.948659 454.437 423.296)" fill="url(#paint1_linear_3_244)"/>
</g>
<g filter="url(#filter4_di_3_244)">
<path fill-rule="evenodd" clip-rule="evenodd" d="M412.253 514.563C421.049 539.035 438.682 554.976 453.157 551.805L444.672 526.945C438.161 527.312 430.703 520.438 426.503 510.03L412.253 514.563ZM410.416 508.871C403.571 485.004 407.742 462.342 420.168 455.157L428.652 480.013C423.643 484.048 421.98 493.853 424.644 504.346L410.416 508.871ZM451.975 495.653C447.979 485.289 440.755 478.263 434.293 478.095L425.765 453.11C440.235 450.547 457.638 466.672 466.22 491.123L451.975 495.653ZM453.747 501.366L468.015 496.828C474.492 520.069 470.527 542.042 458.676 549.531L450.146 524.54C454.608 520.332 456.08 511.2 453.747 501.366Z" fill="#474747"/>
</g>
<path fill-rule="evenodd" clip-rule="evenodd" d="M62.7834 277.551L98.4856 260.986L98.4955 261.008C98.7248 260.897 98.9561 260.789 99.1894 260.684C120.456 251.137 150.796 272.769 166.956 309.001C183.116 345.233 178.976 382.344 157.709 391.891C157.406 392.027 157.101 392.157 156.794 392.28L122.39 408.265L103.269 366.335C98.2522 359.683 93.7113 352.026 89.942 343.574C86.4647 335.778 83.9273 327.941 82.2984 320.346L62.7834 277.551Z" fill="black"/>
<ellipse cx="42.2264" cy="71.7476" rx="42.2264" ry="71.7476" transform="matrix(-0.911904 0.409419 0.407458 0.913666 102.31 259.923)" fill="black"/>
<g filter="url(#filter5_i_3_244)">
<ellipse cx="31.6712" cy="53.8132" rx="31.6712" ry="53.8132" transform="matrix(-0.911904 0.409419 0.407458 0.913666 98.7718 280.664)" fill="url(#paint2_linear_3_244)"/>
</g>
<g filter="url(#filter6_di_3_244)">
<path fill-rule="evenodd" clip-rule="evenodd" d="M93.2027 304.524C97.7264 307.219 102.186 311.193 106.214 316.186L96.9781 332.237C95.7864 330.84 94.5081 329.668 93.2027 328.766L93.2027 304.524ZM93.2027 358.866C95.0985 359.587 96.9625 359.685 98.6157 359.033L112.13 382.516C111.463 382.947 110.764 383.328 110.032 383.657C104.976 385.926 99.0982 385.371 93.2027 382.563L93.2027 358.866ZM91.2134 381.531L91.2134 357.889C89.6693 356.96 88.1458 355.648 86.7393 354.021L77.6866 369.754C81.8786 374.875 86.5229 378.897 91.2134 381.531ZM91.2134 327.611L91.2134 303.424C85.0526 300.279 78.8718 299.566 73.5884 301.938C72.1102 302.601 70.7647 303.478 69.5546 304.544L83.1767 328.215C83.6441 327.805 84.1635 327.467 84.7338 327.211C86.6812 326.336 88.9427 326.542 91.2134 327.611ZM67.809 353.573C70.2182 358.975 73.1339 363.856 76.3575 368.074L85.4104 352.341C84.3171 350.831 83.3257 349.12 82.491 347.249C82.4098 347.066 82.3307 346.884 82.2537 346.702L66.673 350.891C67.0319 351.785 67.4105 352.679 67.809 353.573ZM98.2992 333.932L107.535 317.88C110.651 322.015 113.47 326.772 115.811 332.021C116.291 333.098 116.743 334.176 117.165 335.253L101.383 339.496C101.298 339.293 101.21 339.089 101.119 338.885C100.31 337.07 99.3531 335.407 98.2992 333.932ZM65.9514 349.022C63.1704 341.529 61.7704 334.106 61.6789 327.403L80.1507 338.103C80.2829 340.232 80.7404 342.517 81.5374 344.832L65.9514 349.022ZM102.095 341.368C103.042 344.138 103.502 346.865 103.5 349.328L121.934 360.007C122.09 353.003 120.765 345.114 117.872 337.126L102.095 341.368ZM121.831 362.249L103.364 351.551C103.013 354.331 101.985 356.618 100.324 358.012L113.742 381.328C118.504 377.343 121.253 370.512 121.831 362.249ZM61.6993 325.113L80.1377 335.795C80.2647 333.459 80.831 331.404 81.8137 329.836L68.0934 305.995C64.1285 310.417 61.9536 317.178 61.6993 325.113Z" fill="#4C4C4C"/>
</g>
<path fill-rule="evenodd" clip-rule="evenodd" d="M62.756 276.804L98.4583 260.24L98.4622 260.249C98.6882 260.139 98.9162 260.033 99.1463 259.929C120.413 250.382 150.753 272.014 166.912 308.246C183.072 344.478 178.932 381.589 157.665 391.137C157.457 391.23 157.247 391.321 157.037 391.408L122.363 407.519L103.257 365.622C98.2277 358.96 93.6758 351.289 89.8987 342.82C86.4137 335.006 83.8729 327.152 82.2444 319.541L62.756 276.804Z" fill="black"/>
<path d="M50.0648 353.465C59.6447 391.933 87.6695 418.021 112.66 411.735C137.65 405.448 150.143 369.167 140.563 330.699C130.983 292.231 102.396 264.065 77.4054 270.351C52.4149 276.638 40.4849 314.997 50.0648 353.465Z" fill="black"/>
<g filter="url(#filter7_i_3_244)">
<ellipse cx="29.6829" cy="51.896" rx="29.6829" ry="51.896" transform="matrix(-0.975616 0.21976 0.192989 0.981187 108.417 287.566)" fill="url(#paint3_linear_3_244)"/>
</g>
<g filter="url(#filter8_di_3_244)">
<path fill-rule="evenodd" clip-rule="evenodd" d="M68.7238 352.812C72.975 370.203 83.4109 382.658 93.7062 382.971L89.6985 363.337C85.6807 362.08 81.8638 357.296 79.8305 350.788L68.7238 352.812ZM67.5609 346.944C64.8843 329.437 69.5234 313.696 78.5351 308.645L82.5439 328.285C79.3138 331.406 77.7102 337.809 78.5762 344.937L67.5609 346.944ZM99.7118 341.086C97.7269 332.996 93.0209 327.085 88.2304 326.356L84.2754 306.98C95.2725 306.453 106.668 320.094 110.717 339.08L99.7118 341.086ZM100.608 347.002L111.707 344.979C113.824 362.263 108.801 377.461 99.5408 381.767L95.5862 362.393C99.0642 359.878 101.013 353.916 100.608 347.002Z" fill="#474747"/>
</g>
<g filter="url(#filter9_ii_3_244)">
<path d="M34.1494 319.999C34.8045 328.501 40.4197 334.767 46.379 338.827C46.8103 335.63 45.1566 334.194 48.4209 309.997C52.5012 279.75 76.0416 271.29 89.0392 274.134C103.812 277.367 117.04 289.581 124.985 309.996C131.487 326.701 135.363 336.031 140.216 374.811C145.369 381.14 380.259 500.617 379.501 497.886C377.52 490.743 377.471 456.959 384.58 440.486C398.542 408.129 420.338 411.214 432.052 413.005C444.469 414.903 473.325 430.056 488.307 460.549C512.067 508.906 506.159 541.752 512.066 559.033C514.004 564.703 608.497 600.504 642.103 608.938C726.131 633.99 844.814 548.635 867.2 532.104C889.587 515.573 891.408 466.965 888.119 412.997C888.169 381.455 881.421 365.104 876.594 360.071C853.323 335.804 797.852 296.331 762.864 277.675C676.612 183.587 671.204 171.919 641.658 157.554C581.768 128.437 337.912 29.3752 284.294 29.376C252.612 29.3766 141.073 65.4179 110.945 88.3924C86.8424 106.772 63.7551 147.719 51.683 174.133C49.3277 191.592 44.6433 247.289 39.7178 252.633C33.5609 259.314 33.3306 309.372 34.1494 319.999Z" fill="url(#paint4_linear_3_244)"/>
</g>
<mask id="mask0_3_244" style="mask-type:alpha" maskUnits="userSpaceOnUse" x="33" y="29" width="857" height="585">
<path d="M34.1586 319.999C34.8137 328.5 40.4289 334.767 46.3882 338.826C46.8195 335.629 45.1658 334.194 48.4301 309.997C52.5104 279.75 76.0508 271.29 89.0485 274.134C103.822 277.367 117.05 289.58 124.995 309.995C131.496 326.7 135.373 336.031 140.225 374.811C145.378 381.14 380.268 500.617 379.511 497.885C377.529 490.743 377.48 456.959 384.589 440.486C398.552 408.129 420.347 411.214 432.061 413.004C444.479 414.902 473.334 430.055 488.316 460.548C512.076 508.906 506.168 541.752 512.075 559.033C514.013 564.703 608.506 600.503 642.112 608.938C726.14 633.99 844.824 548.635 867.21 532.104C889.596 515.573 891.418 466.965 888.128 412.997C888.179 381.455 881.43 365.104 876.603 360.071C853.332 335.804 797.861 296.33 762.874 277.675C676.621 183.587 668.85 171.718 625.874 150.824C565.983 121.706 337.921 29.3749 284.304 29.3757C252.622 29.3762 141.083 65.4176 110.954 88.3921C86.8516 106.772 63.7643 147.719 51.6923 174.132C49.3369 191.592 44.6525 247.288 39.727 252.633C33.5702 259.313 33.3398 309.372 34.1586 319.999Z" fill="url(#paint5_linear_3_244)"/>
</mask>
<g mask="url(#mask0_3_244)">
<g filter="url(#filter10_dii_3_244)">
<path d="M702.481 474.22C679.472 475.875 636.957 480.624 595.074 454.82C592.436 453.195 588.178 456.91 589.534 459.695C596.946 474.913 606.202 494.759 614.715 499.203C629.165 506.748 670.62 520.938 710.347 513.786C710.482 513.762 710.614 513.745 710.751 513.75C714.973 513.896 725.749 522.308 735.315 525.998C750.34 530.173 816.118 494.451 832.699 485.077C867.704 465.287 879.664 450.781 881.528 446.94C884.439 440.94 882.479 428.54 883.058 424.67C883.552 421.371 886.745 414.185 887.675 412.14C887.843 411.772 887.93 411.387 887.926 410.983C887.898 407.941 887.638 393.995 885.216 382.934C885.172 382.735 885.15 382.53 885.149 382.327C885.063 362.174 876.517 348.45 876.52 358.975C876.52 373.545 872.747 391.052 862.166 399.419C861.998 399.552 861.914 399.634 861.744 399.764C856.3 403.941 733.679 471.977 702.481 474.22Z" fill="#141414"/>
</g>
<g filter="url(#filter11_dii_3_244)">
<path d="M702.49 474.222C679.48 475.875 636.964 480.621 595.077 454.815C592.44 453.19 588.181 456.904 589.538 459.689C596.951 474.907 606.209 494.752 614.722 499.197C629.174 506.743 670.631 520.936 710.359 513.787C710.494 513.762 710.626 513.746 710.763 513.75C714.986 513.896 725.763 522.31 735.329 526C750.355 530.176 816.133 494.46 832.714 485.088C867.718 465.301 879.678 450.797 881.542 446.956C884.453 440.956 882.491 428.556 883.07 424.687C883.564 421.387 886.757 414.203 887.687 412.158C887.854 411.79 887.941 411.405 887.937 411.001C887.909 407.958 887.648 394.013 885.225 382.952C885.181 382.753 885.159 382.549 885.158 382.345C885.07 362.193 876.523 348.469 876.527 358.993C876.528 373.563 872.756 391.07 862.176 399.435C862.008 399.568 861.924 399.65 861.754 399.78C856.31 403.957 733.689 471.981 702.49 474.222Z" fill="#141414"/>
</g>
<mask id="mask1_3_244" style="mask-type:alpha" maskUnits="userSpaceOnUse" x="589" y="355" width="299" height="172">
<path d="M702.49 474.222C679.48 475.875 636.964 480.621 595.077 454.815C592.44 453.19 588.181 456.904 589.538 459.689C596.951 474.907 606.209 494.752 614.722 499.197C629.174 506.743 670.631 520.936 710.359 513.787C710.494 513.762 710.626 513.746 710.763 513.75C714.986 513.896 725.763 522.31 735.329 526C750.355 530.176 816.133 494.46 832.714 485.088C867.718 465.301 881.208 449.683 883.072 445.842C885.983 439.843 882.491 427.86 883.07 423.991C883.558 420.735 886.674 414.186 887.649 412.193C887.84 411.804 887.941 411.386 887.937 410.953C887.907 407.816 887.636 393.957 885.225 382.952C885.181 382.753 885.159 382.549 885.158 382.345C885.07 362.193 876.523 348.469 876.527 358.993C876.528 373.563 872.756 391.07 862.176 399.435C862.008 399.568 861.924 399.65 861.754 399.78C856.31 403.957 733.689 471.981 702.49 474.222Z" fill="#211F1F"/>
</mask>
<g mask="url(#mask1_3_244)">
<g filter="url(#filter12_dii_3_244)">
<path d="M702.49 474.222C679.48 475.875 636.964 480.621 595.077 454.815C592.44 453.19 588.181 456.904 589.538 459.689C596.951 474.907 606.209 494.752 614.722 499.197C629.174 506.743 670.631 520.936 710.359 513.787C710.494 513.762 710.626 513.746 710.763 513.75C714.986 513.896 725.763 522.31 735.329 526C750.355 530.176 816.133 494.46 832.714 485.088C867.718 465.301 878.982 451.214 880.846 447.373C883.757 441.373 881.796 427.999 882.375 424.13C882.859 420.897 886.421 414.32 887.578 412.246C887.815 411.822 887.941 411.35 887.936 410.865C887.901 407.563 887.614 393.856 885.225 382.952C885.181 382.753 885.159 382.549 885.158 382.345C885.07 362.193 876.523 348.469 876.527 358.993C876.528 373.563 872.756 391.07 862.176 399.435C862.008 399.568 861.924 399.65 861.754 399.78C856.31 403.957 733.689 471.981 702.49 474.222Z" fill="#141414"/>
</g>
<g filter="url(#filter13_d_3_244)">
<path d="M857.658 392.287L875.043 366.791C875.194 367.017 875.359 367.27 875.534 367.55C876.366 368.881 877.411 370.793 878.264 373.11C879.97 377.746 880.882 383.922 877.886 390.346C877.018 392.208 875.356 394.225 873.471 395.396C871.605 396.555 869.757 396.773 868.154 395.608C867.221 394.93 865.956 394.386 864.664 393.948C863.353 393.504 861.93 393.142 860.627 392.857C859.517 392.614 858.481 392.425 857.658 392.287Z" stroke="white" stroke-opacity="0.5" stroke-width="2.3206"/>
</g>
<g filter="url(#filter14_d_3_244)">
<path d="M629.475 465.85L707.586 467.027C707.601 467.07 707.617 467.114 707.633 467.16C707.85 467.788 708.126 468.7 708.353 469.81C708.81 472.041 709.059 475.012 708.294 478.089C707.537 481.137 705.773 484.346 702.101 487.096C698.406 489.864 692.707 492.217 684.011 493.384C678.839 494.078 671.691 494.052 664.348 492.659C657.001 491.264 649.559 488.52 643.712 483.857C640.545 481.332 636.669 476.357 633.521 471.883C631.964 469.67 630.613 467.62 629.651 466.124C629.59 466.031 629.532 465.939 629.475 465.85ZM707.274 466.223C707.274 466.222 707.274 466.222 707.274 466.223L707.274 466.223Z" stroke="white" stroke-opacity="0.5" stroke-width="2.78472"/>
</g>
</g>
<g filter="url(#filter15_ddi_3_244)">
<path d="M526.122 376.449C505.232 367.8 480.65 293.72 454.726 248.581C452.946 245.483 454.276 241.502 457.593 240.173L646.73 164.384C648.163 163.81 649.747 163.868 651.025 164.735C657.207 168.927 678.756 186.193 734.345 251.796C751.389 271.91 753.901 274.409 762.429 283.756C763.697 285.145 759.153 291.751 754.715 295.41C736.458 310.463 576.31 397.226 526.122 376.449Z" fill="url(#paint6_linear_3_244)"/>
</g>
<g filter="url(#filter16_di_3_244)">
<path d="M424.642 250.036C392.771 232.733 318.375 197.507 296.035 186.983C292.742 185.432 288.889 187.355 288.192 190.927C284.368 210.504 274.287 264.695 279.282 267.458C395.042 331.521 434.064 350.564 440.114 353.467C450.277 358.344 474.576 373.785 470.271 361.236C463.543 341.629 443.932 260.508 424.642 250.036Z" fill="url(#paint7_linear_3_244)"/>
</g>
<g filter="url(#filter17_f_3_244)">
<path d="M598.749 445.399C552.681 425.674 526.347 399.948 498.241 376.556C580.468 398.224 752.646 445.877 750.079 449.4C746.87 453.804 734.776 459.283 694.157 463.275C654.166 467.205 604.024 447.657 598.749 445.399Z" fill="url(#paint8_linear_3_244)" fill-opacity="0.21"/>
</g>
<path d="M680.855 336.799L530.514 209.651C516.533 215.497 472.355 233.845 465.874 236.28C457.476 239.435 453.882 242.133 453.882 242.133C452.273 243.742 451.115 242.141 453.882 247.107C458.854 256.033 465.98 270.805 476.257 292.612C494.392 331.093 511.637 372.987 527.297 377.621C548.064 383.766 581.75 375.512 608.609 366.647C632.618 358.723 663.047 344.036 680.855 336.799Z" fill="#C4C4C4" fill-opacity="0.2"/>
<g filter="url(#filter18_di_3_244)">
<path d="M306.583 320.771C306.583 320.201 306.258 319.68 305.746 319.431L284.779 309.232C283.793 308.753 282.649 309.47 282.649 310.567L282.649 315.072C282.649 315.643 282.975 316.164 283.489 316.413L304.455 326.571C305.441 327.048 306.583 326.33 306.583 325.235L306.583 320.771Z" fill="#323232"/>
</g>
<g filter="url(#filter19_di_3_244)">
<path d="M230.273 283.468C230.273 282.898 229.947 282.378 229.435 282.129L208.468 271.93C207.483 271.45 206.338 272.168 206.338 273.265L206.339 277.77C206.339 278.341 206.665 278.862 207.178 279.111L228.145 289.268C229.13 289.746 230.273 289.028 230.273 287.932L230.273 283.468Z" fill="#323232"/>
</g>
<g filter="url(#filter20_di_3_244)">
<path d="M128.056 105.113L262.063 170.882C264.531 172.093 265.772 174.908 265.064 177.564C262.204 188.285 255.304 216.695 252.429 250.886C251.999 256.001 126.11 194.376 111.641 182.685C96.5465 170.488 108.212 129.228 121.033 107.129C122.449 104.689 125.523 103.87 128.056 105.113Z" fill="url(#paint9_linear_3_244)"/>
</g>
<g filter="url(#filter21_di_3_244)">
<path d="M98.4726 124.447C110.949 103.388 112.225 95.7591 104.26 94.5171C93.6949 100.287 62.6291 143.263 57.3481 162.856C56.3456 166.575 64.2657 165.315 72.9436 159.185C81.6214 153.055 82.8776 150.771 98.4726 124.447Z" fill="url(#paint10_linear_3_244)"/>
</g>
<g filter="url(#filter22_f_3_244)">
<path d="M89.7706 241.405L87.4725 240.235C88.2461 240.605 89.0122 240.995 89.7706 241.405L414.681 406.702C405.954 410.304 379.067 425.487 379.067 462.376L146.459 344.903C147.022 332.185 128.2 262.139 89.7706 241.405Z" fill="url(#paint11_linear_3_244)"/>
</g>
</g>
<defs>
<filter id="filter0_f_3_244" x="0.181074" y="239.298" width="894.941" height="446.158" filterUnits="userSpaceOnUse" color-interpolation-filters="sRGB">
<feFlood flood-opacity="0" result="BackgroundImageFix"/>
<feBlend mode="normal" in="SourceGraphic" in2="BackgroundImageFix" result="shape"/>
<feGaussianBlur stdDeviation="8.67815" result="effect1_foregroundBlur_3_244"/>
</filter>
<filter id="filter1_i_3_244" x="390.229" y="434.683" width="96.8138" height="135.785" filterUnits="userSpaceOnUse" color-interpolation-filters="sRGB">
<feFlood flood-opacity="0" result="BackgroundImageFix"/>
<feBlend mode="normal" in="SourceGraphic" in2="BackgroundImageFix" result="shape"/>
<feColorMatrix in="SourceAlpha" type="matrix" values="0 0 0 0 0 0 0 0 0 0 0 0 0 0 0 0 0 0 127 0" result="hardAlpha"/>
<feMorphology radius="0.995302" operator="erode" in="SourceAlpha" result="effect1_innerShadow_3_244"/>
<feOffset/>
<feGaussianBlur stdDeviation="0.497651"/>
<feComposite in2="hardAlpha" operator="arithmetic" k2="-1" k3="1"/>
<feColorMatrix type="matrix" values="0 0 0 0 0 0 0 0 0 0 0 0 0 0 0 0 0 0 0.25 0"/>
<feBlend mode="normal" in2="shape" result="effect1_innerShadow_3_244"/>
</filter>
<filter id="filter2_di_3_244" x="395.396" y="445.952" width="84.0379" height="115.031" filterUnits="userSpaceOnUse" color-interpolation-filters="sRGB">
<feFlood flood-opacity="0" result="BackgroundImageFix"/>
<feColorMatrix in="SourceAlpha" type="matrix" values="0 0 0 0 0 0 0 0 0 0 0 0 0 0 0 0 0 0 127 0" result="hardAlpha"/>
<feOffset dy="0.398121"/>
<feGaussianBlur stdDeviation="0.298591"/>
<feColorMatrix type="matrix" values="0 0 0 0 1 0 0 0 0 1 0 0 0 0 1 0 0 0 0.41 0"/>
<feBlend mode="normal" in2="BackgroundImageFix" result="effect1_dropShadow_3_244"/>
<feBlend mode="normal" in="SourceGraphic" in2="effect1_dropShadow_3_244" result="shape"/>
<feColorMatrix in="SourceAlpha" type="matrix" values="0 0 0 0 0 0 0 0 0 0 0 0 0 0 0 0 0 0 127 0" result="hardAlpha"/>
<feOffset dx="-2.9859" dy="1.9906"/>
<feGaussianBlur stdDeviation="1.49295"/>
<feComposite in2="hardAlpha" operator="arithmetic" k2="-1" k3="1"/>
<feColorMatrix type="matrix" values="0 0 0 0 0 0 0 0 0 0 0 0 0 0 0 0 0 0 0.25 0"/>
<feBlend mode="normal" in2="shape" result="effect2_innerShadow_3_244"/>
</filter>
<filter id="filter3_i_3_244" x="395.902" y="435.457" width="86.4162" height="134.226" filterUnits="userSpaceOnUse" color-interpolation-filters="sRGB">
<feFlood flood-opacity="0" result="BackgroundImageFix"/>
<feBlend mode="normal" in="SourceGraphic" in2="BackgroundImageFix" result="shape"/>
<feColorMatrix in="SourceAlpha" type="matrix" values="0 0 0 0 0 0 0 0 0 0 0 0 0 0 0 0 0 0 127 0" result="hardAlpha"/>
<feMorphology radius="0.730773" operator="erode" in="SourceAlpha" result="effect1_innerShadow_3_244"/>
<feOffset/>
<feGaussianBlur stdDeviation="0.365387"/>
<feComposite in2="hardAlpha" operator="arithmetic" k2="-1" k3="1"/>
<feColorMatrix type="matrix" values="0 0 0 0 0 0 0 0 0 0 0 0 0 0 0 0 0 0 0.25 0"/>
<feBlend mode="normal" in2="shape" result="effect1_innerShadow_3_244"/>
</filter>
<filter id="filter4_di_3_244" x="404.152" y="452.644" width="67.5542" height="101.553" filterUnits="userSpaceOnUse" color-interpolation-filters="sRGB">
<feFlood flood-opacity="0" result="BackgroundImageFix"/>
<feColorMatrix in="SourceAlpha" type="matrix" values="0 0 0 0 0 0 0 0 0 0 0 0 0 0 0 0 0 0 127 0" result="hardAlpha"/>
<feOffset dy="0.398121"/>
<feGaussianBlur stdDeviation="0.298591"/>
<feColorMatrix type="matrix" values="0 0 0 0 1 0 0 0 0 1 0 0 0 0 1 0 0 0 0.41 0"/>
<feBlend mode="normal" in2="BackgroundImageFix" result="effect1_dropShadow_3_244"/>
<feBlend mode="normal" in="SourceGraphic" in2="effect1_dropShadow_3_244" result="shape"/>
<feColorMatrix in="SourceAlpha" type="matrix" values="0 0 0 0 0 0 0 0 0 0 0 0 0 0 0 0 0 0 127 0" result="hardAlpha"/>
<feOffset dx="-2.9859" dy="1.9906"/>
<feGaussianBlur stdDeviation="1.49295"/>
<feComposite in2="hardAlpha" operator="arithmetic" k2="-1" k3="1"/>
<feColorMatrix type="matrix" values="0 0 0 0 0 0 0 0 0 0 0 0 0 0 0 0 0 0 0.25 0"/>
<feBlend mode="normal" in2="shape" result="effect2_innerShadow_3_244"/>
</filter>
<filter id="filter5_i_3_244" x="55.5539" y="291.938" width="72.5269" height="101.722" filterUnits="userSpaceOnUse" color-interpolation-filters="sRGB">
<feFlood flood-opacity="0" result="BackgroundImageFix"/>
<feBlend mode="normal" in="SourceGraphic" in2="BackgroundImageFix" result="shape"/>
<feColorMatrix in="SourceAlpha" type="matrix" values="0 0 0 0 0 0 0 0 0 0 0 0 0 0 0 0 0 0 127 0" result="hardAlpha"/>
<feMorphology radius="0.995302" operator="erode" in="SourceAlpha" result="effect1_innerShadow_3_244"/>
<feOffset/>
<feGaussianBlur stdDeviation="0.497651"/>
<feComposite in2="hardAlpha" operator="arithmetic" k2="-1" k3="1"/>
<feColorMatrix type="matrix" values="0 0 0 0 0 0 0 0 0 0 0 0 0 0 0 0 0 0 0.25 0"/>
<feBlend mode="normal" in2="shape" result="effect1_innerShadow_3_244"/>
</filter>
<filter id="filter6_di_3_244" x="58.693" y="300.331" width="63.8503" height="86.7234" filterUnits="userSpaceOnUse" color-interpolation-filters="sRGB">
<feFlood flood-opacity="0" result="BackgroundImageFix"/>
<feColorMatrix in="SourceAlpha" type="matrix" values="0 0 0 0 0 0 0 0 0 0 0 0 0 0 0 0 0 0 127 0" result="hardAlpha"/>
<feOffset dy="0.398121"/>
<feGaussianBlur stdDeviation="0.298591"/>
<feColorMatrix type="matrix" values="0 0 0 0 1 0 0 0 0 1 0 0 0 0 1 0 0 0 0.41 0"/>
<feBlend mode="normal" in2="BackgroundImageFix" result="effect1_dropShadow_3_244"/>
<feBlend mode="normal" in="SourceGraphic" in2="effect1_dropShadow_3_244" result="shape"/>
<feColorMatrix in="SourceAlpha" type="matrix" values="0 0 0 0 0 0 0 0 0 0 0 0 0 0 0 0 0 0 127 0" result="hardAlpha"/>
<feOffset dx="-2.9859" dy="1.9906"/>
<feGaussianBlur stdDeviation="1.49295"/>
<feComposite in2="hardAlpha" operator="arithmetic" k2="-1" k3="1"/>
<feColorMatrix type="matrix" values="0 0 0 0 0 0 0 0 0 0 0 0 0 0 0 0 0 0 0.25 0"/>
<feBlend mode="normal" in2="shape" result="effect2_innerShadow_3_244"/>
</filter>
<filter id="filter7_i_3_244" x="58.8226" y="293.667" width="61.3008" height="102.683" filterUnits="userSpaceOnUse" color-interpolation-filters="sRGB">
<feFlood flood-opacity="0" result="BackgroundImageFix"/>
<feBlend mode="normal" in="SourceGraphic" in2="BackgroundImageFix" result="shape"/>
<feColorMatrix in="SourceAlpha" type="matrix" values="0 0 0 0 0 0 0 0 0 0 0 0 0 0 0 0 0 0 127 0" result="hardAlpha"/>
<feMorphology radius="0.730773" operator="erode" in="SourceAlpha" result="effect1_innerShadow_3_244"/>
<feOffset/>
<feGaussianBlur stdDeviation="0.365387"/>
<feComposite in2="hardAlpha" operator="arithmetic" k2="-1" k3="1"/>
<feColorMatrix type="matrix" values="0 0 0 0 0 0 0 0 0 0 0 0 0 0 0 0 0 0 0.25 0"/>
<feBlend mode="normal" in2="shape" result="effect1_innerShadow_3_244"/>
</filter>
<filter id="filter8_di_3_244" x="63.8215" y="306.766" width="48.9635" height="78.1955" filterUnits="userSpaceOnUse" color-interpolation-filters="sRGB">
<feFlood flood-opacity="0" result="BackgroundImageFix"/>
<feColorMatrix in="SourceAlpha" type="matrix" values="0 0 0 0 0 0 0 0 0 0 0 0 0 0 0 0 0 0 127 0" result="hardAlpha"/>
<feOffset dy="0.398121"/>
<feGaussianBlur stdDeviation="0.298591"/>
<feColorMatrix type="matrix" values="0 0 0 0 1 0 0 0 0 1 0 0 0 0 1 0 0 0 0.41 0"/>
<feBlend mode="normal" in2="BackgroundImageFix" result="effect1_dropShadow_3_244"/>
<feBlend mode="normal" in="SourceGraphic" in2="effect1_dropShadow_3_244" result="shape"/>
<feColorMatrix in="SourceAlpha" type="matrix" values="0 0 0 0 0 0 0 0 0 0 0 0 0 0 0 0 0 0 127 0" result="hardAlpha"/>
<feOffset dx="-2.9859" dy="1.9906"/>
<feGaussianBlur stdDeviation="1.49295"/>
<feComposite in2="hardAlpha" operator="arithmetic" k2="-1" k3="1"/>
<feColorMatrix type="matrix" values="0 0 0 0 0 0 0 0 0 0 0 0 0 0 0 0 0 0 0.25 0"/>
<feBlend mode="normal" in2="shape" result="effect2_innerShadow_3_244"/>
</filter>
<filter id="filter9_ii_3_244" x="33.8082" y="21.9453" width="861.156" height="591.562" filterUnits="userSpaceOnUse" color-interpolation-filters="sRGB">
<feFlood flood-opacity="0" result="BackgroundImageFix"/>
<feBlend mode="normal" in="SourceGraphic" in2="BackgroundImageFix" result="shape"/>
<feColorMatrix in="SourceAlpha" type="matrix" values="0 0 0 0 0 0 0 0 0 0 0 0 0 0 0 0 0 0 127 0" result="hardAlpha"/>
<feOffset dx="5.57307" dy="-7.43076"/>
<feGaussianBlur stdDeviation="22.2923"/>
<feComposite in2="hardAlpha" operator="arithmetic" k2="-1" k3="1"/>
<feColorMatrix type="matrix" values="0 0 0 0 0 0 0 0 0 0 0 0 0 0 0 0 0 0 0.07 0"/>
<feBlend mode="normal" in2="shape" result="effect1_innerShadow_3_244"/>
<feColorMatrix in="SourceAlpha" type="matrix" values="0 0 0 0 0 0 0 0 0 0 0 0 0 0 0 0 0 0 127 0" result="hardAlpha"/>
<feOffset dy="-0.928845"/>
<feGaussianBlur stdDeviation="1.85769"/>
<feComposite in2="hardAlpha" operator="arithmetic" k2="-1" k3="1"/>
<feColorMatrix type="matrix" values="0 0 0 0 0 0 0 0 0 0 0 0 0 0 0 0 0 0 0.25 0"/>
<feBlend mode="normal" in2="effect1_innerShadow_3_244" result="effect2_innerShadow_3_244"/>
</filter>
<filter id="filter10_dii_3_244" x="586.299" y="353.06" width="304.602" height="176.945" filterUnits="userSpaceOnUse" color-interpolation-filters="sRGB">
<feFlood flood-opacity="0" result="BackgroundImageFix"/>
<feColorMatrix in="SourceAlpha" type="matrix" values="0 0 0 0 0 0 0 0 0 0 0 0 0 0 0 0 0 0 127 0" result="hardAlpha"/>
<feOffset dy="0.694325"/>
<feGaussianBlur stdDeviation="1.48756"/>
<feColorMatrix type="matrix" values="0 0 0 0 0 0 0 0 0 0 0 0 0 0 0 0 0 0 0.63 0"/>
<feBlend mode="normal" in2="BackgroundImageFix" result="effect1_dropShadow_3_244"/>
<feBlend mode="normal" in="SourceGraphic" in2="effect1_dropShadow_3_244" result="shape"/>
<feColorMatrix in="SourceAlpha" type="matrix" values="0 0 0 0 0 0 0 0 0 0 0 0 0 0 0 0 0 0 127 0" result="hardAlpha"/>
<feOffset dy="0.694325"/>
<feGaussianBlur stdDeviation="0.694325"/>
<feComposite in2="hardAlpha" operator="arithmetic" k2="-1" k3="1"/>
<feColorMatrix type="matrix" values="0 0 0 0 0 0 0 0 0 0 0 0 0 0 0 0 0 0 0.25 0"/>
<feBlend mode="normal" in2="shape" result="effect2_innerShadow_3_244"/>
<feColorMatrix in="SourceAlpha" type="matrix" values="0 0 0 0 0 0 0 0 0 0 0 0 0 0 0 0 0 0 127 0" result="hardAlpha"/>
<feOffset dy="-0.694325"/>
<feGaussianBlur stdDeviation="0.694325"/>
<feComposite in2="hardAlpha" operator="arithmetic" k2="-1" k3="1"/>
<feColorMatrix type="matrix" values="0 0 0 0 0 0 0 0 0 0 0 0 0 0 0 0 0 0 0.25 0"/>
<feBlend mode="normal" in2="effect2_innerShadow_3_244" result="effect3_innerShadow_3_244"/>
</filter>
<filter id="filter11_dii_3_244" x="586.302" y="353.079" width="304.61" height="176.929" filterUnits="userSpaceOnUse" color-interpolation-filters="sRGB">
<feFlood flood-opacity="0" result="BackgroundImageFix"/>
<feColorMatrix in="SourceAlpha" type="matrix" values="0 0 0 0 0 0 0 0 0 0 0 0 0 0 0 0 0 0 127 0" result="hardAlpha"/>
<feOffset dy="0.694325"/>
<feGaussianBlur stdDeviation="1.48756"/>
<feColorMatrix type="matrix" values="0 0 0 0 0 0 0 0 0 0 0 0 0 0 0 0 0 0 0.63 0"/>
<feBlend mode="normal" in2="BackgroundImageFix" result="effect1_dropShadow_3_244"/>
<feBlend mode="normal" in="SourceGraphic" in2="effect1_dropShadow_3_244" result="shape"/>
<feColorMatrix in="SourceAlpha" type="matrix" values="0 0 0 0 0 0 0 0 0 0 0 0 0 0 0 0 0 0 127 0" result="hardAlpha"/>
<feOffset dy="0.694325"/>
<feGaussianBlur stdDeviation="0.694325"/>
<feComposite in2="hardAlpha" operator="arithmetic" k2="-1" k3="1"/>
<feColorMatrix type="matrix" values="0 0 0 0 0 0 0 0 0 0 0 0 0 0 0 0 0 0 0.25 0"/>
<feBlend mode="normal" in2="shape" result="effect2_innerShadow_3_244"/>
<feColorMatrix in="SourceAlpha" type="matrix" values="0 0 0 0 0 0 0 0 0 0 0 0 0 0 0 0 0 0 127 0" result="hardAlpha"/>
<feOffset dy="-0.694325"/>
<feGaussianBlur stdDeviation="0.694325"/>
<feComposite in2="hardAlpha" operator="arithmetic" k2="-1" k3="1"/>
<feColorMatrix type="matrix" values="0 0 0 0 0 0 0 0 0 0 0 0 0 0 0 0 0 0 0.25 0"/>
<feBlend mode="normal" in2="effect2_innerShadow_3_244" result="effect3_innerShadow_3_244"/>
</filter>
<filter id="filter12_dii_3_244" x="586.302" y="353.079" width="304.609" height="176.929" filterUnits="userSpaceOnUse" color-interpolation-filters="sRGB">
<feFlood flood-opacity="0" result="BackgroundImageFix"/>
<feColorMatrix in="SourceAlpha" type="matrix" values="0 0 0 0 0 0 0 0 0 0 0 0 0 0 0 0 0 0 127 0" result="hardAlpha"/>
<feOffset dy="0.694325"/>
<feGaussianBlur stdDeviation="1.48756"/>
<feColorMatrix type="matrix" values="0 0 0 0 0 0 0 0 0 0 0 0 0 0 0 0 0 0 0.63 0"/>
<feBlend mode="normal" in2="BackgroundImageFix" result="effect1_dropShadow_3_244"/>
<feBlend mode="normal" in="SourceGraphic" in2="effect1_dropShadow_3_244" result="shape"/>
<feColorMatrix in="SourceAlpha" type="matrix" values="0 0 0 0 0 0 0 0 0 0 0 0 0 0 0 0 0 0 127 0" result="hardAlpha"/>
<feOffset dy="0.694325"/>
<feGaussianBlur stdDeviation="0.694325"/>
<feComposite in2="hardAlpha" operator="arithmetic" k2="-1" k3="1"/>
<feColorMatrix type="matrix" values="0 0 0 0 0 0 0 0 0 0 0 0 0 0 0 0 0 0 0.25 0"/>
<feBlend mode="normal" in2="shape" result="effect2_innerShadow_3_244"/>
<feColorMatrix in="SourceAlpha" type="matrix" values="0 0 0 0 0 0 0 0 0 0 0 0 0 0 0 0 0 0 127 0" result="hardAlpha"/>
<feOffset dy="-0.694325"/>
<feGaussianBlur stdDeviation="0.694325"/>
<feComposite in2="hardAlpha" operator="arithmetic" k2="-1" k3="1"/>
<feColorMatrix type="matrix" values="0 0 0 0 0 0 0 0 0 0 0 0 0 0 0 0 0 0 0.25 0"/>
<feBlend mode="normal" in2="effect2_innerShadow_3_244" result="effect3_innerShadow_3_244"/>
</filter>
<filter id="filter13_d_3_244" x="855.659" y="364.774" width="27.7119" height="35.1341" filterUnits="userSpaceOnUse" color-interpolation-filters="sRGB">
<feFlood flood-opacity="0" result="BackgroundImageFix"/>
<feColorMatrix in="SourceAlpha" type="matrix" values="0 0 0 0 0 0 0 0 0 0 0 0 0 0 0 0 0 0 127 0" result="hardAlpha"/>
<feOffset dx="1.39236" dy="1.39236"/>
<feGaussianBlur stdDeviation="0.486926"/>
<feColorMatrix type="matrix" values="0 0 0 0 1 0 0 0 0 1 0 0 0 0 1 0 0 0 0.24 0"/>
<feBlend mode="normal" in2="BackgroundImageFix" result="effect1_dropShadow_3_244"/>
<feBlend mode="normal" in="SourceGraphic" in2="effect1_dropShadow_3_244" result="shape"/>
</filter>
<filter id="filter14_d_3_244" x="625.541" y="464.419" width="87.8848" height="35.4444" filterUnits="userSpaceOnUse" color-interpolation-filters="sRGB">
<feFlood flood-opacity="0" result="BackgroundImageFix"/>
<feColorMatrix in="SourceAlpha" type="matrix" values="0 0 0 0 0 0 0 0 0 0 0 0 0 0 0 0 0 0 127 0" result="hardAlpha"/>
<feOffset dx="0.928239" dy="2.3206"/>
<feGaussianBlur stdDeviation="1.1603"/>
<feColorMatrix type="matrix" values="0 0 0 0 1 0 0 0 0 1 0 0 0 0 1 0 0 0 0.24 0"/>
<feBlend mode="normal" in2="BackgroundImageFix" result="effect1_dropShadow_3_244"/>
<feBlend mode="normal" in="SourceGraphic" in2="effect1_dropShadow_3_244" result="shape"/>
</filter>
<filter id="filter15_ddi_3_244" x="450.963" y="161.78" width="313.168" height="220.092" filterUnits="userSpaceOnUse" color-interpolation-filters="sRGB">
<feFlood flood-opacity="0" result="BackgroundImageFix"/>
<feColorMatrix in="SourceAlpha" type="matrix" values="0 0 0 0 0 0 0 0 0 0 0 0 0 0 0 0 0 0 127 0" result="hardAlpha"/>
<feOffset dx="-1.48533" dy="0.742667"/>
<feGaussianBlur stdDeviation="0.742667"/>
<feColorMatrix type="matrix" values="0 0 0 0 1 0 0 0 0 1 0 0 0 0 1 0 0 0 0.28 0"/>
<feBlend mode="normal" in2="BackgroundImageFix" result="effect1_dropShadow_3_244"/>
<feColorMatrix in="SourceAlpha" type="matrix" values="0 0 0 0 0 0 0 0 0 0 0 0 0 0 0 0 0 0 127 0" result="hardAlpha"/>
<feOffset dy="-0.742667"/>
<feGaussianBlur stdDeviation="0.742667"/>
<feColorMatrix type="matrix" values="0 0 0 0 1 0 0 0 0 1 0 0 0 0 1 0 0 0 0.56 0"/>
<feBlend mode="normal" in2="effect1_dropShadow_3_244" result="effect2_dropShadow_3_244"/>
<feBlend mode="normal" in="SourceGraphic" in2="effect2_dropShadow_3_244" result="shape"/>
<feColorMatrix in="SourceAlpha" type="matrix" values="0 0 0 0 0 0 0 0 0 0 0 0 0 0 0 0 0 0 127 0" result="hardAlpha"/>
<feOffset dx="-0.742667" dy="2.228"/>
<feGaussianBlur stdDeviation="1.114"/>
<feComposite in2="hardAlpha" operator="arithmetic" k2="-1" k3="1"/>
<feColorMatrix type="matrix" values="0 0 0 0 0 0 0 0 0 0 0 0 0 0 0 0 0 0 0.75 0"/>
<feBlend mode="normal" in2="shape" result="effect3_innerShadow_3_244"/>
</filter>
<filter id="filter16_di_3_244" x="272.801" y="186.441" width="198.744" height="183.306" filterUnits="userSpaceOnUse" color-interpolation-filters="sRGB">
<feFlood flood-opacity="0" result="BackgroundImageFix"/>
<feColorMatrix in="SourceAlpha" type="matrix" values="0 0 0 0 0 0 0 0 0 0 0 0 0 0 0 0 0 0 127 0" result="hardAlpha"/>
<feOffset dy="0.768015"/>
<feGaussianBlur stdDeviation="0.384007"/>
<feColorMatrix type="matrix" values="0 0 0 0 0.925374 0 0 0 0 0.925374 0 0 0 0 0.925374 0 0 0 0.37 0"/>
<feBlend mode="normal" in2="BackgroundImageFix" result="effect1_dropShadow_3_244"/>
<feBlend mode="normal" in="SourceGraphic" in2="effect1_dropShadow_3_244" result="shape"/>
<feColorMatrix in="SourceAlpha" type="matrix" values="0 0 0 0 0 0 0 0 0 0 0 0 0 0 0 0 0 0 127 0" result="hardAlpha"/>
<feOffset dx="-5.12036" dy="3.70637"/>
<feGaussianBlur stdDeviation="2.56018"/>
<feComposite in2="hardAlpha" operator="arithmetic" k2="-1" k3="1"/>
<feColorMatrix type="matrix" values="0 0 0 0 0 0 0 0 0 0 0 0 0 0 0 0 0 0 0.63 0"/>
<feBlend mode="normal" in2="shape" result="effect2_innerShadow_3_244"/>
</filter>
<filter id="filter17_f_3_244" x="477.446" y="355.761" width="293.455" height="128.829" filterUnits="userSpaceOnUse" color-interpolation-filters="sRGB">
<feFlood flood-opacity="0" result="BackgroundImageFix"/>
<feBlend mode="normal" in="SourceGraphic" in2="BackgroundImageFix" result="shape"/>
<feGaussianBlur stdDeviation="10.3973" result="effect1_foregroundBlur_3_244"/>
</filter>
<filter id="filter18_di_3_244" x="282.28" y="308.344" width="24.6711" height="20.2186" filterUnits="userSpaceOnUse" color-interpolation-filters="sRGB">
<feFlood flood-opacity="0" result="BackgroundImageFix"/>
<feColorMatrix in="SourceAlpha" type="matrix" values="0 0 0 0 0 0 0 0 0 0 0 0 0 0 0 0 0 0 127 0" result="hardAlpha"/>
<feOffset dy="-0.368347"/>
<feGaussianBlur stdDeviation="0.184173"/>
<feColorMatrix type="matrix" values="0 0 0 0 0.78755 0 0 0 0 0.78755 0 0 0 0 0.78755 0 0 0 0.19 0"/>
<feBlend mode="normal" in2="BackgroundImageFix" result="effect1_dropShadow_3_244"/>
<feBlend mode="normal" in="SourceGraphic" in2="effect1_dropShadow_3_244" result="shape"/>
<feColorMatrix in="SourceAlpha" type="matrix" values="0 0 0 0 0 0 0 0 0 0 0 0 0 0 0 0 0 0 127 0" result="hardAlpha"/>
<feOffset dy="1.84173"/>
<feGaussianBlur stdDeviation="0.920867"/>
<feComposite in2="hardAlpha" operator="arithmetic" k2="-1" k3="1"/>
<feColorMatrix type="matrix" values="0 0 0 0 0 0 0 0 0 0 0 0 0 0 0 0 0 0 0.74 0"/>
<feBlend mode="normal" in2="shape" result="effect2_innerShadow_3_244"/>
</filter>
<filter id="filter19_di_3_244" x="205.97" y="271.042" width="24.671" height="20.2186" filterUnits="userSpaceOnUse" color-interpolation-filters="sRGB">
<feFlood flood-opacity="0" result="BackgroundImageFix"/>
<feColorMatrix in="SourceAlpha" type="matrix" values="0 0 0 0 0 0 0 0 0 0 0 0 0 0 0 0 0 0 127 0" result="hardAlpha"/>
<feOffset dy="-0.368347"/>
<feGaussianBlur stdDeviation="0.184173"/>
<feColorMatrix type="matrix" values="0 0 0 0 0.78755 0 0 0 0 0.78755 0 0 0 0 0.78755 0 0 0 0.19 0"/>
<feBlend mode="normal" in2="BackgroundImageFix" result="effect1_dropShadow_3_244"/>
<feBlend mode="normal" in="SourceGraphic" in2="effect1_dropShadow_3_244" result="shape"/>
<feColorMatrix in="SourceAlpha" type="matrix" values="0 0 0 0 0 0 0 0 0 0 0 0 0 0 0 0 0 0 127 0" result="hardAlpha"/>
<feOffset dy="1.84173"/>
<feGaussianBlur stdDeviation="0.920867"/>
<feComposite in2="hardAlpha" operator="arithmetic" k2="-1" k3="1"/>
<feColorMatrix type="matrix" values="0 0 0 0 0 0 0 0 0 0 0 0 0 0 0 0 0 0 0.74 0"/>
<feBlend mode="normal" in2="shape" result="effect2_innerShadow_3_244"/>
</filter>
<filter id="filter20_di_3_244" x="99.3973" y="104.538" width="166.632" height="150.355" filterUnits="userSpaceOnUse" color-interpolation-filters="sRGB">
<feFlood flood-opacity="0" result="BackgroundImageFix"/>
<feColorMatrix in="SourceAlpha" type="matrix" values="0 0 0 0 0 0 0 0 0 0 0 0 0 0 0 0 0 0 127 0" result="hardAlpha"/>
<feOffset dy="0.768015"/>
<feGaussianBlur stdDeviation="0.384007"/>
<feColorMatrix type="matrix" values="0 0 0 0 0.925374 0 0 0 0 0.925374 0 0 0 0 0.925374 0 0 0 0.37 0"/>
<feBlend mode="normal" in2="BackgroundImageFix" result="effect1_dropShadow_3_244"/>
<feBlend mode="normal" in="SourceGraphic" in2="effect1_dropShadow_3_244" result="shape"/>
<feColorMatrix in="SourceAlpha" type="matrix" values="0 0 0 0 0 0 0 0 0 0 0 0 0 0 0 0 0 0 127 0" result="hardAlpha"/>
<feOffset dx="-5.12036" dy="3.70637"/>
<feGaussianBlur stdDeviation="2.56018"/>
<feComposite in2="hardAlpha" operator="arithmetic" k2="-1" k3="1"/>
<feColorMatrix type="matrix" values="0 0 0 0 0 0 0 0 0 0 0 0 0 0 0 0 0 0 0.63 0"/>
<feBlend mode="normal" in2="shape" result="effect2_innerShadow_3_244"/>
</filter>
<filter id="filter21_di_3_244" x="53.5191" y="94.5171" width="56.7102" height="74.1711" filterUnits="userSpaceOnUse" color-interpolation-filters="sRGB">
<feFlood flood-opacity="0" result="BackgroundImageFix"/>
<feColorMatrix in="SourceAlpha" type="matrix" values="0 0 0 0 0 0 0 0 0 0 0 0 0 0 0 0 0 0 127 0" result="hardAlpha"/>
<feOffset dy="0.967704"/>
<feGaussianBlur stdDeviation="0.483852"/>
<feColorMatrix type="matrix" values="0 0 0 0 0.925374 0 0 0 0 0.925374 0 0 0 0 0.925374 0 0 0 0.37 0"/>
<feBlend mode="normal" in2="BackgroundImageFix" result="effect1_dropShadow_3_244"/>
<feBlend mode="normal" in="SourceGraphic" in2="effect1_dropShadow_3_244" result="shape"/>
<feColorMatrix in="SourceAlpha" type="matrix" values="0 0 0 0 0 0 0 0 0 0 0 0 0 0 0 0 0 0 127 0" result="hardAlpha"/>
<feOffset dx="-3.74306" dy="4.67883"/>
<feGaussianBlur stdDeviation="1.87153"/>
<feComposite in2="hardAlpha" operator="arithmetic" k2="-1" k3="1"/>
<feColorMatrix type="matrix" values="0 0 0 0 0 0 0 0 0 0 0 0 0 0 0 0 0 0 0.8 0"/>
<feBlend mode="normal" in2="shape" result="effect2_innerShadow_3_244"/>
</filter>
<filter id="filter22_f_3_244" x="84.385" y="237.148" width="333.384" height="228.316" filterUnits="userSpaceOnUse" color-interpolation-filters="sRGB">
<feFlood flood-opacity="0" result="BackgroundImageFix"/>
<feBlend mode="normal" in="SourceGraphic" in2="BackgroundImageFix" result="shape"/>
<feGaussianBlur stdDeviation="1.54375" result="effect1_foregroundBlur_3_244"/>
</filter>
<linearGradient id="paint0_linear_3_244" x1="99.7219" y1="109.58" x2="104.69" y2="35.7066" gradientUnits="userSpaceOnUse">
<stop stop-color="#3F3F3F"/>
<stop offset="1" stop-color="#5C5C5C"/>
</linearGradient>
<linearGradient id="paint1_linear_3_244" x1="93.2421" y1="96.1785" x2="65.257" y2="-32.2098" gradientUnits="userSpaceOnUse">
<stop stop-color="#3F3F3F"/>
<stop offset="1" stop-color="#777676"/>
</linearGradient>
<linearGradient id="paint2_linear_3_244" x1="74.7055" y1="82.0908" x2="78.4271" y2="26.7492" gradientUnits="userSpaceOnUse">
<stop stop-color="#3F3F3F"/>
<stop offset="1" stop-color="#5C5C5C"/>
</linearGradient>
<linearGradient id="paint3_linear_3_244" x1="69.849" y1="72.0533" x2="48.8825" y2="-24.1298" gradientUnits="userSpaceOnUse">
<stop stop-color="#3F3F3F"/>
<stop offset="1" stop-color="#777676"/>
</linearGradient>
<linearGradient id="paint4_linear_3_244" x1="346.296" y1="479.937" x2="640.122" y2="51.5642" gradientUnits="userSpaceOnUse">
<stop stop-color="#282828"/>
<stop offset="0.664655" stop-color="#4A4949"/>
<stop offset="1" stop-color="#737373"/>
</linearGradient>
<linearGradient id="paint5_linear_3_244" x1="321.987" y1="449.579" x2="627.602" y2="41.1888" gradientUnits="userSpaceOnUse">
<stop stop-color="#555555"/>
<stop offset="0.628054" stop-color="#797979"/>
<stop offset="1" stop-color="#B8B8B8"/>
</linearGradient>
<linearGradient id="paint6_linear_3_244" x1="727.254" y1="108.976" x2="518.14" y2="285.071" gradientUnits="userSpaceOnUse">
<stop stop-color="#E8EAE9"/>
<stop offset="0.498386" stop-color="#707072"/>
<stop offset="1" stop-color="#2F3032"/>
</linearGradient>
<linearGradient id="paint7_linear_3_244" x1="151.857" y1="729.318" x2="176.195" y2="210.581" gradientUnits="userSpaceOnUse">
<stop stop-color="#E8EAE9"/>
<stop offset="0.498386" stop-color="#707072"/>
<stop offset="1" stop-color="#2F3032"/>
</linearGradient>
<linearGradient id="paint8_linear_3_244" x1="617.71" y1="471.244" x2="635.611" y2="413.175" gradientUnits="userSpaceOnUse">
<stop stop-color="#ECEAEA"/>
<stop offset="1" stop-color="white" stop-opacity="0"/>
</linearGradient>
<linearGradient id="paint9_linear_3_244" x1="8.43039" y1="528.069" x2="27.8312" y2="123.743" gradientUnits="userSpaceOnUse">
<stop stop-color="#E8EAE9"/>
<stop offset="0.498386" stop-color="#707072"/>
<stop offset="1" stop-color="#2F3032"/>
</linearGradient>
<linearGradient id="paint10_linear_3_244" x1="109.014" y1="265.065" x2="28.9916" y2="204.563" gradientUnits="userSpaceOnUse">
<stop stop-color="#E8EAE9"/>
<stop offset="0.498386" stop-color="#707072"/>
<stop offset="1" stop-color="#2F3032"/>
</linearGradient>
<linearGradient id="paint11_linear_3_244" x1="317.045" y1="293.587" x2="238.751" y2="469.426" gradientUnits="userSpaceOnUse">
<stop stop-color="#343434" stop-opacity="0.66"/>
<stop offset="1" stop-color="#1A1A1A"/>
</linearGradient>
</defs>
</svg>
