<?xml version="1.0" encoding="UTF-8"?>
<svg version="1.1" xmlns="http://www.w3.org/2000/svg" width="1200" height="718">
<path d="M0 0 C396 0 792 0 1200 0 C1200 236.94 1200 473.88 1200 718 C804 718 408 718 0 718 C0 481.06 0 244.12 0 0 Z " fill="#FEFEFE" transform="translate(0,0)"/>
<path d="M0 0 C396 0 792 0 1200 0 C1200 236.94 1200 473.88 1200 718 C804 718 408 718 0 718 C0 481.06 0 244.12 0 0 Z M25 24 C24.50733102 24.47607228 24.01466204 24.95214455 23.5070637 25.44264326 C18.14781547 31.23927068 17.70583355 37.33540409 17.75949097 44.80783081 C17.75778212 45.68275401 17.75607327 46.55767721 17.75431263 47.45911324 C17.75102438 50.38412166 17.76201053 53.30889951 17.77294922 56.23388672 C17.77351348 58.33326716 17.77319649 60.43264799 17.77206421 62.5320282 C17.77149026 68.22780682 17.78325144 73.92350126 17.79721212 79.61926031 C17.80971244 85.57300229 17.81088943 91.52674619 17.81326294 97.48049927 C17.81947975 108.75322046 17.83589333 120.02590288 17.85596192 131.29860699 C17.88249401 146.53251362 17.89329193 161.76643086 17.90496635 177.00035477 C17.92377375 201.00026556 17.96361813 225.00009452 18 249 C84.99 249 151.98 249 221 249 C221 397.5 221 546 221 699 C384.93598844 699.11478922 384.93598844 699.11478922 548.87198436 699.19265985 C573.31715045 699.20107261 597.76231645 699.20971028 622.20748225 699.21891702 C624.35781 699.2197246 626.50813775 699.22052531 628.6584655 699.22132435 C661.59006377 699.23358704 694.52165611 699.24919611 727.45324707 699.2746582 C728.161568 699.2752058 728.86988893 699.27575339 729.59967412 699.27631758 C741.02008936 699.2851672 752.44050436 699.29430158 763.86091934 699.30347376 C796.75051895 699.32988433 829.64011402 699.35419327 862.52972317 699.36455917 C863.20590572 699.36477331 863.88208828 699.36498745 864.57876121 699.36520808 C878.75524393 699.3696615 892.93172673 699.3732199 907.10820994 699.37565996 C913.74676093 699.37681264 920.38531189 699.37811519 927.02386284 699.37950897 C928.33046808 699.37977866 929.63707333 699.38004836 930.98327267 699.38032622 C952.0444861 699.38505927 973.10566587 699.40362813 994.16686556 699.42732814 C1015.32323168 699.45084152 1036.47956432 699.45988086 1057.63594306 699.45400551 C1070.21648753 699.45095545 1082.79690975 699.45914306 1095.37743221 699.48319017 C1103.77219728 699.4981449 1112.16688192 699.49868637 1120.56165244 699.48732725 C1125.35068979 699.4812651 1130.1394953 699.48164102 1134.92850817 699.49953273 C1139.28224136 699.51567527 1143.635561 699.51352292 1147.98928756 699.4965599 C1149.557428 699.49369471 1151.12559849 699.49758773 1152.69370045 699.50894098 C1162.33818236 699.57436019 1168.06526807 699.01664226 1175.6875 692.8125 C1181.50393988 685.7384515 1182.58684923 678.77856391 1182.50895119 669.83168125 C1182.51536414 668.73360322 1182.5217771 667.63552518 1182.52838439 666.50417206 C1182.54499431 662.82268244 1182.53313288 659.14184274 1182.52139282 655.46034241 C1182.52743378 652.79506048 1182.53504997 650.12982504 1182.54457796 647.46455759 C1182.56208688 641.66873693 1182.56473163 635.87305763 1182.55757141 630.0772171 C1182.54695196 621.45855094 1182.55915329 612.84002148 1182.57573728 604.22137018 C1182.60621751 587.93313675 1182.60962746 571.64496551 1182.60469122 555.35670955 C1182.60102606 542.77976992 1182.60454365 530.20285069 1182.61314011 517.62591362 C1182.61434491 515.81906845 1182.6155473 514.01222327 1182.61674731 512.2053781 C1182.61856181 509.48265407 1182.62037915 506.75993005 1182.62221201 504.03720603 C1182.63907096 478.72317528 1182.64774246 453.4091522 1182.63939857 428.09511662 C1182.63908582 427.14083522 1182.63877307 426.18655382 1182.63845084 425.2033548 C1182.63683927 420.36666101 1182.63514773 415.52996724 1182.63342424 410.69327349 C1182.63308206 409.7326875 1182.63273989 408.77210151 1182.63238734 407.78240685 C1182.63169403 405.83986937 1182.63099697 403.8973319 1182.63029617 401.95479442 C1182.61957984 371.72347893 1182.635448 341.49228007 1182.67236328 311.26098633 C1182.71378751 277.29735602 1182.73525188 243.33379796 1182.72721231 209.37014097 C1182.72642161 205.7493947 1182.72569852 202.12864843 1182.72501755 198.50790215 C1182.72483608 197.61637967 1182.72465462 196.72485719 1182.72446766 195.80631888 C1182.72213502 182.34377533 1182.73543739 168.8813047 1182.75664139 155.41877937 C1182.7807281 140.11037007 1182.78388325 124.80212153 1182.75906105 109.49370987 C1182.74579106 100.92620356 1182.74909489 92.35908151 1182.77623808 83.79160584 C1182.79270906 78.06829032 1182.787356 72.34526308 1182.76428755 66.62197107 C1182.75175575 63.3611887 1182.75192634 60.10130637 1182.77201422 56.8405397 C1182.79217475 53.32437854 1182.77543098 49.8102395 1182.74946022 46.29415989 C1182.77138826 44.7828133 1182.77138826 44.7828133 1182.79375929 43.24093446 C1182.68426435 36.1004326 1180.83242507 30.40792381 1176 25 C1173.40835416 23.70240711 1173.40835416 23.70240711 1171 23 C1171 22.34 1171 21.68 1171 21 C1167.25628435 18.56826987 1163.55004648 18.71995311 1159.24117017 18.74584967 C1158.44957109 18.74267234 1157.657972 18.73949502 1156.84238507 18.73622141 C1154.16820327 18.72795753 1151.49424231 18.73402777 1148.82005692 18.73993778 C1146.88385909 18.73694332 1144.94766245 18.73307411 1143.01146793 18.72840545 C1137.65412038 18.7180667 1132.29683847 18.72029359 1126.93948523 18.72446081 C1121.12497145 18.7268163 1115.31047425 18.71767197 1109.49596667 18.70997661 C1099.29301686 18.69810125 1089.09008318 18.69369455 1078.88712692 18.69429779 C1067.93630519 18.69491911 1056.98549766 18.69124687 1046.03467941 18.68231773 C1045.34369558 18.68175795 1044.65271174 18.68119816 1043.940789 18.68062141 C1041.12663442 18.67832984 1038.31247987 18.67601149 1035.49832534 18.67365811 C1006.1194124 18.64913002 976.74050526 18.63898975 947.36158326 18.63413096 C944.1978175 18.63360727 941.03405175 18.63308143 937.87028599 18.63255429 C937.08521909 18.63242523 936.3001522 18.63229617 935.4912954 18.6321632 C918.10522556 18.62925931 900.71915735 18.62310179 883.3330886 18.61645698 C876.1772716 18.61373357 869.02145457 18.61110253 861.86563754 18.60847133 C860.6797014 18.60803496 860.6797014 18.60803496 859.46980695 18.60758978 C814.15328948 18.59096349 768.83677278 18.57910895 723.52025223 18.57667637 C721.82378988 18.57658174 720.12732754 18.57648673 718.43086519 18.57639134 C710.77123091 18.57596358 703.11159663 18.57555821 695.45196235 18.57515298 C692.03623619 18.57497138 688.62051004 18.57478649 685.20478388 18.57460091 C683.49514984 18.57450889 681.78551581 18.57441849 680.07588177 18.57432972 C626.01085761 18.57151504 571.94587072 18.54978536 517.88085938 18.51293945 C477.56899476 18.48547178 437.25713726 18.45958222 396.94526291 18.45299435 C395.7285049 18.45279419 395.7285049 18.45279419 394.48716593 18.45258999 C376.68135184 18.44971789 358.8755379 18.44830044 341.06972358 18.44823178 C334.69870907 18.44819209 328.32769456 18.44803514 321.95668005 18.44781726 C320.3716848 18.44776361 318.78668955 18.4477155 317.20169431 18.44767293 C291.92923449 18.44692897 266.65681139 18.43125079 241.38436305 18.40806163 C215.9347108 18.38481268 190.48510586 18.37755057 165.03544574 18.3922425 C161.52060551 18.39427024 158.00576521 18.39612416 154.49092484 18.39787483 C153.80190401 18.39822489 153.11288318 18.39857494 152.40298293 18.39893561 C142.14980051 18.40371587 131.896695 18.39450705 121.64352798 18.37705612 C110.24363051 18.35774283 98.84388791 18.35466114 87.44398768 18.3741926 C81.70025856 18.38351624 75.95682829 18.38480004 70.2131218 18.36422653 C64.99196997 18.34568301 59.77136391 18.34998453 54.55023363 18.37281747 C52.66924063 18.37698815 50.78820592 18.37270793 48.90725738 18.35911978 C35.92982277 17.8808435 35.92982277 17.8808435 25 24 Z " fill="#023499" transform="translate(0,0)"/>
<path d="M0 0 C396 0 792 0 1200 0 C1200 236.94 1200 473.88 1200 718 C804 718 408 718 0 718 C0 481.06 0 244.12 0 0 Z M25 24 C24.50733102 24.47607228 24.01466204 24.95214455 23.5070637 25.44264326 C17.62443955 31.80536038 17.70782314 38.66306745 17.73155785 46.82761669 C17.72685339 47.92531034 17.72214893 49.023004 17.71730191 50.15396109 C17.70393078 53.85204446 17.70483807 57.54998714 17.70565796 61.24809265 C17.69906018 63.91830804 17.69168437 66.58851113 17.683375 69.2587207 C17.66473358 75.84042071 17.65688072 82.42209381 17.65233707 89.00381693 C17.64641026 96.88670314 17.62901398 104.76955371 17.61150851 112.65242122 C17.56983166 131.70439179 17.54888301 150.75636854 17.53124929 169.80837407 C17.52283557 178.82057928 17.51239178 187.83278182 17.50188024 196.84498478 C17.46610315 227.69297702 17.43610977 258.54097003 17.42123985 289.38897991 C17.42029034 291.32537808 17.41933856 293.26177624 17.41838453 295.19817441 C17.41791178 296.15845305 17.41743902 297.1187317 17.41695195 298.1081097 C17.41454955 302.97335895 17.41211865 307.83860819 17.40966797 312.70385742 C17.40918767 313.66937982 17.40870737 314.63490222 17.40821251 315.62968287 C17.3924228 346.94194203 17.34554983 378.25404977 17.28055608 409.5662428 C17.21197026 442.66939854 17.17253873 475.77246565 17.16595137 508.87569362 C17.16511629 512.50914279 17.16415716 516.14259191 17.16310501 519.77604103 C17.16285863 520.67070189 17.16261224 521.56536274 17.16235839 522.48713453 C17.15769333 536.88782706 17.126368 551.28834373 17.08542132 565.68897357 C17.04492257 580.16156702 17.03394222 594.63394912 17.05296259 609.10658874 C17.06339921 617.70510428 17.05160811 626.30291646 17.00789324 634.90133084 C16.98089052 640.64666838 16.9830182 646.39152143 17.00869716 652.13686372 C17.02250146 655.40967979 17.01937195 658.68088249 16.98957698 661.95363113 C16.30635525 678.5817384 16.30635525 678.5817384 23.30773222 693.01541835 C33.47343931 700.50898044 42.60803272 700.71154846 54.82452583 700.62641239 C56.75748915 700.6313277 58.69044792 700.63843379 60.6233961 700.64752635 C65.94391331 700.66618391 71.26397245 700.65367129 76.58447669 700.63613641 C82.36936364 700.62256455 88.15418487 700.63796196 93.93906581 700.64968723 C104.74704154 700.66730716 115.55486839 700.66231929 126.36284366 700.64703313 C136.57710184 700.63283936 146.79129332 700.63050053 157.00555801 700.63871193 C158.03680253 700.63953 158.03680253 700.63953 159.08888027 700.6403646 C161.88898972 700.64262262 164.68909908 700.64495918 167.48920838 700.64739507 C193.56408319 700.6700692 219.63890262 700.66825688 245.71377945 700.65091133 C270.84204882 700.63421484 295.97029295 700.62611027 321.09856796 700.6301403 C322.67629602 700.63038067 324.25402407 700.63061986 325.83175212 700.63085788 C332.17186562 700.63182664 338.51197911 700.63284907 344.85209259 700.63394299 C362.57545646 700.6369717 380.29882025 700.63829471 398.02218437 700.63831234 C398.82927661 700.63831361 399.63636885 700.63831487 400.46791843 700.63831618 C426.1871585 700.63823606 451.90639075 700.63068329 477.62562752 700.61790562 C478.45986993 700.61749193 479.29411235 700.61707824 480.15363484 700.61665202 C493.70146292 700.60990833 507.24929079 700.60275469 520.79711865 700.59557279 C574.53549559 700.56711217 628.27382484 700.56114803 682.01220703 700.57641602 C685.408349 700.57737544 688.80449097 700.57833246 692.20063294 700.57928873 C693.04031554 700.5795252 693.87999814 700.57976166 694.74512566 700.5800053 C704.04417029 700.58261808 713.34321493 700.58515065 722.6422596 700.5875864 C723.89309527 700.58791613 723.89309527 700.58791613 725.16920036 700.58825251 C750.86326863 700.59497408 776.55733301 700.59669549 802.2514019 700.59282589 C803.05787559 700.59270443 803.86434927 700.59258298 804.69526155 700.59245784 C822.39765845 700.58972987 840.10005488 700.58566693 857.8024512 700.58041219 C864.1362882 700.57853378 870.47012522 700.57670735 876.80396223 700.57488665 C879.16625799 700.5742024 881.52855374 700.57350086 883.89084949 700.57279913 C901.17461729 700.56774284 918.45837982 700.5654222 935.74214792 700.57023358 C936.52129273 700.57045026 937.30043754 700.57066694 938.10319279 700.57089019 C942.02620179 700.57199904 945.94921077 700.57315802 949.87221974 700.57433859 C978.21038244 700.58286134 1006.54849271 700.57869222 1034.88664545 700.5515715 C1037.67684495 700.54895679 1040.46704451 700.54640335 1043.25724411 700.54389763 C1043.94201651 700.54327648 1044.62678891 700.54265532 1045.33231198 700.54201535 C1055.52204754 700.53310543 1065.71173939 700.53533165 1075.901474 700.54411316 C1087.23070301 700.55379245 1098.55982524 700.55044107 1109.88904002 700.52894809 C1115.59698333 700.51852364 1121.30473852 700.51450351 1127.01267983 700.52792663 C1132.20126759 700.53999392 1137.38949446 700.53379042 1142.57805073 700.51276654 C1144.44725871 700.5084308 1146.3164971 700.51084652 1148.18568414 700.52070096 C1150.71927761 700.53308543 1153.25161893 700.52088137 1155.78514969 700.50254732 C1156.86872769 700.51671457 1156.86872769 700.51671457 1157.97419615 700.53116803 C1164.80444992 700.43157848 1169.79792131 697.95740328 1174.8125 693.5 C1181.35816277 686.01924255 1182.29677498 679.95593257 1182.26285553 670.20082474 C1182.2669608 669.10620824 1182.27106606 668.01159173 1182.27529573 666.88380504 C1182.28665294 663.19619383 1182.28371915 659.50873162 1182.28088379 655.82110596 C1182.28605007 653.15842783 1182.2919984 650.49576179 1182.29889059 647.83308864 C1182.31404488 641.27005927 1182.31843642 634.70706244 1182.3195487 628.1440174 C1182.32137652 620.28353478 1182.33471313 612.42308224 1182.34824235 604.56261257 C1182.38035983 585.56521088 1182.39216816 566.5678124 1182.40173985 547.57038844 C1182.40641151 538.58442475 1182.41361673 529.59846362 1182.4211306 520.61250192 C1182.4468 489.85550789 1182.46823961 459.09851528 1182.4751358 428.34151077 C1182.47557907 426.41085368 1182.47602264 424.48019659 1182.47646651 422.54953949 C1182.47690779 420.61421302 1182.47734875 418.67888655 1182.4777894 416.74356008 C1182.47867451 412.86094109 1182.47956874 408.97832211 1182.48046875 405.09570312 C1182.48068753 404.13303965 1182.48090631 403.17037618 1182.48113173 402.17854109 C1182.48839479 370.95632549 1182.52024295 339.73420272 1182.56684948 308.51202268 C1182.6160297 275.50539399 1182.64348067 242.49881837 1182.64587164 209.49215198 C1182.64621455 205.86967388 1182.64664541 202.2471958 1182.6471405 198.62471771 C1182.64730781 197.28677475 1182.64730781 197.28677475 1182.64747849 195.92180263 C1182.64978067 181.56186232 1182.67183414 167.20201723 1182.70091461 152.84210908 C1182.72963202 138.41212206 1182.7361257 123.98225721 1182.72003466 109.55224946 C1182.71111648 100.97808285 1182.71886502 92.40431036 1182.75051167 83.83019545 C1182.76999801 78.10235184 1182.76766833 72.37478461 1182.74763921 66.64694357 C1182.73684466 63.38350697 1182.7387788 60.12097928 1182.76065665 56.85757604 C1182.78275774 53.33854434 1182.76792841 49.82151525 1182.7438736 46.30253983 C1182.75906398 45.29411789 1182.77425437 44.28569596 1182.78990507 43.24671578 C1182.68431376 36.10286374 1180.83558878 30.41006262 1176 25 C1173.40833032 23.7024531 1173.40833032 23.7024531 1171 23 C1171 22.34 1171 21.68 1171 21 C1167.25628435 18.56826987 1163.55004648 18.71995311 1159.24117017 18.74584967 C1158.44957109 18.74267234 1157.657972 18.73949502 1156.84238507 18.73622141 C1154.16820327 18.72795753 1151.49424231 18.73402777 1148.82005692 18.73993778 C1146.88385909 18.73694332 1144.94766245 18.73307411 1143.01146793 18.72840545 C1137.65412038 18.7180667 1132.29683847 18.72029359 1126.93948523 18.72446081 C1121.12497145 18.7268163 1115.31047425 18.71767197 1109.49596667 18.70997661 C1099.29301686 18.69810125 1089.09008318 18.69369455 1078.88712692 18.69429779 C1067.93630519 18.69491911 1056.98549766 18.69124687 1046.03467941 18.68231773 C1045.34369558 18.68175795 1044.65271174 18.68119816 1043.940789 18.68062141 C1041.12663442 18.67832984 1038.31247987 18.67601149 1035.49832534 18.67365811 C1006.1194124 18.64913002 976.74050526 18.63898975 947.36158326 18.63413096 C944.1978175 18.63360727 941.03405175 18.63308143 937.87028599 18.63255429 C937.08521909 18.63242523 936.3001522 18.63229617 935.4912954 18.6321632 C918.10522556 18.62925931 900.71915735 18.62310179 883.3330886 18.61645698 C876.1772716 18.61373357 869.02145457 18.61110253 861.86563754 18.60847133 C860.6797014 18.60803496 860.6797014 18.60803496 859.46980695 18.60758978 C814.15328948 18.59096349 768.83677278 18.57910895 723.52025223 18.57667637 C721.82378988 18.57658174 720.12732754 18.57648673 718.43086519 18.57639134 C710.77123091 18.57596358 703.11159663 18.57555821 695.45196235 18.57515298 C692.03623619 18.57497138 688.62051004 18.57478649 685.20478388 18.57460091 C683.49514984 18.57450889 681.78551581 18.57441849 680.07588177 18.57432972 C626.01085761 18.57151504 571.94587072 18.54978536 517.88085938 18.51293945 C477.56899476 18.48547178 437.25713726 18.45958222 396.94526291 18.45299435 C395.7285049 18.45279419 395.7285049 18.45279419 394.48716593 18.45258999 C376.68135184 18.44971789 358.8755379 18.44830044 341.06972358 18.44823178 C334.69870907 18.44819209 328.32769456 18.44803514 321.95668005 18.44781726 C320.3716848 18.44776361 318.78668955 18.4477155 317.20169431 18.44767293 C291.92923449 18.44692897 266.65681139 18.43125079 241.38436305 18.40806163 C215.9347108 18.38481268 190.48510586 18.37755057 165.03544574 18.3922425 C161.52060551 18.39427024 158.00576521 18.39612416 154.49092484 18.39787483 C153.80190401 18.39822489 153.11288318 18.39857494 152.40298293 18.39893561 C142.14980051 18.40371587 131.896695 18.39450705 121.64352798 18.37705612 C110.24363051 18.35774283 98.84388791 18.35466114 87.44398768 18.3741926 C81.70025856 18.38351624 75.95682829 18.38480004 70.2131218 18.36422653 C64.99196997 18.34568301 59.77136391 18.34998453 54.55023363 18.37281747 C52.66924063 18.37698815 50.78820592 18.37270793 48.90725738 18.35911978 C35.92982277 17.8808435 35.92982277 17.8808435 25 24 Z " fill="#020203" transform="translate(0,0)"/>
<path d="M0 0 C7.28125751 -0.52908792 12.36611987 2.35326472 17.86328125 6.91796875 C26.43824372 15.01756017 29.88854328 24.97713598 30.27099609 36.65600586 C30.29054754 38.97501776 30.29324305 41.29421795 30.28125 43.61328125 C30.28412018 44.85662735 30.28699036 46.09997345 30.28994751 47.3809967 C30.29197782 49.99545755 30.28652078 52.60993394 30.27392578 55.22436523 C30.25787226 59.19615113 30.27380408 63.16691739 30.29296875 67.13867188 C30.29098587 69.69271055 30.28714127 72.2467486 30.28125 74.80078125 C30.29035904 76.55913551 30.29035904 76.55913551 30.2996521 78.35301208 C30.19157089 91.20863268 27.76227769 103.04211254 18.66796875 112.6015625 C12.49340172 118.31380754 7.84066699 120.74148029 -0.62890625 120.515625 C-6.99820181 119.89569356 -11.18540022 116.87898412 -15.41796875 112.3515625 C-24.25594444 101.54281981 -26.58624035 90.74596966 -26.515625 77.03125 C-26.51849518 75.78648895 -26.52136536 74.54172791 -26.52432251 73.25924683 C-26.5263546 70.63880964 -26.52088493 68.01835698 -26.50830078 65.39794922 C-26.49226346 61.41729286 -26.50816594 57.437656 -26.52734375 53.45703125 C-26.52536064 50.89843529 -26.52151556 48.33983995 -26.515625 45.78125 C-26.52169769 44.60587677 -26.52777039 43.43050354 -26.5340271 42.21951294 C-26.41722722 28.286991 -23.37496891 16.62401017 -13.7421875 6.3359375 C-9.32526197 2.15224896 -6.01820054 0.77725837 0 0 Z " fill="#F3F8FB" transform="translate(145.1171875,509.7265625)"/>
<path d="M0 0 C39.65882664 0 39.65882664 0 48.23828125 7.97265625 C56.38817458 17.35135833 55.74979646 30.90518588 55.22216797 42.60058594 C54.41171155 51.35351524 49.63113946 59.3209385 43 65 C42.34 65 41.68 65 41 65 C41.54183757 66.6255127 42.08370803 68.25101444 42.62573242 69.87646484 C43.08611579 71.25810593 43.54590763 72.63994424 44.00512695 74.02197266 C44.96677802 76.91406936 45.93199136 79.80368935 46.9296875 82.68359375 C48.67295261 87.72468512 49.94917973 92.77062384 51 98 C51.66 98 52.32 98 53 98 C53.81391255 100.58289592 54.62617929 103.16628997 55.4375 105.75 C55.66759766 106.47960937 55.89769531 107.20921875 56.13476562 107.9609375 C56.35712891 108.66992188 56.57949219 109.37890625 56.80859375 110.109375 C57.01282959 110.75874023 57.21706543 111.40810547 57.42749023 112.07714844 C58.01039016 114.03489677 58.50457678 116.01830712 59 118 C53.72 118 48.44 118 43 118 C42.4225 116.1025 41.845 114.205 41.25 112.25 C38.83787 104.41697007 36.41839913 96.57605402 33.4375 88.9375 C31.83627665 84.79006902 30.7493726 80.52577356 29.6484375 76.22265625 C29.20685029 74.04659248 29.20685029 74.04659248 28 73 C28 71.35 28 69.7 28 68 C23.05 68 18.1 68 13 68 C13 84.5 13 101 13 118 C8.71 118 4.42 118 0 118 C0 79.06 0 40.12 0 0 Z " fill="#F6F9FB" transform="translate(54,511)"/>
<path d="M0 0 C3.98531332 0.08209447 5.83405487 1.53677821 8.625 4.3125 C16.25107112 14.27732578 14.62270466 28.99857886 14.62060547 41.00073242 C14.62500883 43.81814747 14.66153613 46.6340292 14.69921875 49.45117188 C14.80528182 66.78597432 14.80528182 66.78597432 10.25 74.625 C9.92 75.285 9.59 75.945 9.25 76.625 C8.59 76.625 7.93 76.625 7.25 76.625 C7.25 77.285 7.25 77.945 7.25 78.625 C3.35205033 81.22363311 0.59114309 81.28058257 -4.01953125 81.1953125 C-7.26794667 80.51681657 -8.23256299 79.71666971 -10.25 77.125 C-15.51892703 68.53072709 -16.89757922 60.12132691 -16.953125 50.11328125 C-16.95882507 49.30440964 -16.96452515 48.49553802 -16.97039795 47.66215515 C-16.9798087 45.95520316 -16.98636624 44.24823332 -16.99023438 42.54125977 C-16.99990541 39.96272086 -17.03095149 37.38499177 -17.0625 34.80664062 C-17.13928698 23.04278986 -16.76728694 12.7809216 -9.34765625 3.0859375 C-6.61011697 0.58266197 -3.59721192 0.59953532 0 0 Z " fill="#07389C" transform="translate(147.75,529.375)"/>
<path d="M0 0 C2.990625 -0.061875 5.98125 -0.12375 9.0625 -0.1875 C9.99070557 -0.21481201 10.91891113 -0.24212402 11.87524414 -0.27026367 C17.37330632 -0.32489769 21.14065509 0.38342967 26 3 C29.93934614 7.20196922 30.17846398 11.21480631 30.25 16.8125 C30.27578125 18.01519531 30.3015625 19.21789062 30.328125 20.45703125 C29.83795486 25.74970169 28.35911051 28.72133528 24.4921875 32.359375 C19.6204022 34.6481332 15.42513113 34.43527914 10.125 34.25 C6.78375 34.1675 3.4425 34.085 0 34 C0 22.78 0 11.56 0 0 Z " fill="#0A3A99" transform="translate(67,528)"/>
<path d="M0 0 C2.53069408 2.53069408 3.68376954 3.98014063 5.1875 7.0625 C5.53167969 7.75472656 5.87585938 8.44695313 6.23046875 9.16015625 C7 11 7 11 7 13 C7.66 13 8.32 13 9 13 C10.515625 14.609375 10.515625 14.609375 12.25 16.75 C17.45216659 22.86251277 17.45216659 22.86251277 24.875 25.25 C25.926875 25.12625 25.926875 25.12625 27 25 C27.33 25.99 27.66 26.98 28 28 C30.64 28.33 33.28 28.66 36 29 C36 29.33 36 29.66 36 30 C24.12 30 12.24 30 0 30 C0 20.1 0 10.2 0 0 Z " fill="#292929" transform="translate(0,688)"/>
<path d="M0 0 C11.22 0 22.44 0 34 0 C34 0.33 34 0.66 34 1 C23.26420665 2.22196022 12.91004516 2 2 2 C2 39.62 2 77.24 2 116 C2.99 115.505 2.99 115.505 4 115 C6.64 115 9.28 115 12 115 C12 99.82 12 84.64 12 69 C12.33 69 12.66 69 13 69 C13 85.17 13 101.34 13 118 C8.71 118 4.42 118 0 118 C0 79.06 0 40.12 0 0 Z " fill="#CCE1FA" transform="translate(54,511)"/>
<path d="M0 0 C10.23 0 20.46 0 31 0 C31 11.22 31 22.44 31 34 C28.94116077 29.88232154 28.03834872 26.45006595 27 22 C26.34 22 25.68 22 25 22 C24.773125 21.29875 24.54625 20.5975 24.3125 19.875 C21.12379252 12.89021218 16.87165446 9.8987128 10 7 C10 6.34 10 5.68 10 5 C9.36191406 4.89042969 8.72382812 4.78085938 8.06640625 4.66796875 C7.24011719 4.50941406 6.41382813 4.35085937 5.5625 4.1875 C4.73878906 4.03667969 3.91507813 3.88585937 3.06640625 3.73046875 C2.38449219 3.48941406 1.70257812 3.24835938 1 3 C0.67 2.01 0.34 1.02 0 0 Z " fill="#222222" transform="translate(1169,0)"/>
<path d="M0 0 C4.08375 -0.020625 8.1675 -0.04125 12.375 -0.0625 C13.66196777 -0.071604 14.94893555 -0.08070801 16.27490234 -0.09008789 C17.28504395 -0.09258545 18.29518555 -0.09508301 19.3359375 -0.09765625 C20.89127197 -0.10551147 20.89127197 -0.10551147 22.47802734 -0.11352539 C25 0 25 0 27 1 C27 1.66 27 2.32 27 3 C25.3603125 3.61875 25.3603125 3.61875 23.6875 4.25 C20.40020106 5.64660797 19.03463396 7.04053242 17 10 C15.34467377 11.01866229 13.67739862 12.01810813 12 13 C11.278125 13.721875 10.55625 14.44375 9.8125 15.1875 C9.214375 15.785625 8.61625 16.38375 8 17 C7.34 17 6.68 17 6 17 C5.8453125 17.9590625 5.8453125 17.9590625 5.6875 18.9375 C4.76096927 23.06477326 3.38339371 27.00642949 2 31 C1.34 31 0.68 31 0 31 C0 20.77 0 10.54 0 0 Z " fill="#1D1D1D" transform="translate(0,0)"/>
<path d="M0 0 C0.66 0 1.32 0 2 0 C2 9.57 2 19.14 2 29 C-1.898125 29.020625 -5.79625 29.04125 -9.8125 29.0625 C-11.03815674 29.071604 -12.26381348 29.08070801 -13.52661133 29.09008789 C-14.4936499 29.09258545 -15.46068848 29.09508301 -16.45703125 29.09765625 C-17.9416687 29.10551147 -17.9416687 29.10551147 -19.45629883 29.11352539 C-22 29 -22 29 -25 28 C-25 27.34 -25 26.68 -25 26 C-24.39671875 25.84144531 -23.7934375 25.68289063 -23.171875 25.51953125 C-17.88799572 23.9769794 -15.15139853 22.7270978 -12 18 C-11.01 17.34 -10.02 16.68 -9 16 C-8.7525 14.9790625 -8.7525 14.9790625 -8.5 13.9375 C-8.335 13.298125 -8.17 12.65875 -8 12 C-7.01 11.67 -6.02 11.34 -5 11 C-3.53159883 8.45048953 -3.53159883 8.45048953 -2.3125 5.4375 C-1.87550781 4.42558594 -1.43851563 3.41367187 -0.98828125 2.37109375 C-0.66214844 1.58863281 -0.33601563 0.80617188 0 0 Z " fill="#202020" transform="translate(1198,689)"/>
<path d="M0 0 C0.99 0 1.98 0 3 0 C3.33 0.66 3.66 1.32 4 2 C4.66 1.67 5.32 1.34 6 1 C6 2.65 6 4.3 6 6 C7.65 6 9.3 6 11 6 C11 7.65 11 9.3 11 11 C10.01 11.33 9.02 11.66 8 12 C7.67 12.99 7.34 13.98 7 15 C7.66 15 8.32 15 9 15 C9.33 16.65 9.66 18.3 10 20 C7.1875 21.125 7.1875 21.125 4 22 C3.01 21.34 2.02 20.68 1 20 C-1.05709596 19.75944532 -1.05709596 19.75944532 -3.1875 19.875 C-4.445625 19.91625 -5.70375 19.9575 -7 20 C-6.67 17.69 -6.34 15.38 -6 13 C-6.66 13 -7.32 13 -8 13 C-8.66 10.69 -9.32 8.38 -10 6 C-7.36 6 -4.72 6 -2 6 C-2 5.34 -2 4.68 -2 4 C-1.34 4 -0.68 4 0 4 C0 2.68 0 1.36 0 0 Z " fill="#23426C" transform="translate(178,384)"/>
<path d="M0 0 C1.65 0.33 3.3 0.66 5 1 C5 2.65 5 4.3 5 6 C7.31 6 9.62 6 12 6 C11.125 10.875 11.125 10.875 10 12 C9.60851239 13.51165654 9.26027543 15.03469632 8.9375 16.5625 C8.76089844 17.38878906 8.58429688 18.21507812 8.40234375 19.06640625 C8.26957031 19.70449219 8.13679688 20.34257812 8 21 C7.01 21 6.02 21 5 21 C4.67 21.66 4.34 22.32 4 23 C4 22.34 4 21.68 4 21 C0.7 20.67 -2.6 20.34 -6 20 C-6.33 20.66 -6.66 21.32 -7 22 C-7.625 20.125 -7.625 20.125 -8 18 C-7.34 17.34 -6.68 16.68 -6 16 C-5.83318891 12.91652174 -5.83318891 12.91652174 -6 10 C-6.66 9.67 -7.32 9.34 -8 9 C-8 8.34 -8 7.68 -8 7 C-4.535 6.505 -4.535 6.505 -1 6 C-0.67 4.02 -0.34 2.04 0 0 Z " fill="#0A378B" transform="translate(80,441)"/>
<path d="M0 0 C0.66 0 1.32 0 2 0 C2.33 1.98 2.66 3.96 3 6 C4.98 6 6.96 6 9 6 C8.34 10.29 7.68 14.58 7 19 C3.7 19.66 0.4 20.32 -3 21 C-3 20.34 -3 19.68 -3 19 C-3.66 19 -4.32 19 -5 19 C-5.03738281 18.39671875 -5.07476562 17.7934375 -5.11328125 17.171875 C-5.56253341 11.00632228 -5.56253341 11.00632228 -9 6 C-6.36 6 -3.72 6 -1 6 C-0.67 4.02 -0.34 2.04 0 0 Z " fill="#344C6C" transform="translate(57,418)"/>
<path d="M0 0 C0.66 0.33 1.32 0.66 2 1 C2 1.99 2 2.98 2 4 C2.66 4 3.32 4 4 4 C4 4.66 4 5.32 4 6 C5.98 6 7.96 6 10 6 C9.625 8.4375 9.625 8.4375 9 11 C8.01 11.495 8.01 11.495 7 12 C6.34227572 15.02934491 6.34227572 15.02934491 6 18 C5.443125 17.67 4.88625 17.34 4.3125 17 C1.69715478 15.8690399 -0.1806646 15.84337026 -3 16 C-3 16.66 -3 17.32 -3 18 C-3.66 18 -4.32 18 -5 18 C-4.9175 16.9275 -4.835 15.855 -4.75 14.75 C-4.63762783 10.95990735 -4.63762783 10.95990735 -7 8.5625 C-7.66 8.046875 -8.32 7.53125 -9 7 C-6.69 7 -4.38 7 -2 7 C-1.34 4.69 -0.68 2.38 0 0 Z " fill="#F8CA0C" transform="translate(146,329)"/>
<path d="M0 0 C0.66 0 1.32 0 2 0 C2.33 1.98 2.66 3.96 3 6 C5.64 6 8.28 6 11 6 C10.34 7.65 9.68 9.3 9 11 C8.34 11 7.68 11 7 11 C7 13.31 7 15.62 7 18 C6.1646875 17.4740625 6.1646875 17.4740625 5.3125 16.9375 C1.55681863 15.41492647 -1.2832512 16.76108373 -5 18 C-5 15.03 -5 12.06 -5 9 C-5.66 9 -6.32 9 -7 9 C-7 8.34 -7 7.68 -7 7 C-5.02 7 -3.04 7 -1 7 C-0.67 4.69 -0.34 2.38 0 0 Z " fill="#DEBF21" transform="translate(113,450)"/>
<path d="M0 0 C0.99 0.33 1.98 0.66 3 1 C3 2.65 3 4.3 3 6 C5.64 6 8.28 6 11 6 C11 6.66 11 7.32 11 8 C9.02 8.99 9.02 8.99 7 10 C7 12.64 7 15.28 7 18 C6.2575 17.46375 5.515 16.9275 4.75 16.375 C3.8425 15.92125 2.935 15.4675 2 15 C-0.16666667 15.66666667 -0.16666667 15.66666667 -2 17 C-2.99 17.33 -3.98 17.66 -5 18 C-4.67 15.69 -4.34 13.38 -4 11 C-4.66 10.54625 -5.32 10.0925 -6 9.625 C-6.66 9.08875 -7.32 8.5525 -8 8 C-8 7.34 -8 6.68 -8 6 C-4.535 5.505 -4.535 5.505 -1 5 C-0.67 3.35 -0.34 1.7 0 0 Z " fill="#C2B644" transform="translate(113,321)"/>
<path d="M0 0 C0.66 0 1.32 0 2 0 C2.33 1.65 2.66 3.3 3 5 C5.64 5 8.28 5 11 5 C10.67 5.99 10.34 6.98 10 8 C9.01 8 8.02 8 7 8 C7 10.97 7 13.94 7 17 C6.01 16.34 5.02 15.68 4 15 C0.37316225 14.62801664 -1.87350101 15.14725986 -5 17 C-4.67 14.69 -4.34 12.38 -4 10 C-4.99 9.34 -5.98 8.68 -7 8 C-7 7.34 -7 6.68 -7 6 C-5.02 6 -3.04 6 -1 6 C-0.67 4.02 -0.34 2.04 0 0 Z " fill="#F4C906" transform="translate(169,354)"/>
<path d="M0 0 C0.66 0.33 1.32 0.66 2 1 C2.625 3.5625 2.625 3.5625 3 6 C5.31 6.33 7.62 6.66 10 7 C10 7.66 10 8.32 10 9 C8.68 9 7.36 9 6 9 C6 11.64 6 14.28 6 17 C4.39125 16.690625 4.39125 16.690625 2.75 16.375 C-0.87619096 16.0123809 -2.08291076 16.01637931 -5 18 C-4.9175 16.9275 -4.835 15.855 -4.75 14.75 C-4.63762783 10.95990735 -4.63762783 10.95990735 -7 8.5625 C-7.66 8.046875 -8.32 7.53125 -9 7 C-6.69 7 -4.38 7 -2 7 C-1.855625 6.21625 -1.71125 5.4325 -1.5625 4.625 C-1 2 -1 2 0 0 Z " fill="#B7B14C" transform="translate(146,441)"/>
<path d="M0 0 C0.99 0 1.98 0 3 0 C3 1.32 3 2.64 3 4 C5.31 4 7.62 4 10 4 C10 4.66 10 5.32 10 6 C9.01 6.66 8.02 7.32 7 8 C6.63702064 9.97747122 6.63702064 9.97747122 6.8125 12.125 C6.874375 13.40375 6.93625 14.6825 7 16 C6.4225 15.484375 5.845 14.96875 5.25 14.4375 C3.16092695 12.77821334 3.16092695 12.77821334 1 13.1875 C-1.06348821 14.02579209 -3.03678574 14.94827807 -5 16 C-4.34 13.36 -3.68 10.72 -3 8 C-4.32 7.67 -5.64 7.34 -7 7 C-7 6.01 -7 5.02 -7 4 C-5.02 4 -3.04 4 -1 4 C-0.67 2.68 -0.34 1.36 0 0 Z " fill="#BFB540" transform="translate(169,420)"/>
<path d="M0 0 C0.66 0 1.32 0 2 0 C2.33 2.31 2.66 4.62 3 7 C4.98 7 6.96 7 9 7 C9 7.66 9 8.32 9 9 C7.68 9.33 6.36 9.66 5 10 C5.33 12.31 5.66 14.62 6 17 C4.39125 16.690625 4.39125 16.690625 2.75 16.375 C-0.87619096 16.0123809 -2.08291076 16.01637931 -5 18 C-4.9175 16.9275 -4.835 15.855 -4.75 14.75 C-4.63762783 10.95990735 -4.63762783 10.95990735 -7 8.5625 C-7.66 8.046875 -8.32 7.53125 -9 7 C-5.535 6.505 -5.535 6.505 -2 6 C-1.34 4.02 -0.68 2.04 0 0 Z " fill="#CFB935" transform="translate(49,385)"/>
<path d="M0 0 C1.5 1.375 1.5 1.375 3 3 C3 3.66 3 4.32 3 5 C5.31 5 7.62 5 10 5 C9.01 5.804375 9.01 5.804375 8 6.625 C5.68975201 8.89958592 5.68975201 8.89958592 5.75 12.25 C5.87375 13.61125 5.87375 13.61125 6 15 C4.9275 14.79375 3.855 14.5875 2.75 14.375 C-0.87619096 14.0123809 -2.08291076 14.01637931 -5 16 C-5 13.69 -5 11.38 -5 9 C-6.32 8.34 -7.64 7.68 -9 7 C-9 6.34 -9 5.68 -9 5 C-7.329375 4.87625 -7.329375 4.87625 -5.625 4.75 C-1.94246056 4.42126213 -1.94246056 4.42126213 -0.5625 1.9375 C-0.376875 1.298125 -0.19125 0.65875 0 0 Z " fill="#F4CA0C" transform="translate(81,443)"/>
<path d="M0 0 C1.32 0 2.64 0 4 0 C3.67 0.99 3.34 1.98 3 3 C3 2.34 3 1.68 3 1 C2.34 1 1.68 1 1 1 C0.67 2.98 0.34 4.96 0 7 C-1.98 7 -3.96 7 -6 7 C-6 7.66 -6 8.32 -6 9 C-4.68 9.66 -3.36 10.32 -2 11 C-2.66 13.31 -3.32 15.62 -4 18 C-3.443125 17.505 -2.88625 17.01 -2.3125 16.5 C0.41508925 14.73075292 1.80848491 14.5800638 5 15 C5.66 15.66 6.32 16.32 7 17 C6.979375 16.05125 6.95875 15.1025 6.9375 14.125 C7 11 7 11 8 9 C8.66 9.33 9.32 9.66 10 10 C9.67 12.97 9.34 15.94 9 19 C6.69 19 4.38 19 2 19 C2 19.66 2 20.32 2 21 C2.99 21 3.98 21 5 21 C5 21.66 5 22.32 5 23 C3.35 23 1.7 23 0 23 C0 22.01 0 21.02 0 20 C-1.65 19.67 -3.3 19.34 -5 19 C-5.33 17.68 -5.66 16.36 -6 15 C-6.66 15 -7.32 15 -8 15 C-8 11.7 -8 8.4 -8 5 C-5.69 5 -3.38 5 -1 5 C-0.67 3.35 -0.34 1.7 0 0 Z " fill="#24426E" transform="translate(168,353)"/>
<path d="M0 0 C1.5 1.375 1.5 1.375 3 3 C3 3.66 3 4.32 3 5 C5.31 5 7.62 5 10 5 C9.319375 5.515625 8.63875 6.03125 7.9375 6.5625 C5.57571378 8.97254504 5.57571378 8.97254504 6.25 12.75 C6.4975 13.8225 6.745 14.895 7 16 C4.03 15.01 1.06 14.02 -2 13 C-2.33 13.99 -2.66 14.98 -3 16 C-3.66 16 -4.32 16 -5 16 C-5 13.03 -5 10.06 -5 7 C-5.99 7 -6.98 7 -8 7 C-8 6.34 -8 5.68 -8 5 C-6.865625 4.731875 -5.73125 4.46375 -4.5625 4.1875 C-3.386875 3.795625 -2.21125 3.40375 -1 3 C-0.67 2.01 -0.34 1.02 0 0 Z " fill="#C5BC48" transform="translate(81,331)"/>
<path d="M0 0 C0.66 0 1.32 0 2 0 C2.3403125 0.9590625 2.3403125 0.9590625 2.6875 1.9375 C3.85250896 4.27193661 3.85250896 4.27193661 6.625 4.75 C7.40875 4.8325 8.1925 4.915 9 5 C9 5.66 9 6.32 9 7 C8.01 7.495 8.01 7.495 7 8 C7 10.64 7 13.28 7 16 C6.484375 15.649375 5.96875 15.29875 5.4375 14.9375 C2.05993333 13.6384359 -0.50468057 14.32782319 -4 15 C-3.9071875 13.576875 -3.9071875 13.576875 -3.8125 12.125 C-3.874375 11.09375 -3.93625 10.0625 -4 9 C-4.99 8.34 -5.98 7.68 -7 7 C-7 6.34 -7 5.68 -7 5 C-5.02 5 -3.04 5 -1 5 C-0.67 3.35 -0.34 1.7 0 0 Z " fill="#E8C61D" transform="translate(57,355)"/>
<path d="M0 0 C0.66 0 1.32 0 2 0 C2.33 1.98 2.66 3.96 3 6 C5.31 6 7.62 6 10 6 C10 6.66 10 7.32 10 8 C9.360625 8.226875 8.72125 8.45375 8.0625 8.6875 C5.72806339 9.85250896 5.72806339 9.85250896 5.25 12.625 C5.1675 13.40875 5.085 14.1925 5 15 C3.6078125 14.9690625 3.6078125 14.9690625 2.1875 14.9375 C-1.02286011 14.84230396 -1.02286011 14.84230396 -4 16 C-4.433125 14.2984375 -4.433125 14.2984375 -4.875 12.5625 C-5.24625 11.386875 -5.6175 10.21125 -6 9 C-6.66 8.67 -7.32 8.34 -8 8 C-8 7.34 -8 6.68 -8 6 C-5.69 5.34 -3.38 4.68 -1 4 C-0.67 2.68 -0.34 1.36 0 0 Z " fill="#D1BA37" transform="translate(178,386)"/>
<path d="M0 0 C0.66 0 1.32 0 2 0 C2 0.99 2 1.98 2 3 C4.64 3 7.28 3 10 3 C10.33 4.65 10.66 6.3 11 8 C10.01 8.33 9.02 8.66 8 9 C6.98245132 10.8653245 6.98245132 10.8653245 6.3125 13.0625 C5.6628125 15.0115625 5.6628125 15.0115625 5 17 C0.71 17 -3.58 17 -8 17 C-8.33 13.37 -8.66 9.74 -9 6 C-8.34 6 -7.68 6 -7 6 C-5.875 12.75 -5.875 12.75 -7 15 C-6.62875 14.484375 -6.2575 13.96875 -5.875 13.4375 C-4 12 -4 12 -1 12.1875 C2 13 2 13 5 15 C4.34 14.01 3.68 13.02 3 12 C3.1875 9.4375 3.1875 9.4375 4 7 C4.99 6.34 5.98 5.68 7 5 C4.03 4.505 4.03 4.505 1 4 C0.67 2.68 0.34 1.36 0 0 Z " fill="#284B5F" transform="translate(83,332)"/>
<path d="M0 0 C2.97 0 5.94 0 9 0 C9 0.66 9 1.32 9 2 C7.02 2 5.04 2 3 2 C3 2.66 3 3.32 3 4 C4.32 4.66 5.64 5.32 7 6 C6.67 7.98 6.34 9.96 6 12 C6.99 11.34 7.98 10.68 9 10 C12.46418389 10.34641839 14.04929881 11.03286587 17 13 C16.67 10.36 16.34 7.72 16 5 C16.99 5 17.98 5 19 5 C18.67 8.3 18.34 11.6 18 15 C15.87506859 15.02693575 13.75004088 15.04636628 11.625 15.0625 C10.44164062 15.07410156 9.25828125 15.08570313 8.0390625 15.09765625 C5 15 5 15 3 14 C3.33 11.36 3.66 8.72 4 6 C3.01 6 2.02 6 1 6 C0.67 4.02 0.34 2.04 0 0 Z " fill="#153E79" transform="translate(47,358)"/>
<path d="M0 0 C0.66 0 1.32 0 2 0 C2 0.66 2 1.32 2 2 C4.31 2 6.62 2 9 2 C8.34 3.32 7.68 4.64 7 6 C6.34 6 5.68 6 5 6 C5.33 7.98 5.66 9.96 6 12 C3.69 11.34 1.38 10.68 -1 10 C-1 10.66 -1 11.32 -1 12 C-1.99 12 -2.98 12 -4 12 C-3.95875 11.071875 -3.9175 10.14375 -3.875 9.1875 C-3.72863661 5.84190281 -3.72863661 5.84190281 -6 3 C-4.02 3 -2.04 3 0 3 C0 2.01 0 1.02 0 0 Z " fill="#F6CE0A" transform="translate(57,422)"/>
<path d="M0 0 C2.64 0 5.28 0 8 0 C8 0.33 8 0.66 8 1 C6.02 1.33 4.04 1.66 2 2 C2.66 2.37125 3.32 2.7425 4 3.125 C6 5 6 5 6.25 8.1875 C6.1675 9.115625 6.085 10.04375 6 11 C6.99 10.34 7.98 9.68 9 9 C11 9.3125 11 9.3125 13 10 C13.99 10.33 14.98 10.66 16 11 C15.814375 10.05125 15.62875 9.1025 15.4375 8.125 C15 5 15 5 16 3 C16.66 3.33 17.32 3.66 18 4 C17.67 6.97 17.34 9.94 17 13 C14.03 12.505 14.03 12.505 11 12 C10.67 12.66 10.34 13.32 10 14 C7 15 7 15 4.8125 14.0625 C4.214375 13.711875 3.61625 13.36125 3 13 C3 11.02 3 9.04 3 7 C2.01 6.67 1.02 6.34 0 6 C0 4.02 0 2.04 0 0 Z " fill="#304A67" transform="translate(136,447)"/>
<path d="M0 0 C1.65 0.33 3.3 0.66 5 1 C5 2.32 5 3.64 5 5 C7.97 5 10.94 5 14 5 C13.67 6.98 13.34 8.96 13 11 C11.68 11.33 10.36 11.66 9 12 C9 14.97 9 17.94 9 21 C8.01 21 7.02 21 6 21 C6.165 20.443125 6.33 19.88625 6.5 19.3125 C7.10187028 16.96647117 7.10187028 16.96647117 6.9375 14.375 C7 12 7 12 9 10 C9.99 10 10.98 10 12 10 C12 9.34 12 8.68 12 8 C9.36 8 6.72 8 4 8 C3.87625 7.195625 3.7525 6.39125 3.625 5.5625 C3.41875 4.716875 3.2125 3.87125 3 3 C2.34 2.67 1.68 2.34 1 2 C1.020625 2.804375 1.04125 3.60875 1.0625 4.4375 C1 7 1 7 0 8 C-2.33297433 8.04092937 -4.66705225 8.04241723 -7 8 C-7.33 8.66 -7.66 9.32 -8 10 C-8 9.01 -8 8.02 -8 7 C-5.69 7 -3.38 7 -1 7 C-0.67 4.69 -0.34 2.38 0 0 Z " fill="#20425F" transform="translate(112,319)"/>
<path d="M0 0 C1.32 0 2.64 0 4 0 C3.67 0.99 3.34 1.98 3 3 C3 2.34 3 1.68 3 1 C2.34 1 1.68 1 1 1 C0.67 3.31 0.34 5.62 0 8 C-1.98 8 -3.96 8 -6 8 C-6 8.66 -6 9.32 -6 10 C-5.34 10 -4.68 10 -4 10 C-2.875 15.625 -2.875 15.625 -4 19 C-3.443125 18.484375 -2.88625 17.96875 -2.3125 17.4375 C0 16 0 16 2.5625 16.0625 C5.45501394 17.17500536 6.40248866 18.39353412 8 21 C7.05125 20.67 6.1025 20.34 5.125 20 C2.22937548 18.89840809 2.22937548 18.89840809 0 19 C0 19.66 0 20.32 0 21 C-1.98 21 -3.96 21 -6 21 C-6 18.36 -6 15.72 -6 13 C-6.66 13 -7.32 13 -8 13 C-8 10.69 -8 8.38 -8 6 C-5.69 6 -3.38 6 -1 6 C-0.67 4.02 -0.34 2.04 0 0 Z " fill="#0C3575" transform="translate(112,449)"/>
<path d="M0 0 C1.05316503 3.1594951 0.9637711 4.65575082 0.58984375 7.90625 C0.166812 12.01608805 -0.11623165 16.08900585 -0.24609375 20.21875 C-0.27896484 21.25257813 -0.31183594 22.28640625 -0.34570312 23.3515625 C-0.40780824 25.48163593 -0.46496157 27.61185856 -0.51757812 29.7421875 C-0.55173828 30.76570312 -0.58589844 31.78921875 -0.62109375 32.84375 C-0.6461499 33.76349609 -0.67120605 34.68324219 -0.69702148 35.63085938 C-1 38 -1 38 -3 41 C-3.02945039 36.58334775 -3.04694816 32.16672133 -3.0625 27.75 C-3.07087891 26.51507812 -3.07925781 25.28015625 -3.08789062 24.0078125 C-3.13248875 7.06052661 -3.13248875 7.06052661 -2 1 C-1.34 0.67 -0.68 0.34 0 0 Z " fill="#093192" transform="translate(135,543)"/>
<path d="M0 0 C2.64 0 5.28 0 8 0 C7.34 1.65 6.68 3.3 6 5 C5.34 5 4.68 5 4 5 C4 7.31 4 9.62 4 12 C3.443125 11.649375 2.88625 11.29875 2.3125 10.9375 C-1.44318137 9.41492647 -4.2832512 10.76108373 -8 12 C-8 9.36 -8 6.72 -8 4 C-7.34 4 -6.68 4 -6 4 C-6 5.32 -6 6.64 -6 8 C-3.69 8 -1.38 8 1 8 C1.20970559 3.85906302 1.20970559 3.85906302 0 0 Z " fill="#98974A" transform="translate(116,456)"/>
<path d="M0 0 C0.66 0 1.32 0 2 0 C1.34 1.32 0.68 2.64 0 4 C-1.98 4 -3.96 4 -6 4 C-6 4.66 -6 5.32 -6 6 C-4.68 6.66 -3.36 7.32 -2 8 C-2 9.98 -2 11.96 -2 14 C-1.01 13.34 -0.02 12.68 1 12 C2.66617115 11.95936168 4.33388095 11.957279 6 12 C6.66 11.67 7.32 11.34 8 11 C8.33 12.65 8.66 14.3 9 16 C8.4225 15.649375 7.845 15.29875 7.25 14.9375 C4.52750185 13.80312577 3.75306948 14.10930105 1 15 C-0.99788438 15.34578768 -2.99759451 15.68143549 -5 16 C-4.67 13.69 -4.34 11.38 -4 9 C-4.66 9 -5.32 9 -6 9 C-6.66 6.69 -7.32 4.38 -8 2 C-5.36 2 -2.72 2 0 2 C0 1.34 0 0.68 0 0 Z " fill="#2B4E67" transform="translate(176,388)"/>
<path d="M0 0 C0.66 0.33 1.32 0.66 2 1 C0.515 3.475 0.515 3.475 -1 6 C-0.01 6.33 0.98 6.66 2 7 C2 8.32 2 9.64 2 11 C-3.34629602 12.0024305 -7.62374766 11.84888195 -13 11 C-10.75 8.4375 -10.75 8.4375 -8 6 C-4.93268023 6.08763771 -4.18647619 6.81352381 -2 9 C-2.04125 7.88625 -2.0825 6.7725 -2.125 5.625 C-2 2 -2 2 0 0 Z " fill="#1E4170" transform="translate(177,426)"/>
<path d="M0 0 C0.66 0.33 1.32 0.66 2 1 C1.67 1.33 1.34 1.66 1 2 C0.63239269 4.32817964 0.29758419 6.6618385 0 9 C-1.918125 9.185625 -1.918125 9.185625 -3.875 9.375 C-7.34790936 9.69042399 -7.34790936 9.69042399 -10 12 C-12.125 11.625 -12.125 11.625 -14 11 C-14.33 11.66 -14.66 12.32 -15 13 C-15.625 11.125 -15.625 11.125 -16 9 C-15.34 8.34 -14.68 7.68 -14 7 C-13.60235737 5.01178687 -13.26224651 3.01055661 -13 1 C-12.34 1.33 -11.68 1.66 -11 2 C-11.33 4.31 -11.66 6.62 -12 9 C-11.4225 8.484375 -10.845 7.96875 -10.25 7.4375 C-8 6 -8 6 -5.9375 6.25 C-5.298125 6.4975 -4.65875 6.745 -4 7 C-3.01 7.33 -2.02 7.66 -1 8 C-1.20625 7.05125 -1.4125 6.1025 -1.625 5.125 C-1.74875 4.09375 -1.8725 3.0625 -2 2 C-1.34 1.34 -0.68 0.68 0 0 Z " fill="#254967" transform="translate(88,450)"/>
<path d="M0 0 C3.96 0 7.92 0 12 0 C12 0.33 12 0.66 12 1 C11.04287109 1.09087891 11.04287109 1.09087891 10.06640625 1.18359375 C9.24011719 1.26738281 8.41382812 1.35117187 7.5625 1.4375 C6.32693359 1.55931641 6.32693359 1.55931641 5.06640625 1.68359375 C3.01337975 1.78930815 3.01337975 1.78930815 2 3 C1.87802192 4.38050858 1.82231101 5.76697647 1.79467773 7.15258789 C1.77473251 8.03342545 1.75478729 8.914263 1.73423767 9.8217926 C1.71752518 10.77907761 1.70081268 11.73636261 1.68359375 12.72265625 C1.66281265 13.69786728 1.64203156 14.67307831 1.62062073 15.67784119 C1.55501588 18.8059863 1.49618972 21.93421822 1.4375 25.0625 C1.39432517 27.1777435 1.35071123 29.29297809 1.30664062 31.40820312 C1.19932345 36.60537587 1.0975778 41.80263577 1 47 C0.67 47 0.34 47 0 47 C0 31.49 0 15.98 0 0 Z " fill="#01338A" transform="translate(68,580)"/>
<path d="M0 0 C0.66 0 1.32 0 2 0 C3.97387813 4.76052962 4.0070238 7.96488101 3 13 C1.35 13 -0.3 13 -2 13 C-2.16682272 8.07872966 -2.24828052 4.49656104 0 0 Z " fill="#F6CB08" transform="translate(178,386)"/>
<path d="M0 0 C1.65 0.99 3.3 1.98 5 3 C4.34 5.31 3.68 7.62 3 10 C4.65 8.68 6.3 7.36 8 6 C10.475 6.99 10.475 6.99 13 8 C13 8.33 13 8.66 13 9 C12.030625 9.12375 11.06125 9.2475 10.0625 9.375 C9.051875 9.58125 8.04125 9.7875 7 10 C6.67 10.66 6.34 11.32 6 12 C4.125 11.875 4.125 11.875 2 11 C0.30273706 7.26602153 -0.23990744 4.07842654 0 0 Z " fill="#133C70" transform="translate(105,329)"/>
<path d="M0 0 C2.97 0.495 2.97 0.495 6 1 C6 1.66 6 2.32 6 3 C5.01 3.495 5.01 3.495 4 4 C4 6.64 4 9.28 4 12 C3.484375 11.649375 2.96875 11.29875 2.4375 10.9375 C-0.94006667 9.6384359 -3.50468057 10.32782319 -7 11 C-6.67 9.02 -6.34 7.04 -6 5 C-5.67 5.99 -5.34 6.98 -5 8 C-3.02 8 -1.04 8 1 8 C0.67 5.36 0.34 2.72 0 0 Z " fill="#C4B74C" transform="translate(60,359)"/>
<path d="M0 0 C0.66 0 1.32 0 2 0 C2.33 1.65 2.66 3.3 3 5 C5.64 5 8.28 5 11 5 C10.67 5.99 10.34 6.98 10 8 C9.01 8 8.02 8 7 8 C7 10.97 7 13.94 7 17 C6.01 16.34 5.02 15.68 4 15 C2.34450469 14.61500109 0.6777567 14.27206865 -1 14 C-1 13.67 -1 13.34 -1 13 C0.65 13 2.3 13 4 13 C4.2165625 12.1028125 4.2165625 12.1028125 4.4375 11.1875 C4.8872439 9.43849596 5.42892341 7.71322977 6 6 C4.68 6 3.36 6 2 6 C2 5.01 2 4.02 2 3 C1.34 3 0.68 3 0 3 C0 2.01 0 1.02 0 0 Z " fill="#ACAE50" transform="translate(169,354)"/>
<path d="M0 0 C1.32 0 2.64 0 4 0 C4.33 1.32 4.66 2.64 5 4 C7.31 4.33 9.62 4.66 12 5 C12.33 6.65 12.66 8.3 13 10 C12.01 10 11.02 10 10 10 C10 9.34 10 8.68 10 8 C8.35 8 6.7 8 5 8 C4.34 6.35 3.68 4.7 3 3 C2.34 3 1.68 3 1 3 C0.67 3.66 0.34 4.32 0 5 C0 3.35 0 1.7 0 0 Z " fill="#2C526B" transform="translate(56,352)"/>
<path d="M0 0 C1.98 0 3.96 0 6 0 C5.34 1.32 4.68 2.64 4 4 C3.34 4 2.68 4 2 4 C2.33 5.98 2.66 7.96 3 10 C0.69 9.34 -1.62 8.68 -4 8 C-4 8.66 -4 9.32 -4 10 C-4.99 10 -5.98 10 -7 10 C-6.67 8.02 -6.34 6.04 -6 4 C-5.67 4.99 -5.34 5.98 -5 7 C-3.35 7 -1.7 7 0 7 C0 4.69 0 2.38 0 0 Z " fill="#D2C33F" transform="translate(60,424)"/>
<path d="M0 0 C0.33 0.66 0.66 1.32 1 2 C0.67 2.66 0.34 3.32 0 4 C-1.98 4 -3.96 4 -6 4 C-5.67 4.99 -5.34 5.98 -5 7 C-4.01 7.33 -3.02 7.66 -2 8 C-2.75 13.75 -2.75 13.75 -5 16 C-6.125 11.25 -6.125 11.25 -5 9 C-5.66 9 -6.32 9 -7 9 C-7 8.01 -7 7.02 -7 6 C-7.66 6 -8.32 6 -9 6 C-9 5.01 -9 4.02 -9 3 C-6.36 3 -3.72 3 -1 3 C-0.67 2.01 -0.34 1.02 0 0 Z " fill="#1E3F6E" transform="translate(168,420)"/>
<path d="M0 0 C0.66 0 1.32 0 2 0 C2.33 1.98 2.66 3.96 3 6 C2.67 5.34 2.34 4.68 2 4 C1.34 4 0.68 4 0 4 C0 4.99 0 5.98 0 7 C-1.65 7.33 -3.3 7.66 -5 8 C-4.34 8.66 -3.68 9.32 -3 10 C-3.375 13.125 -3.375 13.125 -4 16 C-3.34 16.33 -2.68 16.66 -2 17 C-2.99 17.33 -3.98 17.66 -5 18 C-5.103125 16.7625 -5.20625 15.525 -5.3125 14.25 C-5.73801682 10.7207134 -6.48112592 8.62839034 -9 6 C-6.36 6 -3.72 6 -1 6 C-0.67 4.02 -0.34 2.04 0 0 Z " fill="#808956" transform="translate(57,418)"/>
<path d="M0 0 C-0.33 0.99 -0.66 1.98 -1 3 C-1 2.34 -1 1.68 -1 1 C-1.66 1 -2.32 1 -3 1 C-3.226875 1.7425 -3.45375 2.485 -3.6875 3.25 C-5.2589561 6.5425747 -6.99995716 7.97497109 -10 10 C-10.66 10 -11.32 10 -12 10 C-12 10.99 -12 11.98 -12 13 C-12.99 13.33 -13.98 13.66 -15 14 C-13.61872845 9.81905439 -11.72530177 7.29295178 -8.625 4.1875 C-7.85414063 3.39730469 -7.08328125 2.60710938 -6.2890625 1.79296875 C-4 0 -4 0 0 0 Z " fill="#CDE2F0" transform="translate(140,512)"/>
<path d="M0 0 C2.33944736 0.28730055 4.6739143 0.61936779 7 1 C6.01 1.495 6.01 1.495 5 2 C5 3.65 5 5.3 5 7 C3.02 7.33 1.04 7.66 -1 8 C-1.04241723 5.66705225 -1.04092937 3.33297433 -1 1 C-0.67 0.67 -0.34 0.34 0 0 Z " fill="#F3CD0A" transform="translate(144,448)"/>
<path d="M0 0 C1.98 0 3.96 0 6 0 C5.67 1.98 5.34 3.96 5 6 C3.68 6.33 2.36 6.66 1 7 C1 9.97 1 12.94 1 16 C0.01 16 -0.98 16 -2 16 C-1.835 15.443125 -1.67 14.88625 -1.5 14.3125 C-0.89812972 11.96647117 -0.89812972 11.96647117 -1.0625 9.375 C-1 7 -1 7 1 5 C1.99 5 2.98 5 4 5 C4 4.01 4 3.02 4 2 C2.35 2 0.7 2 -1 2 C-0.67 1.34 -0.34 0.68 0 0 Z " fill="#1B3E79" transform="translate(120,324)"/>
<path d="M0 0 C0 2.66666667 0 5.33333333 0 8 C1.32 8.33 2.64 8.66 4 9 C-0.75 12 -0.75 12 -3 12 C-3 9.69 -3 7.38 -3 5 C-4.32 4.34 -5.64 3.68 -7 3 C-7 2.34 -7 1.68 -7 1 C-3.535 0.505 -3.535 0.505 0 0 Z " fill="#AFA445" transform="translate(79,447)"/>
<path d="M0 0 C2.5 1 2.5 1 5 3 C5.46837899 5.79374292 5.23424505 8.14221036 5 11 C3.68 11 2.36 11 1 11 C-0.17571451 7.32589215 -0.07366746 3.83070817 0 0 Z " fill="#254777" transform="translate(40,393)"/>
<path d="M0 0 C0.66 0.33 1.32 0.66 2 1 C2 1.99 2 2.98 2 4 C2.66 4 3.32 4 4 4 C4 4.66 4 5.32 4 6 C5.98 6 7.96 6 10 6 C9.64950425 9.24208567 9.43778819 10.61527704 6.9375 12.8125 C6.298125 13.204375 5.65875 13.59625 5 14 C5.61277612 11.03824877 6.25372522 9.61941217 8 7 C4.7 7 1.4 7 -2 7 C-1.34 4.69 -0.68 2.38 0 0 Z " fill="#415C5B" transform="translate(146,329)"/>
<path d="M0 0 C-0.165 0.9075 -0.33 1.815 -0.5 2.75 C-1.10137146 6.11087503 -1.10137146 6.11087503 -1 10 C-5.25472632 10.12156361 -9.14497757 9.92751122 -13 8 C-10 6 -10 6 -8 6.3125 C-7.34 6.539375 -6.68 6.76625 -6 7 C-5.01 7.33 -4.02 7.66 -3 8 C-3.33 5.69 -3.66 3.38 -4 1 C-2 0 -2 0 0 0 Z " fill="#42535B" transform="translate(58,394)"/>
<path d="M0 0 C0.763125 0.20625 1.52625 0.4125 2.3125 0.625 C2.3125 1.285 2.3125 1.945 2.3125 2.625 C0.6728125 3.24375 0.6728125 3.24375 -1 3.875 C-4.19765942 5.22785591 -5.89403426 6.56555844 -7.6875 9.625 C-9.0075 9.295 -10.3275 8.965 -11.6875 8.625 C-10.6975 7.84125 -9.7075 7.0575 -8.6875 6.25 C-7.2025 4.950625 -7.2025 4.950625 -5.6875 3.625 C-5.6875 2.965 -5.6875 2.305 -5.6875 1.625 C-2.6875 -0.375 -2.6875 -0.375 0 0 Z " fill="#7C7C7C" transform="translate(24.6875,0.375)"/>
<path d="M0 0 C2.97 0.495 2.97 0.495 6 1 C5.34 3.31 4.68 5.62 4 8 C1.03 7.505 1.03 7.505 -2 7 C-1.34 4.69 -0.68 2.38 0 0 Z " fill="#F3CF0B" transform="translate(49,392)"/>
<path d="M0 0 C0.66 0 1.32 0 2 0 C2 0.99 2 1.98 2 3 C2.66 3 3.32 3 4 3 C4 4.98 4 6.96 4 9 C1.03 8.505 1.03 8.505 -2 8 C-1.125 1.125 -1.125 1.125 0 0 Z " fill="#F7CF09" transform="translate(81,335)"/>
<path d="M0 0 C0.66 0 1.32 0 2 0 C2 0.99 2 1.98 2 3 C4.64 3 7.28 3 10 3 C10.33 4.65 10.66 6.3 11 8 C10.01 8.33 9.02 8.66 8 9 C7.67 9.99 7.34 10.98 7 12 C6.34 12 5.68 12 5 12 C5.875 7.25 5.875 7.25 7 5 C4.03 4.505 4.03 4.505 1 4 C0.67 2.68 0.34 1.36 0 0 Z " fill="#223F7F" transform="translate(83,332)"/>
<path d="M0 0 C0.33 0 0.66 0 1 0 C1.33 2.64 1.66 5.28 2 8 C1.2575 7.46375 0.515 6.9275 -0.25 6.375 C-1.1575 5.92125 -2.065 5.4675 -3 5 C-5.16666667 5.66666667 -5.16666667 5.66666667 -7 7 C-7.99 7.33 -8.98 7.66 -10 8 C-9.25 3.25 -9.25 3.25 -7 1 C-6.67 1.66 -6.34 2.32 -6 3 C-4.68 3 -3.36 3 -2 3 C-1.34 2.01 -0.68 1.02 0 0 Z " fill="#B2AA53" transform="translate(118,331)"/>
<path d="M0 0 C0.66 0.33 1.32 0.66 2 1 C2.625 3.5625 2.625 3.5625 3 6 C5.31 6.33 7.62 6.66 10 7 C10 7.66 10 8.32 10 9 C8.68 9 7.36 9 6 9 C5.67 9.66 5.34 10.32 5 11 C5 10.01 5 9.02 5 8 C2.69 7.67 0.38 7.34 -2 7 C-1.125 2.25 -1.125 2.25 0 0 Z " fill="#B1AA4B" transform="translate(146,441)"/>
<path d="M0 0 C0.33 0 0.66 0 1 0 C1.0292483 3.20831391 1.04688189 6.41659307 1.0625 9.625 C1.07087891 10.52863281 1.07925781 11.43226563 1.08789062 12.36328125 C1.10491895 17.02904289 0.96829423 21.41013285 0 26 C-0.99 26 -1.98 26 -3 26 C-2.68289062 24.8759375 -2.36578125 23.751875 -2.0390625 22.59375 C-0.86570187 17.90030749 -0.56340828 13.32011178 -0.375 8.5 C-0.33632812 7.67757812 -0.29765625 6.85515625 -0.2578125 6.0078125 C-0.16468308 4.0055299 -0.08131015 2.00279738 0 0 Z " fill="#4567AD" transform="translate(109,538)"/>
<path d="M0 0 C1.32 0 2.64 0 4 0 C3.67 0.99 3.34 1.98 3 3 C3 2.34 3 1.68 3 1 C2.34 1 1.68 1 1 1 C0.67 3.31 0.34 5.62 0 8 C-1.98 8 -3.96 8 -6 8 C-6 8.66 -6 9.32 -6 10 C-5.34 10.33 -4.68 10.66 -4 11 C-5.32 11 -6.64 11 -8 11 C-8 9.35 -8 7.7 -8 6 C-5.69 6 -3.38 6 -1 6 C-0.67 4.02 -0.34 2.04 0 0 Z " fill="#2F4D65" transform="translate(112,449)"/>
<path d="M0 0 C1.485 0.99 1.485 0.99 3 2 C2.67 4.31 2.34 6.62 2 9 C2.66 9 3.32 9 4 9 C4 8.34 4 7.68 4 7 C5.65 6.67 7.3 6.34 9 6 C9.33 6.66 9.66 7.32 10 8 C6.57404607 9.46826597 3.73069283 10.25386143 0 11 C0 7.37 0 3.74 0 0 Z " fill="#28435F" transform="translate(139,338)"/>
<path d="M0 0 C0 1.65 0 3.3 0 5 C2.475 5.99 2.475 5.99 5 7 C5 7.33 5 7.66 5 8 C3.35 8 1.7 8 0 8 C-0.66 6.02 -1.32 4.04 -2 2 C-3.32 3.32 -4.64 4.64 -6 6 C-6 4.02 -6 2.04 -6 0 C-3.50907189 -1.24546405 -2.58919267 -0.7767578 0 0 Z " fill="#1F3E6E" transform="translate(149,440)"/>
<path d="M0 0 C0.66 0 1.32 0 2 0 C2.66 2.97 3.32 5.94 4 9 C2.02 9 0.04 9 -2 9 C-2 7.02 -2 5.04 -2 3 C-1.34 3 -0.68 3 0 3 C0 2.01 0 1.02 0 0 Z " fill="#F6CD0A" transform="translate(169,422)"/>
<path d="M0 0 C0.66 0 1.32 0 2 0 C2.33 2.31 2.66 4.62 3 7 C4.98 7 6.96 7 9 7 C9 7.66 9 8.32 9 9 C8.01 9.33 7.02 9.66 6 10 C6 9.34 6 8.68 6 8 C3.36 7.67 0.72 7.34 -2 7 C-1.34 4.69 -0.68 2.38 0 0 Z " fill="#A7A64B" transform="translate(49,385)"/>
<path d="M0 0 C2.31 0 4.62 0 7 0 C7 2.31 7 4.62 7 7 C8.32 7.33 9.64 7.66 11 8 C9.35 8.33 7.7 8.66 6 9 C6 9.66 6 10.32 6 11 C5.34 11 4.68 11 4 11 C4.0825 9.9275 4.165 8.855 4.25 7.75 C4.36237217 3.95990735 4.36237217 3.95990735 2 1.5625 C1.34 1.046875 0.68 0.53125 0 0 Z " fill="#B9B448" transform="translate(137,336)"/>
<path d="M0 0 C0 1.98 0 3.96 0 6 C-1.98 6 -3.96 6 -6 6 C-6 4.02 -6 2.04 -6 0 C-3 -1 -3 -1 0 0 Z " fill="#FCCD0E" transform="translate(117,329)"/>
<path d="M0 0 C0.66 0.33 1.32 0.66 2 1 C1.34 2.32 0.68 3.64 0 5 C0.99 5.33 1.98 5.66 3 6 C1.125 10.75 1.125 10.75 0 13 C-0.66 13 -1.32 13 -2 13 C-2 12.34 -2 11.68 -2 11 C-2.66 10.67 -3.32 10.34 -4 10 C-3.01 10 -2.02 10 -1 10 C-1.01160156 9.36191406 -1.02320313 8.72382813 -1.03515625 8.06640625 C-1.04869141 6.82697266 -1.04869141 6.82697266 -1.0625 5.5625 C-1.07410156 4.73878906 -1.08570313 3.91507812 -1.09765625 3.06640625 C-1 1 -1 1 0 0 Z " fill="#073683" transform="translate(154,450)"/>
<path d="M0 0 C0.66 0 1.32 0 2 0 C2 0.66 2 1.32 2 2 C2.99 2 3.98 2 5 2 C5 2.66 5 3.32 5 4 C6.32 4 7.64 4 9 4 C9 5.32 9 6.64 9 8 C8.34 8 7.68 8 7 8 C7 7.34 7 6.68 7 6 C5.02 6 3.04 6 1 6 C0.67 4.02 0.34 2.04 0 0 Z " fill="#1F3F81" transform="translate(51,386)"/>
<path d="M0 0 C2.97 0 5.94 0 9 0 C8.67 0.99 8.34 1.98 8 3 C10.475 3.99 10.475 3.99 13 5 C12.01 5.495 12.01 5.495 11 6 C9.65686601 5.35330586 8.32608822 4.68096422 7 4 C4.6756398 3.30269194 2.34326294 2.63087848 0 2 C0 1.34 0 0.68 0 0 Z " fill="#666666" transform="translate(1169,0)"/>
<path d="M0 0 C2.86724686 0.57344937 3.8614515 0.8614515 6 3 C6 3.99 6 4.98 6 6 C7.98 6 9.96 6 12 6 C12 6.99 12 7.98 12 9 C11.34 9 10.68 9 10 9 C10 8.34 10 7.68 10 7 C7.69 7 5.38 7 3 7 C3 5.68 3 4.36 3 3 C2.01 3 1.02 3 0 3 C0 2.01 0 1.02 0 0 Z " fill="#2E4D76" transform="translate(169,417)"/>
<path d="M0 0 C0 0.99 0 1.98 0 3 C-2 5 -2 5 -5 6 C-6.5 4.625 -6.5 4.625 -8 3 C-8 2.34 -8 1.68 -8 1 C-5.10765685 0.17361624 -3.11257569 0 0 0 Z " fill="#072E87" transform="translate(32,690)"/>
<path d="M0 0 C0.99 0.495 0.99 0.495 2 1 C1.67 2.98 1.34 4.96 1 7 C1.99 6.34 2.98 5.68 4 5 C6.625 5.25 6.625 5.25 9 6 C9.33 6.66 9.66 7.32 10 8 C6.7 8 3.4 8 0 8 C0 5.36 0 2.72 0 0 Z " fill="#365160" transform="translate(52,363)"/>
<path d="M0 0 C1.32 0.33 2.64 0.66 4 1 C3.67 2.65 3.34 4.3 3 6 C4.65 6 6.3 6 8 6 C7.67 6.66 7.34 7.32 7 8 C5.68 7.67 4.36 7.34 3 7 C2.67 7.99 2.34 8.98 2 10 C1.34 10 0.68 10 0 10 C0 6.7 0 3.4 0 0 Z " fill="#C8B938" transform="translate(76,337)"/>
<path d="M0 0 C1.32 0 2.64 0 4 0 C2.84826645 2.46800047 1.95216435 4.04783565 0 6 C-3.125 6.125 -3.125 6.125 -6 6 C-6.33 6.66 -6.66 7.32 -7 8 C-7 6.68 -7 5.36 -7 4 C-5.02 4 -3.04 4 -1 4 C-0.67 2.68 -0.34 1.36 0 0 Z " fill="#345261" transform="translate(79,330)"/>
<path d="M0 0 C2.475 0.495 2.475 0.495 5 1 C5 2.65 5 4.3 5 6 C7.31 6 9.62 6 12 6 C12 6.99 12 7.98 12 9 C4.36923077 7.52307692 4.36923077 7.52307692 2.5 4.875 C2.335 4.25625 2.17 3.6375 2 3 C1.34 3.66 0.68 4.32 0 5 C0 3.35 0 1.7 0 0 Z " fill="#3F5764" transform="translate(80,441)"/>
<path d="M0 0 C0.66 1.32 1.32 2.64 2 4 C2.86735992 5.58753149 3.74251924 7.1708239 4.625 8.75 C5.07101563 9.54921875 5.51703125 10.3484375 5.9765625 11.171875 C6.31429687 11.77515625 6.65203125 12.3784375 7 13 C5.68 13 4.36 13 3 13 C2.67 12.01 2.34 11.02 2 10 C1.34 9.67 0.68 9.34 0 9 C0 6.03 0 3.06 0 0 Z " fill="#3157A6" transform="translate(121,606)"/>
<path d="M0 0 C1.65 0 3.3 0 5 0 C5.33 2.97 5.66 5.94 6 9 C4.02 9.99 4.02 9.99 2 11 C2.33 8.69 2.66 6.38 3 4 C2.01 3.34 1.02 2.68 0 2 C0 1.34 0 0.68 0 0 Z " fill="#BEB256" transform="translate(162,360)"/>
<path d="M0 0 C0.66 0 1.32 0 2 0 C1 4 1 4 0 8 C0.99 8 1.98 8 3 8 C3 8.66 3 9.32 3 10 C1.35 10.33 -0.3 10.66 -2 11 C-2.25 3.375 -2.25 3.375 0 0 Z " fill="#EFCB19" transform="translate(169,357)"/>
<path d="M0 0 C2.64 0 5.28 0 8 0 C8 0.33 8 0.66 8 1 C6.02 1.33 4.04 1.66 2 2 C2.99 3.485 2.99 3.485 4 5 C4.25760279 7.69452521 4.08900053 10.28548375 4 13 C3.67 13 3.34 13 3 13 C3 11.02 3 9.04 3 7 C2.01 6.67 1.02 6.34 0 6 C0 4.02 0 2.04 0 0 Z " fill="#163E78" transform="translate(136,447)"/>
<path d="M0 0 C1.4540625 0.0309375 1.4540625 0.0309375 2.9375 0.0625 C2.2775 0.59875 1.6175 1.135 0.9375 1.6875 C-1.37274799 3.96208592 -1.37274799 3.96208592 -1.3125 7.3125 C-1.23 8.22 -1.1475 9.1275 -1.0625 10.0625 C-2.3825 9.7325 -3.7025 9.4025 -5.0625 9.0625 C-4.4025 8.7325 -3.7425 8.4025 -3.0625 8.0625 C-3.3409375 6.3609375 -3.3409375 6.3609375 -3.625 4.625 C-3.8415625 2.8615625 -3.8415625 2.8615625 -4.0625 1.0625 C-3.0625 0.0625 -3.0625 0.0625 0 0 Z " fill="#C4BB46" transform="translate(88.0625,447.9375)"/>
<path d="M0 0 C1.65 0 3.3 0 5 0 C4.67 0.515625 4.34 1.03125 4 1.5625 C2.67989123 4.78026512 2.86757895 7.5570528 3 11 C1.68 10.34 0.36 9.68 -1 9 C-0.34 8.67 0.32 8.34 1 8 C0.67 5.36 0.34 2.72 0 0 Z " fill="#BAB641" transform="translate(149,336)"/>
<path d="M0 0 C0.33 0 0.66 0 1 0 C1 2.31 1 4.62 1 7 C0.01 7.33 -0.98 7.66 -2 8 C-1.67 9.32 -1.34 10.64 -1 12 C-2.65 12.66 -4.3 13.32 -6 14 C-5.71382812 13.44828125 -5.42765625 12.8965625 -5.1328125 12.328125 C-3.92260849 9.84094711 -2.8904694 7.32252247 -1.875 4.75 C-1.52179688 3.85796875 -1.16859375 2.9659375 -0.8046875 2.046875 C-0.53914062 1.37140625 -0.27359375 0.6959375 0 0 Z " fill="#3157A4" transform="translate(173,604)"/>
<path d="M0 0 C2.2477975 2.05233685 3.0022242 3.00667261 4 6 C3 7 3 7 0.93359375 7.09765625 C0.10988281 7.08605469 -0.71382813 7.07445312 -1.5625 7.0625 C-2.38878906 7.05347656 -3.21507813 7.04445313 -4.06640625 7.03515625 C-4.70449219 7.02355469 -5.34257813 7.01195312 -6 7 C-6 6.67 -6 6.34 -6 6 C-4.35 6 -2.7 6 -1 6 C-0.67 4.02 -0.34 2.04 0 0 Z " fill="#E2C62C" transform="translate(81,443)"/>
<path d="M0 0 C0.66 0.66 1.32 1.32 2 2 C1.67 2.99 1.34 3.98 1 5 C0.01 4.34 -0.98 3.68 -2 3 C-3.94074861 3.27617533 -3.94074861 3.27617533 -6 4 C-7.66519519 4.34060811 -9.33157466 4.67558396 -11 5 C-10.34 3.68 -9.68 2.36 -9 1 C-9 1.66 -9 2.32 -9 3 C-8.01 2.34 -7.02 1.68 -6 1 C-4.33380554 0.9603287 -2.66608987 0.95615553 -1 1 C-0.67 0.67 -0.34 0.34 0 0 Z " fill="#6F7C64" transform="translate(183,399)"/>
<path d="M0 0 C2.97 0 5.94 0 9 0 C9 0.66 9 1.32 9 2 C7.02 2 5.04 2 3 2 C3 2.66 3 3.32 3 4 C3.66 4.33 4.32 4.66 5 5 C3.35 4.67 1.7 4.34 0 4 C0 2.68 0 1.36 0 0 Z " fill="#3B5460" transform="translate(47,358)"/>
<path d="M0 0 C0.33 0.66 0.66 1.32 1 2 C2.32 2 3.64 2 5 2 C5 2.66 5 3.32 5 4 C1.7 4 -1.6 4 -5 4 C-5 3.01 -5 2.02 -5 1 C-3.35 0.67 -1.7 0.34 0 0 Z " fill="#0C3196" transform="translate(79,460)"/>
<path d="M0 0 C2.2109885 0.42793326 3.98119242 0.99059621 6 2 C6.66 1.34 7.32 0.68 8 0 C8 0.66 8 1.32 8 2 C8.66 2.33 9.32 2.66 10 3 C7.3125 4.25 7.3125 4.25 4 5 C1.125 3.125 1.125 3.125 -1 1 C-0.67 0.67 -0.34 0.34 0 0 Z " fill="#123B76" transform="translate(178,401)"/>
<path d="M0 0 C1.32 0.33 2.64 0.66 4 1 C4 1.99 4 2.98 4 4 C0.7 4 -2.6 4 -6 4 C-6 3.34 -6 2.68 -6 2 C-4.02 2 -2.04 2 0 2 C0 1.34 0 0.68 0 0 Z " fill="#072D92" transform="translate(60,372)"/>
<path d="M0 0 C0.33 0 0.66 0 1 0 C1.33 6.27 1.66 12.54 2 19 C1.01 19 0.02 19 -1 19 C-0.67 12.73 -0.34 6.46 0 0 Z " fill="#04368F" transform="translate(110,541)"/>
<path d="M0 0 C0.66 0 1.32 0 2 0 C2.33 2.64 2.66 5.28 3 8 C0.07120629 7.37240135 -2.36095629 6.41377341 -5 5 C-3.35 5 -1.7 5 0 5 C0 3.35 0 1.7 0 0 Z " fill="#CDB835" transform="translate(149,450)"/>
<path d="M0 0 C0.99 0 1.98 0 3 0 C3 1.32 3 2.64 3 4 C1.68 4.33 0.36 4.66 -1 5 C-1 7.31 -1 9.62 -1 12 C-1.33 12 -1.66 12 -2 12 C-2.05422947 10.5629191 -2.09289723 9.12524538 -2.125 7.6875 C-2.14820313 6.88699219 -2.17140625 6.08648437 -2.1953125 5.26171875 C-2 3 -2 3 0 0 Z " fill="#2A4A7A" transform="translate(66,424)"/>
<path d="M0 0 C0.66 0.33 1.32 0.66 2 1 C1 4 1 4 -1.375 5.25 C-4 6 -4 6 -7 5 C-7 4.34 -7 3.68 -7 3 C-4.69631264 1.93347808 -2.35981813 0.93578995 0 0 Z " fill="#7C7C7C" transform="translate(1180,712)"/>
<path d="M0 0 C2.97 0.33 5.94 0.66 9 1 C9 1.66 9 2.32 9 3 C11.64 3 14.28 3 17 3 C17 3.33 17 3.66 17 4 C10.48208608 4.3540919 5.82478551 4.03901852 0 1 C0 0.67 0 0.34 0 0 Z " fill="#A9C0E8" transform="translate(135,626)"/>
<path d="M0 0 C5.00890086 0.61512818 10.00632136 1.2717552 15 2 C15 2.33 15 2.66 15 3 C10.05 3 5.1 3 0 3 C0 2.01 0 1.02 0 0 Z " fill="#EAFAFF" transform="translate(97,625)"/>
<path d="M0 0 C2.475 0.99 2.475 0.99 5 2 C5 2.33 5 2.66 5 3 C4.030625 3.12375 3.06125 3.2475 2.0625 3.375 C1.051875 3.58125 0.04125 3.7875 -1 4 C-1.33 4.66 -1.66 5.32 -2 6 C-3.32 5.67 -4.64 5.34 -6 5 C-4.73775586 2.47551173 -3.49988984 2.17182336 -1 1 C-0.67 0.67 -0.34 0.34 0 0 Z " fill="#224163" transform="translate(113,335)"/>
<path d="M0 0 C0.33 0 0.66 0 1 0 C1.042721 1.66611905 1.04063832 3.33382885 1 5 C0 6 0 6 -3.5625 6.0625 C-4.696875 6.041875 -5.83125 6.02125 -7 6 C-7 5.34 -7 4.68 -7 4 C-6.030625 3.71125 -5.06125 3.4225 -4.0625 3.125 C-0.89335797 2.35785318 -0.89335797 2.35785318 0 0 Z " fill="#193D70" transform="translate(79,442)"/>
<path d="M0 0 C1.32 0.33 2.64 0.66 4 1 C4.6875 3.25 4.6875 3.25 5 6 C3.5625 8.3125 3.5625 8.3125 2 10 C2.33 7.69 2.66 5.38 3 3 C2.34 3 1.68 3 1 3 C0.67 2.01 0.34 1.02 0 0 Z " fill="#1B3674" transform="translate(169,394)"/>
<path d="M0 0 C0.66 0 1.32 0 2 0 C1.49396008 2.16874252 1.00016187 3.99967627 0 6 C-0.66 6 -1.32 6 -2 6 C-2 6.66 -2 7.32 -2 8 C-2.66 8 -3.32 8 -4 8 C-4.33 6.68 -4.66 5.36 -5 4 C-3.68 4.33 -2.36 4.66 -1 5 C-0.67 3.35 -0.34 1.7 0 0 Z " fill="#1F4A96" transform="translate(157,600)"/>
<path d="M0 0 C0.66 0 1.32 0 2 0 C2 1.32 2 2.64 2 4 C3.98 4 5.96 4 8 4 C5.33333333 5.33333333 2.66666667 6.66666667 0 8 C0 5.36 0 2.72 0 0 Z " fill="#8F9954" transform="translate(108,460)"/>
<path d="M0 0 C0.99 0 1.98 0 3 0 C3 0.66 3 1.32 3 2 C5.31 2 7.62 2 10 2 C9.34 3.32 8.68 4.64 8 6 C7.67 5.34 7.34 4.68 7 4 C3.97065509 3.34227572 3.97065509 3.34227572 1 3 C0.67 2.01 0.34 1.02 0 0 Z " fill="#0B347B" transform="translate(149,444)"/>
<path d="M0 0 C0.99 0.33 1.98 0.66 3 1 C3 3 3 3 1.6875 4.625 C0 6 0 6 -3 6 C-2.42655063 3.13275314 -2.1385485 2.1385485 0 0 Z " fill="#06358E" transform="translate(125,618)"/>
<path d="M0 0 C2.4375 0.125 2.4375 0.125 5 1 C6.8125 3.0625 6.8125 3.0625 8 5 C7.0925 4.690625 6.185 4.38125 5.25 4.0625 C2.83436662 3.2727737 0.47219715 2.57050703 -2 2 C-1.34 1.34 -0.68 0.68 0 0 Z " fill="#1D4264" transform="translate(112,465)"/>
<path d="M0 0 C-0.53725895 3.37705625 -1.11064623 6.696686 -2 10 C-3.85776765 6.86501708 -4.20140476 4.62528568 -4 1 C-2 0 -2 0 0 0 Z " fill="#29445B" transform="translate(58,394)"/>
<path d="M0 0 C1.98 0 3.96 0 6 0 C6 0.66 6 1.32 6 2 C5.071875 2.4021875 5.071875 2.4021875 4.125 2.8125 C1.7004767 3.95556848 1.7004767 3.95556848 0 7 C0 4.69 0 2.38 0 0 Z " fill="#C1BC43" transform="translate(182,392)"/>
<path d="M0 0 C0.763125 0.0825 1.52625 0.165 2.3125 0.25 C1.3225 0.745 1.3225 0.745 0.3125 1.25 C0.3125 2.24 0.3125 3.23 0.3125 4.25 C-1.6675 4.25 -3.6475 4.25 -5.6875 4.25 C-3.34903846 0.31153846 -3.34903846 0.31153846 0 0 Z " fill="#073384" transform="translate(147.6875,345.75)"/>
<path d="M0 0 C0.99 0.33 1.98 0.66 3 1 C4.3125 3.875 4.3125 3.875 5 7 C4.01 8.485 4.01 8.485 3 10 C2.01 6.7 1.02 3.4 0 0 Z " fill="#163E9F" transform="translate(98,586)"/>
<path d="M0 0 C0.66 0 1.32 0 2 0 C2 0.66 2 1.32 2 2 C2.99 1.67 3.98 1.34 5 1 C4.34 2.32 3.68 3.64 3 5 C1.35 5 -0.3 5 -2 5 C-1.34 4.67 -0.68 4.34 0 4 C0 2.68 0 1.36 0 0 Z " fill="#224AA5" transform="translate(90,554)"/>
<path d="M0 0 C1.32 0.33 2.64 0.66 4 1 C4 1.99 4 2.98 4 4 C4.66 4.33 5.32 4.66 6 5 C4.02 5 2.04 5 0 5 C0 3.35 0 1.7 0 0 Z " fill="#113078" transform="translate(116,451)"/>
<path d="M0 0 C1.98 0 3.96 0 6 0 C6 1.98 6 3.96 6 6 C5.34 6 4.68 6 4 6 C4 5.01 4 4.02 4 3 C2.68 2.34 1.36 1.68 0 1 C0 0.67 0 0.34 0 0 Z " fill="#EACB1E" transform="translate(51,425)"/>
<path d="M0 0 C0.33 0.66 0.66 1.32 1 2 C0.67 2.66 0.34 3.32 0 4 C-1.98 4 -3.96 4 -6 4 C-6 4.66 -6 5.32 -6 6 C-6.99 6 -7.98 6 -9 6 C-9 5.01 -9 4.02 -9 3 C-6.36 3 -3.72 3 -1 3 C-0.67 2.01 -0.34 1.02 0 0 Z " fill="#2B4C6B" transform="translate(168,420)"/>
<path d="M0 0 C0.33 0.66 0.66 1.32 1 2 C3.64 2 6.28 2 9 2 C9.33 3.32 9.66 4.64 10 6 C9.01 6 8.02 6 7 6 C7 5.34 7 4.68 7 4 C4.69 3.67 2.38 3.34 0 3 C0 2.01 0 1.02 0 0 Z " fill="#183F67" transform="translate(172,356)"/>
<path d="M0 0 C2.97 0.99 5.94 1.98 9 3 C9 3.33 9 3.66 9 4 C6.36 4 3.72 4 1 4 C0.67 2.68 0.34 1.36 0 0 Z " fill="#043181" transform="translate(172,354)"/>
<path d="M0 0 C1.32 0 2.64 0 4 0 C4.33 2.31 4.66 4.62 5 7 C4.34 5.68 3.68 4.36 3 3 C2.34 3 1.68 3 1 3 C0.67 3.66 0.34 4.32 0 5 C0 3.35 0 1.7 0 0 Z " fill="#435B68" transform="translate(56,352)"/>
<path d="M0 0 C0.66 0 1.32 0 2 0 C2.33 1.98 2.66 3.96 3 6 C1.68 6 0.36 6 -1 6 C-0.67 4.02 -0.34 2.04 0 0 Z " fill="#043784" transform="translate(137,338)"/>
<path d="M0 0 C0.66 0.33 1.32 0.66 2 1 C2.625 4.0625 2.625 4.0625 3 7 C1.35 7 -0.3 7 -2 7 C-1.34 4.69 -0.68 2.38 0 0 Z " fill="#AA9F57" transform="translate(146,329)"/>
<path d="M0 0 C1.32 1.32 2.64 2.64 4 4 C3.67 4.99 3.34 5.98 3 7 C2.01 6.67 1.02 6.34 0 6 C0 4.02 0 2.04 0 0 Z " fill="#345AA3" transform="translate(81,583)"/>
<path d="M0 0 C0.66 0 1.32 0 2 0 C2 1.32 2 2.64 2 4 C-0.64 4 -3.28 4 -6 4 C-6 3.34 -6 2.68 -6 2 C-4.02 2 -2.04 2 0 2 C0 1.34 0 0.68 0 0 Z " fill="#03348A" transform="translate(112,468)"/>
<path d="M0 0 C1.125 3.75 1.125 3.75 0 6 C-0.99 6 -1.98 6 -3 6 C-3 7.65 -3 9.3 -3 11 C-3.33 11 -3.66 11 -4 11 C-4 9.02 -4 7.04 -4 5 C-3.34 5 -2.68 5 -2 5 C-1.34 3.35 -0.68 1.7 0 0 Z " fill="#123684" transform="translate(124,456)"/>
<path d="M0 0 C1.65 0 3.3 0 5 0 C6.33332095 2.6666419 5.67102033 4.16680303 5 7 C4.67 5.68 4.34 4.36 4 3 C2.68 2.67 1.36 2.34 0 2 C0 1.34 0 0.68 0 0 Z " fill="#C8C33F" transform="translate(106,457)"/>
<path d="M0 0 C0.99 0 1.98 0 3 0 C3 0.99 3 1.98 3 3 C3.99 3 4.98 3 6 3 C6 4.32 6 5.64 6 7 C5.34 7 4.68 7 4 7 C4 6.34 4 5.68 4 5 C3.34 5 2.68 5 2 5 C1.34 3.35 0.68 1.7 0 0 Z " fill="#143580" transform="translate(146,328)"/>
<path d="M0 0 C2.31 0 4.62 0 7 0 C6.01 1.485 6.01 1.485 5 3 C4.67 3.66 4.34 4.32 4 5 C2 3.625 2 3.625 0 2 C0 1.34 0 0.68 0 0 Z " fill="#999E59" transform="translate(105,327)"/>
<path d="M0 0 C2.95929119 2.75520215 5.03681826 5.46627288 7 9 C3.17475764 7.549046 1.80909034 5.61818068 0 2 C0 1.34 0 0.68 0 0 Z " fill="#000D30" transform="translate(20,687)"/>
<path d="M0 0 C1.76462683 3.08809695 2 4.23312136 2 8 C1.01 8 0.02 8 -1 8 C-0.67 5.36 -0.34 2.72 0 0 Z " fill="#2144A3" transform="translate(85,592)"/>
<path d="M0 0 C3.96 0 7.92 0 12 0 C12 0.33 12 0.66 12 1 C11.07767578 1.09087891 11.07767578 1.09087891 10.13671875 1.18359375 C9.32847656 1.26738281 8.52023438 1.35117187 7.6875 1.4375 C6.88699219 1.51871094 6.08648437 1.59992187 5.26171875 1.68359375 C2.83912821 1.95265693 2.83912821 1.95265693 0 3 C0 2.01 0 1.02 0 0 Z " fill="#0C2D8A" transform="translate(68,580)"/>
<path d="M0 0 C0.598125 0.20625 1.19625 0.4125 1.8125 0.625 C1.1525 0.625 0.4925 0.625 -0.1875 0.625 C-0.5175 1.945 -0.8475 3.265 -1.1875 4.625 C-2.5075 3.635 -3.8275 2.645 -5.1875 1.625 C-2.1875 -0.375 -2.1875 -0.375 0 0 Z " fill="#063981" transform="translate(49.1875,402.375)"/>
<path d="M0 0 C0.66 0 1.32 0 2 0 C2.33 1.98 2.66 3.96 3 6 C1.35 6 -0.3 6 -2 6 C-1.34 4.02 -0.68 2.04 0 0 Z " fill="#C4B24A" transform="translate(178,386)"/>
<path d="M0 0 C-0.33 1.32 -0.66 2.64 -1 4 C-3.31 4 -5.62 4 -8 4 C-6.68 3.67 -5.36 3.34 -4 3 C-4 2.34 -4 1.68 -4 1 C-2 0 -2 0 0 0 Z " fill="#324A58" transform="translate(48,388)"/>
<path d="M0 0 C0.33 0 0.66 0 1 0 C2.31626692 3.61973402 3 6.09567131 3 10 C0.9375 8.375 0.9375 8.375 -1 6 C-0.75 2.75 -0.75 2.75 0 0 Z " fill="#144387" transform="translate(152,341)"/>
<path d="M0 0 C0.66 0 1.32 0 2 0 C2 1.65 2 3.3 2 5 C0.02 5 -1.96 5 -4 5 C-3.67 4.34 -3.34 3.68 -3 3 C-2.01 3 -1.02 3 0 3 C0 2.01 0 1.02 0 0 Z " fill="#092E96" transform="translate(148,347)"/>
<path d="M0 0 C0.99 0.33 1.98 0.66 3 1 C3 3.97 3 6.94 3 10 C2.67 10 2.34 10 2 10 C2 8.02 2 6.04 2 4 C1.34 4 0.68 4 0 4 C0 2.68 0 1.36 0 0 Z " fill="#043781" transform="translate(72,338)"/>
</svg>
